%
M48
M72
T01C0.00800
T02C0.01200
T03C0.02362
T04C0.02400
T05C0.02756
T06C0.03000
T07C0.03150
T08C0.03200
T09C0.03500
T10C0.04000
T11C0.07874
T12C0.11811
%
T01
X182300Y265500
T02
X176100Y265700
X171600Y274700
X164850Y276950
X161250Y276950
X153600Y273350
X149100Y268850
X129750Y291350
X119850Y281450
X97800Y295850
X122550Y326000
X161250Y317900
X187800Y274700
X191500Y254000
X193200Y246800
X213450Y228800
X223800Y228800
X238650Y235550
X240900Y209900
X225150Y203150
X219750Y198200
X202200Y200900
X196300Y197300
X191300Y181300
X161700Y203150
X158100Y203150
X139200Y180650
X179250Y145100
X190050Y137450
X103650Y137900
X135600Y230150
X212550Y306200
X280050Y245450
X281400Y195950
X292200Y148250
X288600Y125750
T03
X201339Y227087
X196339Y227087
X214213Y232954
X214213Y237954
X214213Y242954
X214213Y247954
X214213Y252954
X214213Y257954
X214213Y262954
X214213Y272954
X214213Y277954
X214213Y282954
X214213Y287954
X214213Y292954
X214213Y297954
X143347Y297954
X143347Y292954
X143347Y287954
X143347Y282954
X143347Y277954
X143347Y272954
X143347Y267954
X143347Y262954
X143347Y257954
X143347Y252954
X143347Y247954
X143347Y242954
X143347Y237954
X143347Y232954
X156339Y227087
X161339Y227087
T04
X175300Y258300
X181300Y258300
T05
X210276Y216457
X216182Y216457
X222087Y216457
X227993Y216457
X233898Y216457
X239804Y216457
X145316Y216457
X139410Y216457
X133505Y216457
X127599Y216457
X121694Y216457
X115788Y216457
T06
X162380Y36930
X195180Y36930
T07
X129426Y138713
X129426Y148713
T08
X69000Y116300
X90150Y156350
X126600Y250400
X163500Y263000
X167100Y286850
X197700Y286850
X176100Y320600
X262500Y304400
X312900Y238700
X253500Y218900
X292200Y142850
X198600Y110000
X71700Y253550
X72150Y262550
X87450Y315200
T09
X170780Y36930
X178780Y36930
X186780Y36930
T10
X225800Y137300
X235800Y137300
X245800Y137300
X287954Y116851
X297954Y116851
X203780Y154253
X193780Y154253
X183780Y154253
X173780Y154253
X163780Y154253
X153780Y154253
X91772Y241489
X91772Y251489
X91772Y261489
X91772Y271489
X91772Y281489
X91772Y291489
X84655Y304222
X77584Y297151
X70513Y290080
X63442Y283008
X56370Y275937
X158780Y333387
X168780Y333387
X178780Y333387
X188780Y333387
X198780Y333387
X226300Y301300
X226300Y291300
X226300Y281300
X226300Y271300
X226300Y261300
X226300Y251300
X226300Y241300
X236300Y241300
X236300Y251300
X236300Y261300
X236300Y271300
X236300Y281300
X236300Y291300
X236300Y301300
X246300Y291300
X256300Y291300
X256300Y281300
X246300Y281300
X246300Y271300
X246300Y261300
X256300Y261300
X256300Y271300
X266300Y271300
X266300Y261300
X266300Y251300
X266300Y241300
X256300Y241300
X246300Y241300
X246300Y251300
X256300Y251300
X276300Y251300
X286300Y251300
X286300Y241300
X276300Y241300
X296300Y241300
X296300Y251300
X296300Y261300
X286300Y261300
X286300Y271300
X276300Y271300
X276300Y261300
X276300Y281300
X285080Y290080
X278008Y297151
X270937Y304222
X266300Y291300
X266300Y281300
X292151Y283008
X299222Y275937
X306300Y261300
X306300Y251300
X306300Y241300
T11
X273269Y219213
X273269Y148347
X111851Y152048
X111851Y136300
X84292Y148347
X84292Y219213
T12
X131536Y329450
X226024Y329450
X226024Y38111
X131536Y38111
M30
