G75*
%MOIN*%
%OFA0B0*%
%FSLAX25Y25*%
%IPPOS*%
%LPD*%
%AMOC8*
5,1,8,0,0,1.08239X$1,22.5*
%
%ADD10C,0.00600*%
%ADD11C,0.00000*%
%ADD12C,0.03500*%
%ADD13C,0.00500*%
%ADD14C,0.00300*%
D10*
X0018150Y0144410D02*
X0052796Y0144410D01*
X0052796Y0223150D01*
X0018150Y0223150D01*
X0018150Y0223151D02*
X0019158Y0227061D01*
X0020260Y0230946D01*
X0021458Y0234802D01*
X0022749Y0238628D01*
X0024133Y0242421D01*
X0025609Y0246180D01*
X0027177Y0249901D01*
X0028835Y0253583D01*
X0030582Y0257223D01*
X0032418Y0260820D01*
X0034341Y0264370D01*
X0036350Y0267873D01*
X0038445Y0271326D01*
X0040622Y0274726D01*
X0042882Y0278072D01*
X0045224Y0281362D01*
X0047644Y0284594D01*
X0050143Y0287766D01*
X0052719Y0290876D01*
X0055370Y0293922D01*
X0058094Y0296902D01*
X0060891Y0299815D01*
X0063758Y0302659D01*
X0066693Y0305432D01*
X0069695Y0308132D01*
X0072762Y0310759D01*
X0075892Y0313309D01*
X0079084Y0315783D01*
X0082335Y0318178D01*
X0085644Y0320493D01*
X0089008Y0322726D01*
X0092426Y0324876D01*
X0095895Y0326943D01*
X0099414Y0328924D01*
X0102979Y0330818D01*
X0106591Y0332625D01*
X0110245Y0334344D01*
X0113940Y0335972D01*
X0117673Y0337510D01*
X0121444Y0338956D01*
X0125248Y0340310D01*
X0129084Y0341570D01*
X0132950Y0342737D01*
X0136843Y0343808D01*
X0140761Y0344784D01*
X0144702Y0345665D01*
X0148663Y0346448D01*
X0152643Y0347135D01*
X0156637Y0347725D01*
X0160645Y0348217D01*
X0164664Y0348610D01*
X0168691Y0348906D01*
X0172724Y0349103D01*
X0176761Y0349202D01*
X0180799Y0349202D01*
X0184836Y0349103D01*
X0188869Y0348906D01*
X0192896Y0348610D01*
X0196915Y0348217D01*
X0200923Y0347725D01*
X0204917Y0347135D01*
X0208897Y0346448D01*
X0212858Y0345665D01*
X0216799Y0344784D01*
X0220717Y0343808D01*
X0224610Y0342737D01*
X0228476Y0341570D01*
X0232312Y0340310D01*
X0236116Y0338956D01*
X0239887Y0337510D01*
X0243620Y0335972D01*
X0247315Y0334344D01*
X0250969Y0332625D01*
X0254581Y0330818D01*
X0258146Y0328924D01*
X0261665Y0326943D01*
X0265134Y0324876D01*
X0268552Y0322726D01*
X0271916Y0320493D01*
X0275225Y0318178D01*
X0278476Y0315783D01*
X0281668Y0313309D01*
X0284798Y0310759D01*
X0287865Y0308132D01*
X0290867Y0305432D01*
X0293802Y0302659D01*
X0296669Y0299815D01*
X0299466Y0296902D01*
X0302190Y0293922D01*
X0304841Y0290876D01*
X0307417Y0287766D01*
X0309916Y0284594D01*
X0312336Y0281362D01*
X0314678Y0278072D01*
X0316938Y0274726D01*
X0319115Y0271326D01*
X0321210Y0267873D01*
X0323219Y0264370D01*
X0325142Y0260820D01*
X0326978Y0257223D01*
X0328725Y0253583D01*
X0330383Y0249901D01*
X0331951Y0246180D01*
X0333427Y0242421D01*
X0334811Y0238628D01*
X0336102Y0234802D01*
X0337300Y0230946D01*
X0338402Y0227061D01*
X0339410Y0223151D01*
X0339410Y0223150D02*
X0304765Y0223150D01*
X0304765Y0144410D01*
X0339410Y0144410D01*
X0338402Y0140500D01*
X0337300Y0136615D01*
X0336102Y0132759D01*
X0334811Y0128933D01*
X0333427Y0125140D01*
X0331951Y0121381D01*
X0330383Y0117660D01*
X0328725Y0113978D01*
X0326978Y0110338D01*
X0325142Y0106741D01*
X0323219Y0103191D01*
X0321210Y0099688D01*
X0319115Y0096235D01*
X0316938Y0092835D01*
X0314678Y0089489D01*
X0312336Y0086199D01*
X0309916Y0082967D01*
X0307417Y0079795D01*
X0304841Y0076685D01*
X0302190Y0073639D01*
X0299466Y0070659D01*
X0296669Y0067746D01*
X0293802Y0064902D01*
X0290867Y0062129D01*
X0287865Y0059429D01*
X0284798Y0056802D01*
X0281668Y0054252D01*
X0278476Y0051778D01*
X0275225Y0049383D01*
X0271916Y0047068D01*
X0268552Y0044835D01*
X0265134Y0042685D01*
X0261665Y0040618D01*
X0258146Y0038637D01*
X0254581Y0036743D01*
X0250969Y0034936D01*
X0247315Y0033217D01*
X0243620Y0031589D01*
X0239887Y0030051D01*
X0236116Y0028605D01*
X0232312Y0027251D01*
X0228476Y0025991D01*
X0224610Y0024824D01*
X0220717Y0023753D01*
X0216799Y0022777D01*
X0212858Y0021896D01*
X0208897Y0021113D01*
X0204917Y0020426D01*
X0200923Y0019836D01*
X0196915Y0019344D01*
X0192896Y0018951D01*
X0188869Y0018655D01*
X0184836Y0018458D01*
X0180799Y0018359D01*
X0176761Y0018359D01*
X0172724Y0018458D01*
X0168691Y0018655D01*
X0164664Y0018951D01*
X0160645Y0019344D01*
X0156637Y0019836D01*
X0152643Y0020426D01*
X0148663Y0021113D01*
X0144702Y0021896D01*
X0140761Y0022777D01*
X0136843Y0023753D01*
X0132950Y0024824D01*
X0129084Y0025991D01*
X0125248Y0027251D01*
X0121444Y0028605D01*
X0117673Y0030051D01*
X0113940Y0031589D01*
X0110245Y0033217D01*
X0106591Y0034936D01*
X0102979Y0036743D01*
X0099414Y0038637D01*
X0095895Y0040618D01*
X0092426Y0042685D01*
X0089008Y0044835D01*
X0085644Y0047068D01*
X0082335Y0049383D01*
X0079084Y0051778D01*
X0075892Y0054252D01*
X0072762Y0056802D01*
X0069695Y0059429D01*
X0066693Y0062129D01*
X0063758Y0064902D01*
X0060891Y0067746D01*
X0058094Y0070659D01*
X0055370Y0073639D01*
X0052719Y0076685D01*
X0050143Y0079795D01*
X0047644Y0082967D01*
X0045224Y0086199D01*
X0042882Y0089489D01*
X0040622Y0092835D01*
X0038445Y0096235D01*
X0036350Y0099688D01*
X0034341Y0103191D01*
X0032418Y0106741D01*
X0030582Y0110338D01*
X0028835Y0113978D01*
X0027177Y0117660D01*
X0025609Y0121381D01*
X0024133Y0125140D01*
X0022749Y0128933D01*
X0021458Y0132759D01*
X0020260Y0136615D01*
X0019158Y0140500D01*
X0018150Y0144410D01*
D11*
X0125630Y0038111D02*
X0125632Y0038264D01*
X0125638Y0038418D01*
X0125648Y0038571D01*
X0125662Y0038723D01*
X0125680Y0038876D01*
X0125702Y0039027D01*
X0125727Y0039178D01*
X0125757Y0039329D01*
X0125791Y0039479D01*
X0125828Y0039627D01*
X0125869Y0039775D01*
X0125914Y0039921D01*
X0125963Y0040067D01*
X0126016Y0040211D01*
X0126072Y0040353D01*
X0126132Y0040494D01*
X0126196Y0040634D01*
X0126263Y0040772D01*
X0126334Y0040908D01*
X0126409Y0041042D01*
X0126486Y0041174D01*
X0126568Y0041304D01*
X0126652Y0041432D01*
X0126740Y0041558D01*
X0126831Y0041681D01*
X0126925Y0041802D01*
X0127023Y0041920D01*
X0127123Y0042036D01*
X0127227Y0042149D01*
X0127333Y0042260D01*
X0127442Y0042368D01*
X0127554Y0042473D01*
X0127668Y0042574D01*
X0127786Y0042673D01*
X0127905Y0042769D01*
X0128027Y0042862D01*
X0128152Y0042951D01*
X0128279Y0043038D01*
X0128408Y0043120D01*
X0128539Y0043200D01*
X0128672Y0043276D01*
X0128807Y0043349D01*
X0128944Y0043418D01*
X0129083Y0043483D01*
X0129223Y0043545D01*
X0129365Y0043603D01*
X0129508Y0043658D01*
X0129653Y0043709D01*
X0129799Y0043756D01*
X0129946Y0043799D01*
X0130094Y0043838D01*
X0130243Y0043874D01*
X0130393Y0043905D01*
X0130544Y0043933D01*
X0130695Y0043957D01*
X0130848Y0043977D01*
X0131000Y0043993D01*
X0131153Y0044005D01*
X0131306Y0044013D01*
X0131459Y0044017D01*
X0131613Y0044017D01*
X0131766Y0044013D01*
X0131919Y0044005D01*
X0132072Y0043993D01*
X0132224Y0043977D01*
X0132377Y0043957D01*
X0132528Y0043933D01*
X0132679Y0043905D01*
X0132829Y0043874D01*
X0132978Y0043838D01*
X0133126Y0043799D01*
X0133273Y0043756D01*
X0133419Y0043709D01*
X0133564Y0043658D01*
X0133707Y0043603D01*
X0133849Y0043545D01*
X0133989Y0043483D01*
X0134128Y0043418D01*
X0134265Y0043349D01*
X0134400Y0043276D01*
X0134533Y0043200D01*
X0134664Y0043120D01*
X0134793Y0043038D01*
X0134920Y0042951D01*
X0135045Y0042862D01*
X0135167Y0042769D01*
X0135286Y0042673D01*
X0135404Y0042574D01*
X0135518Y0042473D01*
X0135630Y0042368D01*
X0135739Y0042260D01*
X0135845Y0042149D01*
X0135949Y0042036D01*
X0136049Y0041920D01*
X0136147Y0041802D01*
X0136241Y0041681D01*
X0136332Y0041558D01*
X0136420Y0041432D01*
X0136504Y0041304D01*
X0136586Y0041174D01*
X0136663Y0041042D01*
X0136738Y0040908D01*
X0136809Y0040772D01*
X0136876Y0040634D01*
X0136940Y0040494D01*
X0137000Y0040353D01*
X0137056Y0040211D01*
X0137109Y0040067D01*
X0137158Y0039921D01*
X0137203Y0039775D01*
X0137244Y0039627D01*
X0137281Y0039479D01*
X0137315Y0039329D01*
X0137345Y0039178D01*
X0137370Y0039027D01*
X0137392Y0038876D01*
X0137410Y0038723D01*
X0137424Y0038571D01*
X0137434Y0038418D01*
X0137440Y0038264D01*
X0137442Y0038111D01*
X0137440Y0037958D01*
X0137434Y0037804D01*
X0137424Y0037651D01*
X0137410Y0037499D01*
X0137392Y0037346D01*
X0137370Y0037195D01*
X0137345Y0037044D01*
X0137315Y0036893D01*
X0137281Y0036743D01*
X0137244Y0036595D01*
X0137203Y0036447D01*
X0137158Y0036301D01*
X0137109Y0036155D01*
X0137056Y0036011D01*
X0137000Y0035869D01*
X0136940Y0035728D01*
X0136876Y0035588D01*
X0136809Y0035450D01*
X0136738Y0035314D01*
X0136663Y0035180D01*
X0136586Y0035048D01*
X0136504Y0034918D01*
X0136420Y0034790D01*
X0136332Y0034664D01*
X0136241Y0034541D01*
X0136147Y0034420D01*
X0136049Y0034302D01*
X0135949Y0034186D01*
X0135845Y0034073D01*
X0135739Y0033962D01*
X0135630Y0033854D01*
X0135518Y0033749D01*
X0135404Y0033648D01*
X0135286Y0033549D01*
X0135167Y0033453D01*
X0135045Y0033360D01*
X0134920Y0033271D01*
X0134793Y0033184D01*
X0134664Y0033102D01*
X0134533Y0033022D01*
X0134400Y0032946D01*
X0134265Y0032873D01*
X0134128Y0032804D01*
X0133989Y0032739D01*
X0133849Y0032677D01*
X0133707Y0032619D01*
X0133564Y0032564D01*
X0133419Y0032513D01*
X0133273Y0032466D01*
X0133126Y0032423D01*
X0132978Y0032384D01*
X0132829Y0032348D01*
X0132679Y0032317D01*
X0132528Y0032289D01*
X0132377Y0032265D01*
X0132224Y0032245D01*
X0132072Y0032229D01*
X0131919Y0032217D01*
X0131766Y0032209D01*
X0131613Y0032205D01*
X0131459Y0032205D01*
X0131306Y0032209D01*
X0131153Y0032217D01*
X0131000Y0032229D01*
X0130848Y0032245D01*
X0130695Y0032265D01*
X0130544Y0032289D01*
X0130393Y0032317D01*
X0130243Y0032348D01*
X0130094Y0032384D01*
X0129946Y0032423D01*
X0129799Y0032466D01*
X0129653Y0032513D01*
X0129508Y0032564D01*
X0129365Y0032619D01*
X0129223Y0032677D01*
X0129083Y0032739D01*
X0128944Y0032804D01*
X0128807Y0032873D01*
X0128672Y0032946D01*
X0128539Y0033022D01*
X0128408Y0033102D01*
X0128279Y0033184D01*
X0128152Y0033271D01*
X0128027Y0033360D01*
X0127905Y0033453D01*
X0127786Y0033549D01*
X0127668Y0033648D01*
X0127554Y0033749D01*
X0127442Y0033854D01*
X0127333Y0033962D01*
X0127227Y0034073D01*
X0127123Y0034186D01*
X0127023Y0034302D01*
X0126925Y0034420D01*
X0126831Y0034541D01*
X0126740Y0034664D01*
X0126652Y0034790D01*
X0126568Y0034918D01*
X0126486Y0035048D01*
X0126409Y0035180D01*
X0126334Y0035314D01*
X0126263Y0035450D01*
X0126196Y0035588D01*
X0126132Y0035728D01*
X0126072Y0035869D01*
X0126016Y0036011D01*
X0125963Y0036155D01*
X0125914Y0036301D01*
X0125869Y0036447D01*
X0125828Y0036595D01*
X0125791Y0036743D01*
X0125757Y0036893D01*
X0125727Y0037044D01*
X0125702Y0037195D01*
X0125680Y0037346D01*
X0125662Y0037499D01*
X0125648Y0037651D01*
X0125638Y0037804D01*
X0125632Y0037958D01*
X0125630Y0038111D01*
X0220118Y0038111D02*
X0220120Y0038264D01*
X0220126Y0038418D01*
X0220136Y0038571D01*
X0220150Y0038723D01*
X0220168Y0038876D01*
X0220190Y0039027D01*
X0220215Y0039178D01*
X0220245Y0039329D01*
X0220279Y0039479D01*
X0220316Y0039627D01*
X0220357Y0039775D01*
X0220402Y0039921D01*
X0220451Y0040067D01*
X0220504Y0040211D01*
X0220560Y0040353D01*
X0220620Y0040494D01*
X0220684Y0040634D01*
X0220751Y0040772D01*
X0220822Y0040908D01*
X0220897Y0041042D01*
X0220974Y0041174D01*
X0221056Y0041304D01*
X0221140Y0041432D01*
X0221228Y0041558D01*
X0221319Y0041681D01*
X0221413Y0041802D01*
X0221511Y0041920D01*
X0221611Y0042036D01*
X0221715Y0042149D01*
X0221821Y0042260D01*
X0221930Y0042368D01*
X0222042Y0042473D01*
X0222156Y0042574D01*
X0222274Y0042673D01*
X0222393Y0042769D01*
X0222515Y0042862D01*
X0222640Y0042951D01*
X0222767Y0043038D01*
X0222896Y0043120D01*
X0223027Y0043200D01*
X0223160Y0043276D01*
X0223295Y0043349D01*
X0223432Y0043418D01*
X0223571Y0043483D01*
X0223711Y0043545D01*
X0223853Y0043603D01*
X0223996Y0043658D01*
X0224141Y0043709D01*
X0224287Y0043756D01*
X0224434Y0043799D01*
X0224582Y0043838D01*
X0224731Y0043874D01*
X0224881Y0043905D01*
X0225032Y0043933D01*
X0225183Y0043957D01*
X0225336Y0043977D01*
X0225488Y0043993D01*
X0225641Y0044005D01*
X0225794Y0044013D01*
X0225947Y0044017D01*
X0226101Y0044017D01*
X0226254Y0044013D01*
X0226407Y0044005D01*
X0226560Y0043993D01*
X0226712Y0043977D01*
X0226865Y0043957D01*
X0227016Y0043933D01*
X0227167Y0043905D01*
X0227317Y0043874D01*
X0227466Y0043838D01*
X0227614Y0043799D01*
X0227761Y0043756D01*
X0227907Y0043709D01*
X0228052Y0043658D01*
X0228195Y0043603D01*
X0228337Y0043545D01*
X0228477Y0043483D01*
X0228616Y0043418D01*
X0228753Y0043349D01*
X0228888Y0043276D01*
X0229021Y0043200D01*
X0229152Y0043120D01*
X0229281Y0043038D01*
X0229408Y0042951D01*
X0229533Y0042862D01*
X0229655Y0042769D01*
X0229774Y0042673D01*
X0229892Y0042574D01*
X0230006Y0042473D01*
X0230118Y0042368D01*
X0230227Y0042260D01*
X0230333Y0042149D01*
X0230437Y0042036D01*
X0230537Y0041920D01*
X0230635Y0041802D01*
X0230729Y0041681D01*
X0230820Y0041558D01*
X0230908Y0041432D01*
X0230992Y0041304D01*
X0231074Y0041174D01*
X0231151Y0041042D01*
X0231226Y0040908D01*
X0231297Y0040772D01*
X0231364Y0040634D01*
X0231428Y0040494D01*
X0231488Y0040353D01*
X0231544Y0040211D01*
X0231597Y0040067D01*
X0231646Y0039921D01*
X0231691Y0039775D01*
X0231732Y0039627D01*
X0231769Y0039479D01*
X0231803Y0039329D01*
X0231833Y0039178D01*
X0231858Y0039027D01*
X0231880Y0038876D01*
X0231898Y0038723D01*
X0231912Y0038571D01*
X0231922Y0038418D01*
X0231928Y0038264D01*
X0231930Y0038111D01*
X0231928Y0037958D01*
X0231922Y0037804D01*
X0231912Y0037651D01*
X0231898Y0037499D01*
X0231880Y0037346D01*
X0231858Y0037195D01*
X0231833Y0037044D01*
X0231803Y0036893D01*
X0231769Y0036743D01*
X0231732Y0036595D01*
X0231691Y0036447D01*
X0231646Y0036301D01*
X0231597Y0036155D01*
X0231544Y0036011D01*
X0231488Y0035869D01*
X0231428Y0035728D01*
X0231364Y0035588D01*
X0231297Y0035450D01*
X0231226Y0035314D01*
X0231151Y0035180D01*
X0231074Y0035048D01*
X0230992Y0034918D01*
X0230908Y0034790D01*
X0230820Y0034664D01*
X0230729Y0034541D01*
X0230635Y0034420D01*
X0230537Y0034302D01*
X0230437Y0034186D01*
X0230333Y0034073D01*
X0230227Y0033962D01*
X0230118Y0033854D01*
X0230006Y0033749D01*
X0229892Y0033648D01*
X0229774Y0033549D01*
X0229655Y0033453D01*
X0229533Y0033360D01*
X0229408Y0033271D01*
X0229281Y0033184D01*
X0229152Y0033102D01*
X0229021Y0033022D01*
X0228888Y0032946D01*
X0228753Y0032873D01*
X0228616Y0032804D01*
X0228477Y0032739D01*
X0228337Y0032677D01*
X0228195Y0032619D01*
X0228052Y0032564D01*
X0227907Y0032513D01*
X0227761Y0032466D01*
X0227614Y0032423D01*
X0227466Y0032384D01*
X0227317Y0032348D01*
X0227167Y0032317D01*
X0227016Y0032289D01*
X0226865Y0032265D01*
X0226712Y0032245D01*
X0226560Y0032229D01*
X0226407Y0032217D01*
X0226254Y0032209D01*
X0226101Y0032205D01*
X0225947Y0032205D01*
X0225794Y0032209D01*
X0225641Y0032217D01*
X0225488Y0032229D01*
X0225336Y0032245D01*
X0225183Y0032265D01*
X0225032Y0032289D01*
X0224881Y0032317D01*
X0224731Y0032348D01*
X0224582Y0032384D01*
X0224434Y0032423D01*
X0224287Y0032466D01*
X0224141Y0032513D01*
X0223996Y0032564D01*
X0223853Y0032619D01*
X0223711Y0032677D01*
X0223571Y0032739D01*
X0223432Y0032804D01*
X0223295Y0032873D01*
X0223160Y0032946D01*
X0223027Y0033022D01*
X0222896Y0033102D01*
X0222767Y0033184D01*
X0222640Y0033271D01*
X0222515Y0033360D01*
X0222393Y0033453D01*
X0222274Y0033549D01*
X0222156Y0033648D01*
X0222042Y0033749D01*
X0221930Y0033854D01*
X0221821Y0033962D01*
X0221715Y0034073D01*
X0221611Y0034186D01*
X0221511Y0034302D01*
X0221413Y0034420D01*
X0221319Y0034541D01*
X0221228Y0034664D01*
X0221140Y0034790D01*
X0221056Y0034918D01*
X0220974Y0035048D01*
X0220897Y0035180D01*
X0220822Y0035314D01*
X0220751Y0035450D01*
X0220684Y0035588D01*
X0220620Y0035728D01*
X0220560Y0035869D01*
X0220504Y0036011D01*
X0220451Y0036155D01*
X0220402Y0036301D01*
X0220357Y0036447D01*
X0220316Y0036595D01*
X0220279Y0036743D01*
X0220245Y0036893D01*
X0220215Y0037044D01*
X0220190Y0037195D01*
X0220168Y0037346D01*
X0220150Y0037499D01*
X0220136Y0037651D01*
X0220126Y0037804D01*
X0220120Y0037958D01*
X0220118Y0038111D01*
X0269332Y0148347D02*
X0269334Y0148472D01*
X0269340Y0148597D01*
X0269350Y0148721D01*
X0269364Y0148845D01*
X0269381Y0148969D01*
X0269403Y0149092D01*
X0269429Y0149214D01*
X0269458Y0149336D01*
X0269491Y0149456D01*
X0269529Y0149575D01*
X0269569Y0149694D01*
X0269614Y0149810D01*
X0269662Y0149925D01*
X0269714Y0150039D01*
X0269770Y0150151D01*
X0269829Y0150261D01*
X0269891Y0150369D01*
X0269957Y0150476D01*
X0270026Y0150580D01*
X0270099Y0150681D01*
X0270174Y0150781D01*
X0270253Y0150878D01*
X0270335Y0150972D01*
X0270420Y0151064D01*
X0270507Y0151153D01*
X0270598Y0151239D01*
X0270691Y0151322D01*
X0270787Y0151403D01*
X0270885Y0151480D01*
X0270985Y0151554D01*
X0271088Y0151625D01*
X0271193Y0151692D01*
X0271301Y0151757D01*
X0271410Y0151817D01*
X0271521Y0151875D01*
X0271634Y0151928D01*
X0271748Y0151978D01*
X0271864Y0152025D01*
X0271981Y0152067D01*
X0272100Y0152106D01*
X0272220Y0152142D01*
X0272341Y0152173D01*
X0272463Y0152201D01*
X0272585Y0152224D01*
X0272709Y0152244D01*
X0272833Y0152260D01*
X0272957Y0152272D01*
X0273082Y0152280D01*
X0273207Y0152284D01*
X0273331Y0152284D01*
X0273456Y0152280D01*
X0273581Y0152272D01*
X0273705Y0152260D01*
X0273829Y0152244D01*
X0273953Y0152224D01*
X0274075Y0152201D01*
X0274197Y0152173D01*
X0274318Y0152142D01*
X0274438Y0152106D01*
X0274557Y0152067D01*
X0274674Y0152025D01*
X0274790Y0151978D01*
X0274904Y0151928D01*
X0275017Y0151875D01*
X0275128Y0151817D01*
X0275238Y0151757D01*
X0275345Y0151692D01*
X0275450Y0151625D01*
X0275553Y0151554D01*
X0275653Y0151480D01*
X0275751Y0151403D01*
X0275847Y0151322D01*
X0275940Y0151239D01*
X0276031Y0151153D01*
X0276118Y0151064D01*
X0276203Y0150972D01*
X0276285Y0150878D01*
X0276364Y0150781D01*
X0276439Y0150681D01*
X0276512Y0150580D01*
X0276581Y0150476D01*
X0276647Y0150369D01*
X0276709Y0150261D01*
X0276768Y0150151D01*
X0276824Y0150039D01*
X0276876Y0149925D01*
X0276924Y0149810D01*
X0276969Y0149694D01*
X0277009Y0149575D01*
X0277047Y0149456D01*
X0277080Y0149336D01*
X0277109Y0149214D01*
X0277135Y0149092D01*
X0277157Y0148969D01*
X0277174Y0148845D01*
X0277188Y0148721D01*
X0277198Y0148597D01*
X0277204Y0148472D01*
X0277206Y0148347D01*
X0277204Y0148222D01*
X0277198Y0148097D01*
X0277188Y0147973D01*
X0277174Y0147849D01*
X0277157Y0147725D01*
X0277135Y0147602D01*
X0277109Y0147480D01*
X0277080Y0147358D01*
X0277047Y0147238D01*
X0277009Y0147119D01*
X0276969Y0147000D01*
X0276924Y0146884D01*
X0276876Y0146769D01*
X0276824Y0146655D01*
X0276768Y0146543D01*
X0276709Y0146433D01*
X0276647Y0146325D01*
X0276581Y0146218D01*
X0276512Y0146114D01*
X0276439Y0146013D01*
X0276364Y0145913D01*
X0276285Y0145816D01*
X0276203Y0145722D01*
X0276118Y0145630D01*
X0276031Y0145541D01*
X0275940Y0145455D01*
X0275847Y0145372D01*
X0275751Y0145291D01*
X0275653Y0145214D01*
X0275553Y0145140D01*
X0275450Y0145069D01*
X0275345Y0145002D01*
X0275237Y0144937D01*
X0275128Y0144877D01*
X0275017Y0144819D01*
X0274904Y0144766D01*
X0274790Y0144716D01*
X0274674Y0144669D01*
X0274557Y0144627D01*
X0274438Y0144588D01*
X0274318Y0144552D01*
X0274197Y0144521D01*
X0274075Y0144493D01*
X0273953Y0144470D01*
X0273829Y0144450D01*
X0273705Y0144434D01*
X0273581Y0144422D01*
X0273456Y0144414D01*
X0273331Y0144410D01*
X0273207Y0144410D01*
X0273082Y0144414D01*
X0272957Y0144422D01*
X0272833Y0144434D01*
X0272709Y0144450D01*
X0272585Y0144470D01*
X0272463Y0144493D01*
X0272341Y0144521D01*
X0272220Y0144552D01*
X0272100Y0144588D01*
X0271981Y0144627D01*
X0271864Y0144669D01*
X0271748Y0144716D01*
X0271634Y0144766D01*
X0271521Y0144819D01*
X0271410Y0144877D01*
X0271300Y0144937D01*
X0271193Y0145002D01*
X0271088Y0145069D01*
X0270985Y0145140D01*
X0270885Y0145214D01*
X0270787Y0145291D01*
X0270691Y0145372D01*
X0270598Y0145455D01*
X0270507Y0145541D01*
X0270420Y0145630D01*
X0270335Y0145722D01*
X0270253Y0145816D01*
X0270174Y0145913D01*
X0270099Y0146013D01*
X0270026Y0146114D01*
X0269957Y0146218D01*
X0269891Y0146325D01*
X0269829Y0146433D01*
X0269770Y0146543D01*
X0269714Y0146655D01*
X0269662Y0146769D01*
X0269614Y0146884D01*
X0269569Y0147000D01*
X0269529Y0147119D01*
X0269491Y0147238D01*
X0269458Y0147358D01*
X0269429Y0147480D01*
X0269403Y0147602D01*
X0269381Y0147725D01*
X0269364Y0147849D01*
X0269350Y0147973D01*
X0269340Y0148097D01*
X0269334Y0148222D01*
X0269332Y0148347D01*
X0269332Y0219213D02*
X0269334Y0219338D01*
X0269340Y0219463D01*
X0269350Y0219587D01*
X0269364Y0219711D01*
X0269381Y0219835D01*
X0269403Y0219958D01*
X0269429Y0220080D01*
X0269458Y0220202D01*
X0269491Y0220322D01*
X0269529Y0220441D01*
X0269569Y0220560D01*
X0269614Y0220676D01*
X0269662Y0220791D01*
X0269714Y0220905D01*
X0269770Y0221017D01*
X0269829Y0221127D01*
X0269891Y0221235D01*
X0269957Y0221342D01*
X0270026Y0221446D01*
X0270099Y0221547D01*
X0270174Y0221647D01*
X0270253Y0221744D01*
X0270335Y0221838D01*
X0270420Y0221930D01*
X0270507Y0222019D01*
X0270598Y0222105D01*
X0270691Y0222188D01*
X0270787Y0222269D01*
X0270885Y0222346D01*
X0270985Y0222420D01*
X0271088Y0222491D01*
X0271193Y0222558D01*
X0271301Y0222623D01*
X0271410Y0222683D01*
X0271521Y0222741D01*
X0271634Y0222794D01*
X0271748Y0222844D01*
X0271864Y0222891D01*
X0271981Y0222933D01*
X0272100Y0222972D01*
X0272220Y0223008D01*
X0272341Y0223039D01*
X0272463Y0223067D01*
X0272585Y0223090D01*
X0272709Y0223110D01*
X0272833Y0223126D01*
X0272957Y0223138D01*
X0273082Y0223146D01*
X0273207Y0223150D01*
X0273331Y0223150D01*
X0273456Y0223146D01*
X0273581Y0223138D01*
X0273705Y0223126D01*
X0273829Y0223110D01*
X0273953Y0223090D01*
X0274075Y0223067D01*
X0274197Y0223039D01*
X0274318Y0223008D01*
X0274438Y0222972D01*
X0274557Y0222933D01*
X0274674Y0222891D01*
X0274790Y0222844D01*
X0274904Y0222794D01*
X0275017Y0222741D01*
X0275128Y0222683D01*
X0275238Y0222623D01*
X0275345Y0222558D01*
X0275450Y0222491D01*
X0275553Y0222420D01*
X0275653Y0222346D01*
X0275751Y0222269D01*
X0275847Y0222188D01*
X0275940Y0222105D01*
X0276031Y0222019D01*
X0276118Y0221930D01*
X0276203Y0221838D01*
X0276285Y0221744D01*
X0276364Y0221647D01*
X0276439Y0221547D01*
X0276512Y0221446D01*
X0276581Y0221342D01*
X0276647Y0221235D01*
X0276709Y0221127D01*
X0276768Y0221017D01*
X0276824Y0220905D01*
X0276876Y0220791D01*
X0276924Y0220676D01*
X0276969Y0220560D01*
X0277009Y0220441D01*
X0277047Y0220322D01*
X0277080Y0220202D01*
X0277109Y0220080D01*
X0277135Y0219958D01*
X0277157Y0219835D01*
X0277174Y0219711D01*
X0277188Y0219587D01*
X0277198Y0219463D01*
X0277204Y0219338D01*
X0277206Y0219213D01*
X0277204Y0219088D01*
X0277198Y0218963D01*
X0277188Y0218839D01*
X0277174Y0218715D01*
X0277157Y0218591D01*
X0277135Y0218468D01*
X0277109Y0218346D01*
X0277080Y0218224D01*
X0277047Y0218104D01*
X0277009Y0217985D01*
X0276969Y0217866D01*
X0276924Y0217750D01*
X0276876Y0217635D01*
X0276824Y0217521D01*
X0276768Y0217409D01*
X0276709Y0217299D01*
X0276647Y0217191D01*
X0276581Y0217084D01*
X0276512Y0216980D01*
X0276439Y0216879D01*
X0276364Y0216779D01*
X0276285Y0216682D01*
X0276203Y0216588D01*
X0276118Y0216496D01*
X0276031Y0216407D01*
X0275940Y0216321D01*
X0275847Y0216238D01*
X0275751Y0216157D01*
X0275653Y0216080D01*
X0275553Y0216006D01*
X0275450Y0215935D01*
X0275345Y0215868D01*
X0275237Y0215803D01*
X0275128Y0215743D01*
X0275017Y0215685D01*
X0274904Y0215632D01*
X0274790Y0215582D01*
X0274674Y0215535D01*
X0274557Y0215493D01*
X0274438Y0215454D01*
X0274318Y0215418D01*
X0274197Y0215387D01*
X0274075Y0215359D01*
X0273953Y0215336D01*
X0273829Y0215316D01*
X0273705Y0215300D01*
X0273581Y0215288D01*
X0273456Y0215280D01*
X0273331Y0215276D01*
X0273207Y0215276D01*
X0273082Y0215280D01*
X0272957Y0215288D01*
X0272833Y0215300D01*
X0272709Y0215316D01*
X0272585Y0215336D01*
X0272463Y0215359D01*
X0272341Y0215387D01*
X0272220Y0215418D01*
X0272100Y0215454D01*
X0271981Y0215493D01*
X0271864Y0215535D01*
X0271748Y0215582D01*
X0271634Y0215632D01*
X0271521Y0215685D01*
X0271410Y0215743D01*
X0271300Y0215803D01*
X0271193Y0215868D01*
X0271088Y0215935D01*
X0270985Y0216006D01*
X0270885Y0216080D01*
X0270787Y0216157D01*
X0270691Y0216238D01*
X0270598Y0216321D01*
X0270507Y0216407D01*
X0270420Y0216496D01*
X0270335Y0216588D01*
X0270253Y0216682D01*
X0270174Y0216779D01*
X0270099Y0216879D01*
X0270026Y0216980D01*
X0269957Y0217084D01*
X0269891Y0217191D01*
X0269829Y0217299D01*
X0269770Y0217409D01*
X0269714Y0217521D01*
X0269662Y0217635D01*
X0269614Y0217750D01*
X0269569Y0217866D01*
X0269529Y0217985D01*
X0269491Y0218104D01*
X0269458Y0218224D01*
X0269429Y0218346D01*
X0269403Y0218468D01*
X0269381Y0218591D01*
X0269364Y0218715D01*
X0269350Y0218839D01*
X0269340Y0218963D01*
X0269334Y0219088D01*
X0269332Y0219213D01*
X0220118Y0329450D02*
X0220120Y0329603D01*
X0220126Y0329757D01*
X0220136Y0329910D01*
X0220150Y0330062D01*
X0220168Y0330215D01*
X0220190Y0330366D01*
X0220215Y0330517D01*
X0220245Y0330668D01*
X0220279Y0330818D01*
X0220316Y0330966D01*
X0220357Y0331114D01*
X0220402Y0331260D01*
X0220451Y0331406D01*
X0220504Y0331550D01*
X0220560Y0331692D01*
X0220620Y0331833D01*
X0220684Y0331973D01*
X0220751Y0332111D01*
X0220822Y0332247D01*
X0220897Y0332381D01*
X0220974Y0332513D01*
X0221056Y0332643D01*
X0221140Y0332771D01*
X0221228Y0332897D01*
X0221319Y0333020D01*
X0221413Y0333141D01*
X0221511Y0333259D01*
X0221611Y0333375D01*
X0221715Y0333488D01*
X0221821Y0333599D01*
X0221930Y0333707D01*
X0222042Y0333812D01*
X0222156Y0333913D01*
X0222274Y0334012D01*
X0222393Y0334108D01*
X0222515Y0334201D01*
X0222640Y0334290D01*
X0222767Y0334377D01*
X0222896Y0334459D01*
X0223027Y0334539D01*
X0223160Y0334615D01*
X0223295Y0334688D01*
X0223432Y0334757D01*
X0223571Y0334822D01*
X0223711Y0334884D01*
X0223853Y0334942D01*
X0223996Y0334997D01*
X0224141Y0335048D01*
X0224287Y0335095D01*
X0224434Y0335138D01*
X0224582Y0335177D01*
X0224731Y0335213D01*
X0224881Y0335244D01*
X0225032Y0335272D01*
X0225183Y0335296D01*
X0225336Y0335316D01*
X0225488Y0335332D01*
X0225641Y0335344D01*
X0225794Y0335352D01*
X0225947Y0335356D01*
X0226101Y0335356D01*
X0226254Y0335352D01*
X0226407Y0335344D01*
X0226560Y0335332D01*
X0226712Y0335316D01*
X0226865Y0335296D01*
X0227016Y0335272D01*
X0227167Y0335244D01*
X0227317Y0335213D01*
X0227466Y0335177D01*
X0227614Y0335138D01*
X0227761Y0335095D01*
X0227907Y0335048D01*
X0228052Y0334997D01*
X0228195Y0334942D01*
X0228337Y0334884D01*
X0228477Y0334822D01*
X0228616Y0334757D01*
X0228753Y0334688D01*
X0228888Y0334615D01*
X0229021Y0334539D01*
X0229152Y0334459D01*
X0229281Y0334377D01*
X0229408Y0334290D01*
X0229533Y0334201D01*
X0229655Y0334108D01*
X0229774Y0334012D01*
X0229892Y0333913D01*
X0230006Y0333812D01*
X0230118Y0333707D01*
X0230227Y0333599D01*
X0230333Y0333488D01*
X0230437Y0333375D01*
X0230537Y0333259D01*
X0230635Y0333141D01*
X0230729Y0333020D01*
X0230820Y0332897D01*
X0230908Y0332771D01*
X0230992Y0332643D01*
X0231074Y0332513D01*
X0231151Y0332381D01*
X0231226Y0332247D01*
X0231297Y0332111D01*
X0231364Y0331973D01*
X0231428Y0331833D01*
X0231488Y0331692D01*
X0231544Y0331550D01*
X0231597Y0331406D01*
X0231646Y0331260D01*
X0231691Y0331114D01*
X0231732Y0330966D01*
X0231769Y0330818D01*
X0231803Y0330668D01*
X0231833Y0330517D01*
X0231858Y0330366D01*
X0231880Y0330215D01*
X0231898Y0330062D01*
X0231912Y0329910D01*
X0231922Y0329757D01*
X0231928Y0329603D01*
X0231930Y0329450D01*
X0231928Y0329297D01*
X0231922Y0329143D01*
X0231912Y0328990D01*
X0231898Y0328838D01*
X0231880Y0328685D01*
X0231858Y0328534D01*
X0231833Y0328383D01*
X0231803Y0328232D01*
X0231769Y0328082D01*
X0231732Y0327934D01*
X0231691Y0327786D01*
X0231646Y0327640D01*
X0231597Y0327494D01*
X0231544Y0327350D01*
X0231488Y0327208D01*
X0231428Y0327067D01*
X0231364Y0326927D01*
X0231297Y0326789D01*
X0231226Y0326653D01*
X0231151Y0326519D01*
X0231074Y0326387D01*
X0230992Y0326257D01*
X0230908Y0326129D01*
X0230820Y0326003D01*
X0230729Y0325880D01*
X0230635Y0325759D01*
X0230537Y0325641D01*
X0230437Y0325525D01*
X0230333Y0325412D01*
X0230227Y0325301D01*
X0230118Y0325193D01*
X0230006Y0325088D01*
X0229892Y0324987D01*
X0229774Y0324888D01*
X0229655Y0324792D01*
X0229533Y0324699D01*
X0229408Y0324610D01*
X0229281Y0324523D01*
X0229152Y0324441D01*
X0229021Y0324361D01*
X0228888Y0324285D01*
X0228753Y0324212D01*
X0228616Y0324143D01*
X0228477Y0324078D01*
X0228337Y0324016D01*
X0228195Y0323958D01*
X0228052Y0323903D01*
X0227907Y0323852D01*
X0227761Y0323805D01*
X0227614Y0323762D01*
X0227466Y0323723D01*
X0227317Y0323687D01*
X0227167Y0323656D01*
X0227016Y0323628D01*
X0226865Y0323604D01*
X0226712Y0323584D01*
X0226560Y0323568D01*
X0226407Y0323556D01*
X0226254Y0323548D01*
X0226101Y0323544D01*
X0225947Y0323544D01*
X0225794Y0323548D01*
X0225641Y0323556D01*
X0225488Y0323568D01*
X0225336Y0323584D01*
X0225183Y0323604D01*
X0225032Y0323628D01*
X0224881Y0323656D01*
X0224731Y0323687D01*
X0224582Y0323723D01*
X0224434Y0323762D01*
X0224287Y0323805D01*
X0224141Y0323852D01*
X0223996Y0323903D01*
X0223853Y0323958D01*
X0223711Y0324016D01*
X0223571Y0324078D01*
X0223432Y0324143D01*
X0223295Y0324212D01*
X0223160Y0324285D01*
X0223027Y0324361D01*
X0222896Y0324441D01*
X0222767Y0324523D01*
X0222640Y0324610D01*
X0222515Y0324699D01*
X0222393Y0324792D01*
X0222274Y0324888D01*
X0222156Y0324987D01*
X0222042Y0325088D01*
X0221930Y0325193D01*
X0221821Y0325301D01*
X0221715Y0325412D01*
X0221611Y0325525D01*
X0221511Y0325641D01*
X0221413Y0325759D01*
X0221319Y0325880D01*
X0221228Y0326003D01*
X0221140Y0326129D01*
X0221056Y0326257D01*
X0220974Y0326387D01*
X0220897Y0326519D01*
X0220822Y0326653D01*
X0220751Y0326789D01*
X0220684Y0326927D01*
X0220620Y0327067D01*
X0220560Y0327208D01*
X0220504Y0327350D01*
X0220451Y0327494D01*
X0220402Y0327640D01*
X0220357Y0327786D01*
X0220316Y0327934D01*
X0220279Y0328082D01*
X0220245Y0328232D01*
X0220215Y0328383D01*
X0220190Y0328534D01*
X0220168Y0328685D01*
X0220150Y0328838D01*
X0220136Y0328990D01*
X0220126Y0329143D01*
X0220120Y0329297D01*
X0220118Y0329450D01*
X0125630Y0329450D02*
X0125632Y0329603D01*
X0125638Y0329757D01*
X0125648Y0329910D01*
X0125662Y0330062D01*
X0125680Y0330215D01*
X0125702Y0330366D01*
X0125727Y0330517D01*
X0125757Y0330668D01*
X0125791Y0330818D01*
X0125828Y0330966D01*
X0125869Y0331114D01*
X0125914Y0331260D01*
X0125963Y0331406D01*
X0126016Y0331550D01*
X0126072Y0331692D01*
X0126132Y0331833D01*
X0126196Y0331973D01*
X0126263Y0332111D01*
X0126334Y0332247D01*
X0126409Y0332381D01*
X0126486Y0332513D01*
X0126568Y0332643D01*
X0126652Y0332771D01*
X0126740Y0332897D01*
X0126831Y0333020D01*
X0126925Y0333141D01*
X0127023Y0333259D01*
X0127123Y0333375D01*
X0127227Y0333488D01*
X0127333Y0333599D01*
X0127442Y0333707D01*
X0127554Y0333812D01*
X0127668Y0333913D01*
X0127786Y0334012D01*
X0127905Y0334108D01*
X0128027Y0334201D01*
X0128152Y0334290D01*
X0128279Y0334377D01*
X0128408Y0334459D01*
X0128539Y0334539D01*
X0128672Y0334615D01*
X0128807Y0334688D01*
X0128944Y0334757D01*
X0129083Y0334822D01*
X0129223Y0334884D01*
X0129365Y0334942D01*
X0129508Y0334997D01*
X0129653Y0335048D01*
X0129799Y0335095D01*
X0129946Y0335138D01*
X0130094Y0335177D01*
X0130243Y0335213D01*
X0130393Y0335244D01*
X0130544Y0335272D01*
X0130695Y0335296D01*
X0130848Y0335316D01*
X0131000Y0335332D01*
X0131153Y0335344D01*
X0131306Y0335352D01*
X0131459Y0335356D01*
X0131613Y0335356D01*
X0131766Y0335352D01*
X0131919Y0335344D01*
X0132072Y0335332D01*
X0132224Y0335316D01*
X0132377Y0335296D01*
X0132528Y0335272D01*
X0132679Y0335244D01*
X0132829Y0335213D01*
X0132978Y0335177D01*
X0133126Y0335138D01*
X0133273Y0335095D01*
X0133419Y0335048D01*
X0133564Y0334997D01*
X0133707Y0334942D01*
X0133849Y0334884D01*
X0133989Y0334822D01*
X0134128Y0334757D01*
X0134265Y0334688D01*
X0134400Y0334615D01*
X0134533Y0334539D01*
X0134664Y0334459D01*
X0134793Y0334377D01*
X0134920Y0334290D01*
X0135045Y0334201D01*
X0135167Y0334108D01*
X0135286Y0334012D01*
X0135404Y0333913D01*
X0135518Y0333812D01*
X0135630Y0333707D01*
X0135739Y0333599D01*
X0135845Y0333488D01*
X0135949Y0333375D01*
X0136049Y0333259D01*
X0136147Y0333141D01*
X0136241Y0333020D01*
X0136332Y0332897D01*
X0136420Y0332771D01*
X0136504Y0332643D01*
X0136586Y0332513D01*
X0136663Y0332381D01*
X0136738Y0332247D01*
X0136809Y0332111D01*
X0136876Y0331973D01*
X0136940Y0331833D01*
X0137000Y0331692D01*
X0137056Y0331550D01*
X0137109Y0331406D01*
X0137158Y0331260D01*
X0137203Y0331114D01*
X0137244Y0330966D01*
X0137281Y0330818D01*
X0137315Y0330668D01*
X0137345Y0330517D01*
X0137370Y0330366D01*
X0137392Y0330215D01*
X0137410Y0330062D01*
X0137424Y0329910D01*
X0137434Y0329757D01*
X0137440Y0329603D01*
X0137442Y0329450D01*
X0137440Y0329297D01*
X0137434Y0329143D01*
X0137424Y0328990D01*
X0137410Y0328838D01*
X0137392Y0328685D01*
X0137370Y0328534D01*
X0137345Y0328383D01*
X0137315Y0328232D01*
X0137281Y0328082D01*
X0137244Y0327934D01*
X0137203Y0327786D01*
X0137158Y0327640D01*
X0137109Y0327494D01*
X0137056Y0327350D01*
X0137000Y0327208D01*
X0136940Y0327067D01*
X0136876Y0326927D01*
X0136809Y0326789D01*
X0136738Y0326653D01*
X0136663Y0326519D01*
X0136586Y0326387D01*
X0136504Y0326257D01*
X0136420Y0326129D01*
X0136332Y0326003D01*
X0136241Y0325880D01*
X0136147Y0325759D01*
X0136049Y0325641D01*
X0135949Y0325525D01*
X0135845Y0325412D01*
X0135739Y0325301D01*
X0135630Y0325193D01*
X0135518Y0325088D01*
X0135404Y0324987D01*
X0135286Y0324888D01*
X0135167Y0324792D01*
X0135045Y0324699D01*
X0134920Y0324610D01*
X0134793Y0324523D01*
X0134664Y0324441D01*
X0134533Y0324361D01*
X0134400Y0324285D01*
X0134265Y0324212D01*
X0134128Y0324143D01*
X0133989Y0324078D01*
X0133849Y0324016D01*
X0133707Y0323958D01*
X0133564Y0323903D01*
X0133419Y0323852D01*
X0133273Y0323805D01*
X0133126Y0323762D01*
X0132978Y0323723D01*
X0132829Y0323687D01*
X0132679Y0323656D01*
X0132528Y0323628D01*
X0132377Y0323604D01*
X0132224Y0323584D01*
X0132072Y0323568D01*
X0131919Y0323556D01*
X0131766Y0323548D01*
X0131613Y0323544D01*
X0131459Y0323544D01*
X0131306Y0323548D01*
X0131153Y0323556D01*
X0131000Y0323568D01*
X0130848Y0323584D01*
X0130695Y0323604D01*
X0130544Y0323628D01*
X0130393Y0323656D01*
X0130243Y0323687D01*
X0130094Y0323723D01*
X0129946Y0323762D01*
X0129799Y0323805D01*
X0129653Y0323852D01*
X0129508Y0323903D01*
X0129365Y0323958D01*
X0129223Y0324016D01*
X0129083Y0324078D01*
X0128944Y0324143D01*
X0128807Y0324212D01*
X0128672Y0324285D01*
X0128539Y0324361D01*
X0128408Y0324441D01*
X0128279Y0324523D01*
X0128152Y0324610D01*
X0128027Y0324699D01*
X0127905Y0324792D01*
X0127786Y0324888D01*
X0127668Y0324987D01*
X0127554Y0325088D01*
X0127442Y0325193D01*
X0127333Y0325301D01*
X0127227Y0325412D01*
X0127123Y0325525D01*
X0127023Y0325641D01*
X0126925Y0325759D01*
X0126831Y0325880D01*
X0126740Y0326003D01*
X0126652Y0326129D01*
X0126568Y0326257D01*
X0126486Y0326387D01*
X0126409Y0326519D01*
X0126334Y0326653D01*
X0126263Y0326789D01*
X0126196Y0326927D01*
X0126132Y0327067D01*
X0126072Y0327208D01*
X0126016Y0327350D01*
X0125963Y0327494D01*
X0125914Y0327640D01*
X0125869Y0327786D01*
X0125828Y0327934D01*
X0125791Y0328082D01*
X0125757Y0328232D01*
X0125727Y0328383D01*
X0125702Y0328534D01*
X0125680Y0328685D01*
X0125662Y0328838D01*
X0125648Y0328990D01*
X0125638Y0329143D01*
X0125632Y0329297D01*
X0125630Y0329450D01*
X0080355Y0219213D02*
X0080357Y0219338D01*
X0080363Y0219463D01*
X0080373Y0219587D01*
X0080387Y0219711D01*
X0080404Y0219835D01*
X0080426Y0219958D01*
X0080452Y0220080D01*
X0080481Y0220202D01*
X0080514Y0220322D01*
X0080552Y0220441D01*
X0080592Y0220560D01*
X0080637Y0220676D01*
X0080685Y0220791D01*
X0080737Y0220905D01*
X0080793Y0221017D01*
X0080852Y0221127D01*
X0080914Y0221235D01*
X0080980Y0221342D01*
X0081049Y0221446D01*
X0081122Y0221547D01*
X0081197Y0221647D01*
X0081276Y0221744D01*
X0081358Y0221838D01*
X0081443Y0221930D01*
X0081530Y0222019D01*
X0081621Y0222105D01*
X0081714Y0222188D01*
X0081810Y0222269D01*
X0081908Y0222346D01*
X0082008Y0222420D01*
X0082111Y0222491D01*
X0082216Y0222558D01*
X0082324Y0222623D01*
X0082433Y0222683D01*
X0082544Y0222741D01*
X0082657Y0222794D01*
X0082771Y0222844D01*
X0082887Y0222891D01*
X0083004Y0222933D01*
X0083123Y0222972D01*
X0083243Y0223008D01*
X0083364Y0223039D01*
X0083486Y0223067D01*
X0083608Y0223090D01*
X0083732Y0223110D01*
X0083856Y0223126D01*
X0083980Y0223138D01*
X0084105Y0223146D01*
X0084230Y0223150D01*
X0084354Y0223150D01*
X0084479Y0223146D01*
X0084604Y0223138D01*
X0084728Y0223126D01*
X0084852Y0223110D01*
X0084976Y0223090D01*
X0085098Y0223067D01*
X0085220Y0223039D01*
X0085341Y0223008D01*
X0085461Y0222972D01*
X0085580Y0222933D01*
X0085697Y0222891D01*
X0085813Y0222844D01*
X0085927Y0222794D01*
X0086040Y0222741D01*
X0086151Y0222683D01*
X0086261Y0222623D01*
X0086368Y0222558D01*
X0086473Y0222491D01*
X0086576Y0222420D01*
X0086676Y0222346D01*
X0086774Y0222269D01*
X0086870Y0222188D01*
X0086963Y0222105D01*
X0087054Y0222019D01*
X0087141Y0221930D01*
X0087226Y0221838D01*
X0087308Y0221744D01*
X0087387Y0221647D01*
X0087462Y0221547D01*
X0087535Y0221446D01*
X0087604Y0221342D01*
X0087670Y0221235D01*
X0087732Y0221127D01*
X0087791Y0221017D01*
X0087847Y0220905D01*
X0087899Y0220791D01*
X0087947Y0220676D01*
X0087992Y0220560D01*
X0088032Y0220441D01*
X0088070Y0220322D01*
X0088103Y0220202D01*
X0088132Y0220080D01*
X0088158Y0219958D01*
X0088180Y0219835D01*
X0088197Y0219711D01*
X0088211Y0219587D01*
X0088221Y0219463D01*
X0088227Y0219338D01*
X0088229Y0219213D01*
X0088227Y0219088D01*
X0088221Y0218963D01*
X0088211Y0218839D01*
X0088197Y0218715D01*
X0088180Y0218591D01*
X0088158Y0218468D01*
X0088132Y0218346D01*
X0088103Y0218224D01*
X0088070Y0218104D01*
X0088032Y0217985D01*
X0087992Y0217866D01*
X0087947Y0217750D01*
X0087899Y0217635D01*
X0087847Y0217521D01*
X0087791Y0217409D01*
X0087732Y0217299D01*
X0087670Y0217191D01*
X0087604Y0217084D01*
X0087535Y0216980D01*
X0087462Y0216879D01*
X0087387Y0216779D01*
X0087308Y0216682D01*
X0087226Y0216588D01*
X0087141Y0216496D01*
X0087054Y0216407D01*
X0086963Y0216321D01*
X0086870Y0216238D01*
X0086774Y0216157D01*
X0086676Y0216080D01*
X0086576Y0216006D01*
X0086473Y0215935D01*
X0086368Y0215868D01*
X0086260Y0215803D01*
X0086151Y0215743D01*
X0086040Y0215685D01*
X0085927Y0215632D01*
X0085813Y0215582D01*
X0085697Y0215535D01*
X0085580Y0215493D01*
X0085461Y0215454D01*
X0085341Y0215418D01*
X0085220Y0215387D01*
X0085098Y0215359D01*
X0084976Y0215336D01*
X0084852Y0215316D01*
X0084728Y0215300D01*
X0084604Y0215288D01*
X0084479Y0215280D01*
X0084354Y0215276D01*
X0084230Y0215276D01*
X0084105Y0215280D01*
X0083980Y0215288D01*
X0083856Y0215300D01*
X0083732Y0215316D01*
X0083608Y0215336D01*
X0083486Y0215359D01*
X0083364Y0215387D01*
X0083243Y0215418D01*
X0083123Y0215454D01*
X0083004Y0215493D01*
X0082887Y0215535D01*
X0082771Y0215582D01*
X0082657Y0215632D01*
X0082544Y0215685D01*
X0082433Y0215743D01*
X0082323Y0215803D01*
X0082216Y0215868D01*
X0082111Y0215935D01*
X0082008Y0216006D01*
X0081908Y0216080D01*
X0081810Y0216157D01*
X0081714Y0216238D01*
X0081621Y0216321D01*
X0081530Y0216407D01*
X0081443Y0216496D01*
X0081358Y0216588D01*
X0081276Y0216682D01*
X0081197Y0216779D01*
X0081122Y0216879D01*
X0081049Y0216980D01*
X0080980Y0217084D01*
X0080914Y0217191D01*
X0080852Y0217299D01*
X0080793Y0217409D01*
X0080737Y0217521D01*
X0080685Y0217635D01*
X0080637Y0217750D01*
X0080592Y0217866D01*
X0080552Y0217985D01*
X0080514Y0218104D01*
X0080481Y0218224D01*
X0080452Y0218346D01*
X0080426Y0218468D01*
X0080404Y0218591D01*
X0080387Y0218715D01*
X0080373Y0218839D01*
X0080363Y0218963D01*
X0080357Y0219088D01*
X0080355Y0219213D01*
X0080355Y0148347D02*
X0080357Y0148472D01*
X0080363Y0148597D01*
X0080373Y0148721D01*
X0080387Y0148845D01*
X0080404Y0148969D01*
X0080426Y0149092D01*
X0080452Y0149214D01*
X0080481Y0149336D01*
X0080514Y0149456D01*
X0080552Y0149575D01*
X0080592Y0149694D01*
X0080637Y0149810D01*
X0080685Y0149925D01*
X0080737Y0150039D01*
X0080793Y0150151D01*
X0080852Y0150261D01*
X0080914Y0150369D01*
X0080980Y0150476D01*
X0081049Y0150580D01*
X0081122Y0150681D01*
X0081197Y0150781D01*
X0081276Y0150878D01*
X0081358Y0150972D01*
X0081443Y0151064D01*
X0081530Y0151153D01*
X0081621Y0151239D01*
X0081714Y0151322D01*
X0081810Y0151403D01*
X0081908Y0151480D01*
X0082008Y0151554D01*
X0082111Y0151625D01*
X0082216Y0151692D01*
X0082324Y0151757D01*
X0082433Y0151817D01*
X0082544Y0151875D01*
X0082657Y0151928D01*
X0082771Y0151978D01*
X0082887Y0152025D01*
X0083004Y0152067D01*
X0083123Y0152106D01*
X0083243Y0152142D01*
X0083364Y0152173D01*
X0083486Y0152201D01*
X0083608Y0152224D01*
X0083732Y0152244D01*
X0083856Y0152260D01*
X0083980Y0152272D01*
X0084105Y0152280D01*
X0084230Y0152284D01*
X0084354Y0152284D01*
X0084479Y0152280D01*
X0084604Y0152272D01*
X0084728Y0152260D01*
X0084852Y0152244D01*
X0084976Y0152224D01*
X0085098Y0152201D01*
X0085220Y0152173D01*
X0085341Y0152142D01*
X0085461Y0152106D01*
X0085580Y0152067D01*
X0085697Y0152025D01*
X0085813Y0151978D01*
X0085927Y0151928D01*
X0086040Y0151875D01*
X0086151Y0151817D01*
X0086261Y0151757D01*
X0086368Y0151692D01*
X0086473Y0151625D01*
X0086576Y0151554D01*
X0086676Y0151480D01*
X0086774Y0151403D01*
X0086870Y0151322D01*
X0086963Y0151239D01*
X0087054Y0151153D01*
X0087141Y0151064D01*
X0087226Y0150972D01*
X0087308Y0150878D01*
X0087387Y0150781D01*
X0087462Y0150681D01*
X0087535Y0150580D01*
X0087604Y0150476D01*
X0087670Y0150369D01*
X0087732Y0150261D01*
X0087791Y0150151D01*
X0087847Y0150039D01*
X0087899Y0149925D01*
X0087947Y0149810D01*
X0087992Y0149694D01*
X0088032Y0149575D01*
X0088070Y0149456D01*
X0088103Y0149336D01*
X0088132Y0149214D01*
X0088158Y0149092D01*
X0088180Y0148969D01*
X0088197Y0148845D01*
X0088211Y0148721D01*
X0088221Y0148597D01*
X0088227Y0148472D01*
X0088229Y0148347D01*
X0088227Y0148222D01*
X0088221Y0148097D01*
X0088211Y0147973D01*
X0088197Y0147849D01*
X0088180Y0147725D01*
X0088158Y0147602D01*
X0088132Y0147480D01*
X0088103Y0147358D01*
X0088070Y0147238D01*
X0088032Y0147119D01*
X0087992Y0147000D01*
X0087947Y0146884D01*
X0087899Y0146769D01*
X0087847Y0146655D01*
X0087791Y0146543D01*
X0087732Y0146433D01*
X0087670Y0146325D01*
X0087604Y0146218D01*
X0087535Y0146114D01*
X0087462Y0146013D01*
X0087387Y0145913D01*
X0087308Y0145816D01*
X0087226Y0145722D01*
X0087141Y0145630D01*
X0087054Y0145541D01*
X0086963Y0145455D01*
X0086870Y0145372D01*
X0086774Y0145291D01*
X0086676Y0145214D01*
X0086576Y0145140D01*
X0086473Y0145069D01*
X0086368Y0145002D01*
X0086260Y0144937D01*
X0086151Y0144877D01*
X0086040Y0144819D01*
X0085927Y0144766D01*
X0085813Y0144716D01*
X0085697Y0144669D01*
X0085580Y0144627D01*
X0085461Y0144588D01*
X0085341Y0144552D01*
X0085220Y0144521D01*
X0085098Y0144493D01*
X0084976Y0144470D01*
X0084852Y0144450D01*
X0084728Y0144434D01*
X0084604Y0144422D01*
X0084479Y0144414D01*
X0084354Y0144410D01*
X0084230Y0144410D01*
X0084105Y0144414D01*
X0083980Y0144422D01*
X0083856Y0144434D01*
X0083732Y0144450D01*
X0083608Y0144470D01*
X0083486Y0144493D01*
X0083364Y0144521D01*
X0083243Y0144552D01*
X0083123Y0144588D01*
X0083004Y0144627D01*
X0082887Y0144669D01*
X0082771Y0144716D01*
X0082657Y0144766D01*
X0082544Y0144819D01*
X0082433Y0144877D01*
X0082323Y0144937D01*
X0082216Y0145002D01*
X0082111Y0145069D01*
X0082008Y0145140D01*
X0081908Y0145214D01*
X0081810Y0145291D01*
X0081714Y0145372D01*
X0081621Y0145455D01*
X0081530Y0145541D01*
X0081443Y0145630D01*
X0081358Y0145722D01*
X0081276Y0145816D01*
X0081197Y0145913D01*
X0081122Y0146013D01*
X0081049Y0146114D01*
X0080980Y0146218D01*
X0080914Y0146325D01*
X0080852Y0146433D01*
X0080793Y0146543D01*
X0080737Y0146655D01*
X0080685Y0146769D01*
X0080637Y0146884D01*
X0080592Y0147000D01*
X0080552Y0147119D01*
X0080514Y0147238D01*
X0080481Y0147358D01*
X0080452Y0147480D01*
X0080426Y0147602D01*
X0080404Y0147725D01*
X0080387Y0147849D01*
X0080373Y0147973D01*
X0080363Y0148097D01*
X0080357Y0148222D01*
X0080355Y0148347D01*
D12*
X0162380Y0039930D02*
X0162380Y0033930D01*
X0195180Y0033930D02*
X0195180Y0039930D01*
D13*
X0193780Y0044430D02*
X0191280Y0046930D01*
X0193780Y0044430D02*
X0193780Y0049430D01*
X0178780Y0049430D01*
X0178780Y0054430D01*
X0176280Y0051930D01*
X0178780Y0054430D02*
X0181280Y0051930D01*
X0178780Y0049430D02*
X0161280Y0049430D01*
X0161280Y0044430D01*
X0158780Y0046930D01*
X0161280Y0044430D02*
X0163780Y0046930D01*
X0193780Y0044430D02*
X0196280Y0046930D01*
D14*
X0196038Y0056380D02*
X0196038Y0059280D01*
X0196038Y0058313D02*
X0196843Y0058313D01*
X0196885Y0058311D01*
X0196927Y0058306D01*
X0196968Y0058297D01*
X0197008Y0058284D01*
X0197047Y0058268D01*
X0197085Y0058248D01*
X0197120Y0058226D01*
X0197153Y0058200D01*
X0197185Y0058172D01*
X0197213Y0058140D01*
X0197239Y0058107D01*
X0197261Y0058072D01*
X0197281Y0058034D01*
X0197297Y0057995D01*
X0197310Y0057955D01*
X0197319Y0057914D01*
X0197324Y0057872D01*
X0197326Y0057830D01*
X0197326Y0056380D01*
X0194836Y0056380D02*
X0194675Y0056380D01*
X0194633Y0056382D01*
X0194591Y0056387D01*
X0194550Y0056396D01*
X0194510Y0056409D01*
X0194471Y0056425D01*
X0194434Y0056445D01*
X0194398Y0056467D01*
X0194365Y0056493D01*
X0194333Y0056521D01*
X0194305Y0056553D01*
X0194279Y0056586D01*
X0194257Y0056622D01*
X0194237Y0056659D01*
X0194221Y0056698D01*
X0194208Y0056738D01*
X0194199Y0056779D01*
X0194194Y0056821D01*
X0194192Y0056863D01*
X0194192Y0059280D01*
X0193869Y0058313D02*
X0194836Y0058313D01*
X0192938Y0058313D02*
X0192938Y0056380D01*
X0191309Y0056380D02*
X0191793Y0058313D01*
X0190826Y0057669D02*
X0191309Y0056380D01*
X0190343Y0056380D02*
X0190826Y0057669D01*
X0189859Y0058313D02*
X0190343Y0056380D01*
X0186909Y0057185D02*
X0186103Y0057508D01*
X0186066Y0057525D01*
X0186032Y0057545D01*
X0185999Y0057568D01*
X0185969Y0057594D01*
X0185941Y0057623D01*
X0185917Y0057654D01*
X0185895Y0057688D01*
X0185877Y0057724D01*
X0185862Y0057761D01*
X0185851Y0057799D01*
X0185844Y0057839D01*
X0185840Y0057879D01*
X0185841Y0057918D01*
X0185845Y0057958D01*
X0185853Y0057997D01*
X0185864Y0058036D01*
X0185879Y0058073D01*
X0185898Y0058108D01*
X0185920Y0058142D01*
X0185945Y0058173D01*
X0185973Y0058201D01*
X0186003Y0058227D01*
X0186036Y0058250D01*
X0186071Y0058270D01*
X0186107Y0058286D01*
X0186145Y0058299D01*
X0186184Y0058307D01*
X0186224Y0058313D01*
X0186264Y0058314D01*
X0185862Y0056541D02*
X0185957Y0056509D01*
X0186053Y0056480D01*
X0186151Y0056455D01*
X0186249Y0056434D01*
X0186348Y0056416D01*
X0186447Y0056401D01*
X0186547Y0056391D01*
X0186648Y0056384D01*
X0186748Y0056380D01*
X0186788Y0056381D01*
X0186828Y0056387D01*
X0186867Y0056395D01*
X0186905Y0056408D01*
X0186941Y0056424D01*
X0186976Y0056444D01*
X0187009Y0056467D01*
X0187039Y0056493D01*
X0187067Y0056521D01*
X0187092Y0056552D01*
X0187114Y0056586D01*
X0187133Y0056621D01*
X0187148Y0056658D01*
X0187159Y0056697D01*
X0187167Y0056736D01*
X0187171Y0056776D01*
X0187172Y0056815D01*
X0187168Y0056855D01*
X0187161Y0056895D01*
X0187150Y0056933D01*
X0187135Y0056970D01*
X0187117Y0057006D01*
X0187095Y0057040D01*
X0187071Y0057071D01*
X0187043Y0057100D01*
X0187013Y0057126D01*
X0186980Y0057149D01*
X0186946Y0057169D01*
X0186909Y0057186D01*
X0186989Y0058153D02*
X0186913Y0058185D01*
X0186835Y0058214D01*
X0186756Y0058239D01*
X0186675Y0058261D01*
X0186594Y0058279D01*
X0186512Y0058293D01*
X0186430Y0058304D01*
X0186347Y0058311D01*
X0186264Y0058314D01*
X0184359Y0056863D02*
X0184361Y0056821D01*
X0184366Y0056779D01*
X0184375Y0056738D01*
X0184388Y0056698D01*
X0184404Y0056659D01*
X0184424Y0056622D01*
X0184446Y0056586D01*
X0184472Y0056553D01*
X0184500Y0056521D01*
X0184532Y0056493D01*
X0184565Y0056467D01*
X0184601Y0056445D01*
X0184638Y0056425D01*
X0184677Y0056409D01*
X0184717Y0056396D01*
X0184758Y0056387D01*
X0184800Y0056382D01*
X0184842Y0056380D01*
X0184358Y0056863D02*
X0184358Y0059280D01*
X0182822Y0059280D02*
X0182822Y0056863D01*
X0182823Y0056863D02*
X0182825Y0056821D01*
X0182830Y0056779D01*
X0182839Y0056738D01*
X0182852Y0056698D01*
X0182868Y0056659D01*
X0182888Y0056622D01*
X0182910Y0056586D01*
X0182936Y0056553D01*
X0182964Y0056521D01*
X0182996Y0056493D01*
X0183029Y0056467D01*
X0183065Y0056445D01*
X0183102Y0056425D01*
X0183141Y0056409D01*
X0183181Y0056396D01*
X0183222Y0056387D01*
X0183264Y0056382D01*
X0183306Y0056380D01*
X0181610Y0056380D02*
X0181610Y0058313D01*
X0181530Y0059119D02*
X0181691Y0059119D01*
X0181691Y0059280D01*
X0181530Y0059280D01*
X0181530Y0059119D01*
X0180703Y0058313D02*
X0180703Y0057991D01*
X0180703Y0058313D02*
X0179736Y0058313D01*
X0179736Y0056380D01*
X0178302Y0056380D02*
X0177497Y0056380D01*
X0177455Y0056382D01*
X0177413Y0056387D01*
X0177372Y0056396D01*
X0177332Y0056409D01*
X0177293Y0056425D01*
X0177256Y0056445D01*
X0177220Y0056467D01*
X0177187Y0056493D01*
X0177155Y0056521D01*
X0177127Y0056553D01*
X0177101Y0056586D01*
X0177079Y0056622D01*
X0177059Y0056659D01*
X0177043Y0056698D01*
X0177030Y0056738D01*
X0177021Y0056779D01*
X0177016Y0056821D01*
X0177014Y0056863D01*
X0177014Y0057830D01*
X0177016Y0057872D01*
X0177021Y0057914D01*
X0177030Y0057955D01*
X0177043Y0057995D01*
X0177059Y0058034D01*
X0177079Y0058072D01*
X0177101Y0058107D01*
X0177127Y0058140D01*
X0177155Y0058172D01*
X0177187Y0058200D01*
X0177220Y0058226D01*
X0177256Y0058248D01*
X0177293Y0058268D01*
X0177332Y0058284D01*
X0177372Y0058297D01*
X0177413Y0058306D01*
X0177455Y0058311D01*
X0177497Y0058313D01*
X0178302Y0058313D01*
X0178302Y0059280D02*
X0178302Y0056380D01*
X0174388Y0056380D02*
X0174227Y0056380D01*
X0174185Y0056382D01*
X0174143Y0056387D01*
X0174102Y0056396D01*
X0174062Y0056409D01*
X0174023Y0056425D01*
X0173986Y0056445D01*
X0173950Y0056467D01*
X0173917Y0056493D01*
X0173885Y0056521D01*
X0173857Y0056553D01*
X0173831Y0056586D01*
X0173809Y0056622D01*
X0173789Y0056659D01*
X0173773Y0056698D01*
X0173760Y0056738D01*
X0173751Y0056779D01*
X0173746Y0056821D01*
X0173744Y0056863D01*
X0173744Y0059280D01*
X0173422Y0058313D02*
X0174388Y0058313D01*
X0172463Y0057669D02*
X0172463Y0057024D01*
X0172462Y0057024D02*
X0172460Y0056975D01*
X0172454Y0056926D01*
X0172445Y0056877D01*
X0172432Y0056830D01*
X0172415Y0056783D01*
X0172395Y0056738D01*
X0172372Y0056695D01*
X0172345Y0056653D01*
X0172315Y0056614D01*
X0172282Y0056577D01*
X0172246Y0056543D01*
X0172208Y0056512D01*
X0172168Y0056483D01*
X0172126Y0056458D01*
X0172081Y0056436D01*
X0172036Y0056418D01*
X0171989Y0056403D01*
X0171941Y0056392D01*
X0171892Y0056384D01*
X0171843Y0056380D01*
X0171793Y0056380D01*
X0171744Y0056384D01*
X0171695Y0056392D01*
X0171647Y0056403D01*
X0171600Y0056418D01*
X0171555Y0056436D01*
X0171510Y0056458D01*
X0171468Y0056483D01*
X0171428Y0056512D01*
X0171390Y0056543D01*
X0171354Y0056577D01*
X0171321Y0056614D01*
X0171291Y0056653D01*
X0171264Y0056695D01*
X0171241Y0056738D01*
X0171221Y0056783D01*
X0171204Y0056830D01*
X0171191Y0056877D01*
X0171182Y0056926D01*
X0171176Y0056975D01*
X0171174Y0057024D01*
X0171174Y0057669D01*
X0171176Y0057718D01*
X0171182Y0057767D01*
X0171191Y0057816D01*
X0171204Y0057863D01*
X0171221Y0057910D01*
X0171241Y0057955D01*
X0171264Y0057998D01*
X0171291Y0058040D01*
X0171321Y0058079D01*
X0171354Y0058116D01*
X0171390Y0058150D01*
X0171428Y0058181D01*
X0171468Y0058210D01*
X0171510Y0058235D01*
X0171555Y0058257D01*
X0171600Y0058275D01*
X0171647Y0058290D01*
X0171695Y0058301D01*
X0171744Y0058309D01*
X0171793Y0058313D01*
X0171843Y0058313D01*
X0171892Y0058309D01*
X0171941Y0058301D01*
X0171989Y0058290D01*
X0172036Y0058275D01*
X0172081Y0058257D01*
X0172126Y0058235D01*
X0172168Y0058210D01*
X0172208Y0058181D01*
X0172246Y0058150D01*
X0172282Y0058116D01*
X0172315Y0058079D01*
X0172345Y0058040D01*
X0172372Y0057998D01*
X0172395Y0057955D01*
X0172415Y0057910D01*
X0172432Y0057863D01*
X0172445Y0057816D01*
X0172454Y0057767D01*
X0172460Y0057718D01*
X0172462Y0057669D01*
X0170154Y0056380D02*
X0170112Y0056382D01*
X0170070Y0056387D01*
X0170029Y0056396D01*
X0169989Y0056409D01*
X0169950Y0056425D01*
X0169913Y0056445D01*
X0169877Y0056467D01*
X0169844Y0056493D01*
X0169812Y0056521D01*
X0169784Y0056553D01*
X0169758Y0056586D01*
X0169736Y0056622D01*
X0169716Y0056659D01*
X0169700Y0056698D01*
X0169687Y0056738D01*
X0169678Y0056779D01*
X0169673Y0056821D01*
X0169671Y0056863D01*
X0169670Y0056863D02*
X0169670Y0059280D01*
X0168028Y0056380D02*
X0167928Y0056384D01*
X0167827Y0056391D01*
X0167727Y0056401D01*
X0167628Y0056416D01*
X0167529Y0056434D01*
X0167431Y0056455D01*
X0167333Y0056480D01*
X0167237Y0056509D01*
X0167142Y0056541D01*
X0167544Y0058314D02*
X0167627Y0058311D01*
X0167710Y0058304D01*
X0167792Y0058293D01*
X0167874Y0058279D01*
X0167955Y0058261D01*
X0168036Y0058239D01*
X0168115Y0058214D01*
X0168193Y0058185D01*
X0168269Y0058153D01*
X0167545Y0058314D02*
X0167505Y0058313D01*
X0167465Y0058307D01*
X0167426Y0058299D01*
X0167388Y0058286D01*
X0167352Y0058270D01*
X0167317Y0058250D01*
X0167284Y0058227D01*
X0167254Y0058201D01*
X0167226Y0058173D01*
X0167201Y0058142D01*
X0167179Y0058108D01*
X0167160Y0058073D01*
X0167145Y0058036D01*
X0167134Y0057997D01*
X0167126Y0057958D01*
X0167122Y0057918D01*
X0167121Y0057879D01*
X0167125Y0057839D01*
X0167132Y0057799D01*
X0167143Y0057761D01*
X0167158Y0057724D01*
X0167176Y0057688D01*
X0167198Y0057654D01*
X0167222Y0057623D01*
X0167250Y0057594D01*
X0167280Y0057568D01*
X0167313Y0057545D01*
X0167347Y0057525D01*
X0167384Y0057508D01*
X0167383Y0057508D02*
X0168189Y0057185D01*
X0168189Y0057186D02*
X0168226Y0057169D01*
X0168260Y0057149D01*
X0168293Y0057126D01*
X0168323Y0057100D01*
X0168351Y0057071D01*
X0168375Y0057040D01*
X0168397Y0057006D01*
X0168415Y0056970D01*
X0168430Y0056933D01*
X0168441Y0056895D01*
X0168448Y0056855D01*
X0168452Y0056815D01*
X0168451Y0056776D01*
X0168447Y0056736D01*
X0168439Y0056697D01*
X0168428Y0056658D01*
X0168413Y0056621D01*
X0168394Y0056586D01*
X0168372Y0056552D01*
X0168347Y0056521D01*
X0168319Y0056493D01*
X0168289Y0056467D01*
X0168256Y0056444D01*
X0168221Y0056424D01*
X0168185Y0056408D01*
X0168147Y0056395D01*
X0168108Y0056387D01*
X0168068Y0056381D01*
X0168028Y0056380D01*
X0192857Y0059119D02*
X0193019Y0059119D01*
X0193019Y0059280D01*
X0192857Y0059280D01*
X0192857Y0059119D01*
X0200169Y0057830D02*
X0200169Y0056863D01*
X0200170Y0056863D02*
X0200172Y0056821D01*
X0200177Y0056779D01*
X0200186Y0056738D01*
X0200199Y0056698D01*
X0200215Y0056659D01*
X0200235Y0056622D01*
X0200257Y0056586D01*
X0200283Y0056553D01*
X0200311Y0056521D01*
X0200343Y0056493D01*
X0200376Y0056467D01*
X0200412Y0056445D01*
X0200449Y0056425D01*
X0200488Y0056409D01*
X0200528Y0056396D01*
X0200569Y0056387D01*
X0200611Y0056382D01*
X0200653Y0056380D01*
X0201297Y0056380D01*
X0202374Y0057024D02*
X0202374Y0057669D01*
X0202376Y0057718D01*
X0202382Y0057767D01*
X0202391Y0057816D01*
X0202404Y0057863D01*
X0202421Y0057910D01*
X0202441Y0057955D01*
X0202464Y0057998D01*
X0202491Y0058040D01*
X0202521Y0058079D01*
X0202554Y0058116D01*
X0202590Y0058150D01*
X0202628Y0058181D01*
X0202668Y0058210D01*
X0202710Y0058235D01*
X0202755Y0058257D01*
X0202800Y0058275D01*
X0202847Y0058290D01*
X0202895Y0058301D01*
X0202944Y0058309D01*
X0202993Y0058313D01*
X0203043Y0058313D01*
X0203092Y0058309D01*
X0203141Y0058301D01*
X0203189Y0058290D01*
X0203236Y0058275D01*
X0203281Y0058257D01*
X0203326Y0058235D01*
X0203368Y0058210D01*
X0203408Y0058181D01*
X0203446Y0058150D01*
X0203482Y0058116D01*
X0203515Y0058079D01*
X0203545Y0058040D01*
X0203572Y0057998D01*
X0203595Y0057955D01*
X0203615Y0057910D01*
X0203632Y0057863D01*
X0203645Y0057816D01*
X0203654Y0057767D01*
X0203660Y0057718D01*
X0203662Y0057669D01*
X0203662Y0057024D01*
X0203660Y0056975D01*
X0203654Y0056926D01*
X0203645Y0056877D01*
X0203632Y0056830D01*
X0203615Y0056783D01*
X0203595Y0056738D01*
X0203572Y0056695D01*
X0203545Y0056653D01*
X0203515Y0056614D01*
X0203482Y0056577D01*
X0203446Y0056543D01*
X0203408Y0056512D01*
X0203368Y0056483D01*
X0203326Y0056458D01*
X0203281Y0056436D01*
X0203236Y0056418D01*
X0203189Y0056403D01*
X0203141Y0056392D01*
X0203092Y0056384D01*
X0203043Y0056380D01*
X0202993Y0056380D01*
X0202944Y0056384D01*
X0202895Y0056392D01*
X0202847Y0056403D01*
X0202800Y0056418D01*
X0202755Y0056436D01*
X0202710Y0056458D01*
X0202668Y0056483D01*
X0202628Y0056512D01*
X0202590Y0056543D01*
X0202554Y0056577D01*
X0202521Y0056614D01*
X0202491Y0056653D01*
X0202464Y0056695D01*
X0202441Y0056738D01*
X0202421Y0056783D01*
X0202404Y0056830D01*
X0202391Y0056877D01*
X0202382Y0056926D01*
X0202376Y0056975D01*
X0202374Y0057024D01*
X0201297Y0058313D02*
X0200653Y0058313D01*
X0200652Y0058313D02*
X0200610Y0058311D01*
X0200568Y0058306D01*
X0200527Y0058297D01*
X0200487Y0058284D01*
X0200448Y0058268D01*
X0200411Y0058248D01*
X0200375Y0058226D01*
X0200342Y0058200D01*
X0200310Y0058172D01*
X0200282Y0058140D01*
X0200256Y0058107D01*
X0200234Y0058072D01*
X0200214Y0058034D01*
X0200198Y0057995D01*
X0200185Y0057955D01*
X0200176Y0057914D01*
X0200171Y0057872D01*
X0200169Y0057830D01*
X0204982Y0058313D02*
X0204982Y0055413D01*
X0204982Y0056380D02*
X0205787Y0056380D01*
X0205829Y0056382D01*
X0205871Y0056387D01*
X0205912Y0056396D01*
X0205952Y0056409D01*
X0205991Y0056425D01*
X0206029Y0056445D01*
X0206064Y0056467D01*
X0206097Y0056493D01*
X0206129Y0056521D01*
X0206157Y0056553D01*
X0206183Y0056586D01*
X0206205Y0056622D01*
X0206225Y0056659D01*
X0206241Y0056698D01*
X0206254Y0056738D01*
X0206263Y0056779D01*
X0206268Y0056821D01*
X0206270Y0056863D01*
X0206271Y0056863D02*
X0206271Y0057830D01*
X0206270Y0057830D02*
X0206268Y0057872D01*
X0206263Y0057914D01*
X0206254Y0057955D01*
X0206241Y0057995D01*
X0206225Y0058034D01*
X0206205Y0058072D01*
X0206183Y0058107D01*
X0206157Y0058140D01*
X0206129Y0058172D01*
X0206097Y0058200D01*
X0206064Y0058226D01*
X0206029Y0058248D01*
X0205991Y0058268D01*
X0205952Y0058284D01*
X0205912Y0058297D01*
X0205871Y0058306D01*
X0205829Y0058311D01*
X0205787Y0058313D01*
X0204982Y0058313D01*
X0207574Y0058313D02*
X0208379Y0058313D01*
X0208421Y0058311D01*
X0208463Y0058306D01*
X0208504Y0058297D01*
X0208544Y0058284D01*
X0208583Y0058268D01*
X0208621Y0058248D01*
X0208656Y0058226D01*
X0208689Y0058200D01*
X0208721Y0058172D01*
X0208749Y0058140D01*
X0208775Y0058107D01*
X0208797Y0058072D01*
X0208817Y0058034D01*
X0208833Y0057995D01*
X0208846Y0057955D01*
X0208855Y0057914D01*
X0208860Y0057872D01*
X0208862Y0057830D01*
X0208863Y0057830D02*
X0208863Y0056863D01*
X0208862Y0056863D02*
X0208860Y0056821D01*
X0208855Y0056779D01*
X0208846Y0056738D01*
X0208833Y0056698D01*
X0208817Y0056659D01*
X0208797Y0056622D01*
X0208775Y0056586D01*
X0208749Y0056553D01*
X0208721Y0056521D01*
X0208689Y0056493D01*
X0208656Y0056467D01*
X0208621Y0056445D01*
X0208583Y0056425D01*
X0208544Y0056409D01*
X0208504Y0056396D01*
X0208463Y0056387D01*
X0208421Y0056382D01*
X0208379Y0056380D01*
X0207574Y0056380D01*
X0207574Y0055413D02*
X0207574Y0058313D01*
X0210054Y0057669D02*
X0210054Y0056863D01*
X0210056Y0056821D01*
X0210061Y0056779D01*
X0210070Y0056738D01*
X0210083Y0056698D01*
X0210099Y0056659D01*
X0210119Y0056622D01*
X0210141Y0056586D01*
X0210167Y0056553D01*
X0210195Y0056521D01*
X0210227Y0056493D01*
X0210260Y0056467D01*
X0210296Y0056445D01*
X0210333Y0056425D01*
X0210372Y0056409D01*
X0210412Y0056396D01*
X0210453Y0056387D01*
X0210495Y0056382D01*
X0210537Y0056380D01*
X0211342Y0056380D01*
X0211342Y0057347D02*
X0210054Y0057347D01*
X0210054Y0057669D02*
X0210056Y0057718D01*
X0210062Y0057767D01*
X0210071Y0057816D01*
X0210084Y0057863D01*
X0210101Y0057910D01*
X0210121Y0057955D01*
X0210144Y0057998D01*
X0210171Y0058040D01*
X0210201Y0058079D01*
X0210234Y0058116D01*
X0210270Y0058150D01*
X0210308Y0058181D01*
X0210348Y0058210D01*
X0210390Y0058235D01*
X0210435Y0058257D01*
X0210480Y0058275D01*
X0210527Y0058290D01*
X0210575Y0058301D01*
X0210624Y0058309D01*
X0210673Y0058313D01*
X0210723Y0058313D01*
X0210772Y0058309D01*
X0210821Y0058301D01*
X0210869Y0058290D01*
X0210916Y0058275D01*
X0210961Y0058257D01*
X0211006Y0058235D01*
X0211048Y0058210D01*
X0211088Y0058181D01*
X0211126Y0058150D01*
X0211162Y0058116D01*
X0211195Y0058079D01*
X0211225Y0058040D01*
X0211252Y0057998D01*
X0211275Y0057955D01*
X0211295Y0057910D01*
X0211312Y0057863D01*
X0211325Y0057816D01*
X0211334Y0057767D01*
X0211340Y0057718D01*
X0211342Y0057669D01*
X0211342Y0057347D01*
X0212664Y0058313D02*
X0213630Y0058313D01*
X0213630Y0057991D01*
X0212664Y0058313D02*
X0212664Y0056380D01*
M02*
