G75*
%MOIN*%
%OFA0B0*%
%FSLAX25Y25*%
%IPPOS*%
%LPD*%
%AMOC8*
5,1,8,0,0,1.08239X$1,22.5*
%
%ADD10C,0.00600*%
%ADD11C,0.00000*%
%ADD12R,0.10000X0.20000*%
D10*
X0023150Y0144410D02*
X0057796Y0144410D01*
X0057796Y0223150D01*
X0023150Y0223150D01*
X0023150Y0223151D02*
X0024158Y0227061D01*
X0025260Y0230946D01*
X0026458Y0234802D01*
X0027749Y0238628D01*
X0029133Y0242421D01*
X0030609Y0246180D01*
X0032177Y0249901D01*
X0033835Y0253583D01*
X0035582Y0257223D01*
X0037418Y0260820D01*
X0039341Y0264370D01*
X0041350Y0267873D01*
X0043445Y0271326D01*
X0045622Y0274726D01*
X0047882Y0278072D01*
X0050224Y0281362D01*
X0052644Y0284594D01*
X0055143Y0287766D01*
X0057719Y0290876D01*
X0060370Y0293922D01*
X0063094Y0296902D01*
X0065891Y0299815D01*
X0068758Y0302659D01*
X0071693Y0305432D01*
X0074695Y0308132D01*
X0077762Y0310759D01*
X0080892Y0313309D01*
X0084084Y0315783D01*
X0087335Y0318178D01*
X0090644Y0320493D01*
X0094008Y0322726D01*
X0097426Y0324876D01*
X0100895Y0326943D01*
X0104414Y0328924D01*
X0107979Y0330818D01*
X0111591Y0332625D01*
X0115245Y0334344D01*
X0118940Y0335972D01*
X0122673Y0337510D01*
X0126444Y0338956D01*
X0130248Y0340310D01*
X0134084Y0341570D01*
X0137950Y0342737D01*
X0141843Y0343808D01*
X0145761Y0344784D01*
X0149702Y0345665D01*
X0153663Y0346448D01*
X0157643Y0347135D01*
X0161637Y0347725D01*
X0165645Y0348217D01*
X0169664Y0348610D01*
X0173691Y0348906D01*
X0177724Y0349103D01*
X0181761Y0349202D01*
X0185799Y0349202D01*
X0189836Y0349103D01*
X0193869Y0348906D01*
X0197896Y0348610D01*
X0201915Y0348217D01*
X0205923Y0347725D01*
X0209917Y0347135D01*
X0213897Y0346448D01*
X0217858Y0345665D01*
X0221799Y0344784D01*
X0225717Y0343808D01*
X0229610Y0342737D01*
X0233476Y0341570D01*
X0237312Y0340310D01*
X0241116Y0338956D01*
X0244887Y0337510D01*
X0248620Y0335972D01*
X0252315Y0334344D01*
X0255969Y0332625D01*
X0259581Y0330818D01*
X0263146Y0328924D01*
X0266665Y0326943D01*
X0270134Y0324876D01*
X0273552Y0322726D01*
X0276916Y0320493D01*
X0280225Y0318178D01*
X0283476Y0315783D01*
X0286668Y0313309D01*
X0289798Y0310759D01*
X0292865Y0308132D01*
X0295867Y0305432D01*
X0298802Y0302659D01*
X0301669Y0299815D01*
X0304466Y0296902D01*
X0307190Y0293922D01*
X0309841Y0290876D01*
X0312417Y0287766D01*
X0314916Y0284594D01*
X0317336Y0281362D01*
X0319678Y0278072D01*
X0321938Y0274726D01*
X0324115Y0271326D01*
X0326210Y0267873D01*
X0328219Y0264370D01*
X0330142Y0260820D01*
X0331978Y0257223D01*
X0333725Y0253583D01*
X0335383Y0249901D01*
X0336951Y0246180D01*
X0338427Y0242421D01*
X0339811Y0238628D01*
X0341102Y0234802D01*
X0342300Y0230946D01*
X0343402Y0227061D01*
X0344410Y0223151D01*
X0344410Y0223150D02*
X0309765Y0223150D01*
X0309765Y0144410D01*
X0344410Y0144410D01*
X0343402Y0140500D01*
X0342300Y0136615D01*
X0341102Y0132759D01*
X0339811Y0128933D01*
X0338427Y0125140D01*
X0336951Y0121381D01*
X0335383Y0117660D01*
X0333725Y0113978D01*
X0331978Y0110338D01*
X0330142Y0106741D01*
X0328219Y0103191D01*
X0326210Y0099688D01*
X0324115Y0096235D01*
X0321938Y0092835D01*
X0319678Y0089489D01*
X0317336Y0086199D01*
X0314916Y0082967D01*
X0312417Y0079795D01*
X0309841Y0076685D01*
X0307190Y0073639D01*
X0304466Y0070659D01*
X0301669Y0067746D01*
X0298802Y0064902D01*
X0295867Y0062129D01*
X0292865Y0059429D01*
X0289798Y0056802D01*
X0286668Y0054252D01*
X0283476Y0051778D01*
X0280225Y0049383D01*
X0276916Y0047068D01*
X0273552Y0044835D01*
X0270134Y0042685D01*
X0266665Y0040618D01*
X0263146Y0038637D01*
X0259581Y0036743D01*
X0255969Y0034936D01*
X0252315Y0033217D01*
X0248620Y0031589D01*
X0244887Y0030051D01*
X0241116Y0028605D01*
X0237312Y0027251D01*
X0233476Y0025991D01*
X0229610Y0024824D01*
X0225717Y0023753D01*
X0221799Y0022777D01*
X0217858Y0021896D01*
X0213897Y0021113D01*
X0209917Y0020426D01*
X0205923Y0019836D01*
X0201915Y0019344D01*
X0197896Y0018951D01*
X0193869Y0018655D01*
X0189836Y0018458D01*
X0185799Y0018359D01*
X0181761Y0018359D01*
X0177724Y0018458D01*
X0173691Y0018655D01*
X0169664Y0018951D01*
X0165645Y0019344D01*
X0161637Y0019836D01*
X0157643Y0020426D01*
X0153663Y0021113D01*
X0149702Y0021896D01*
X0145761Y0022777D01*
X0141843Y0023753D01*
X0137950Y0024824D01*
X0134084Y0025991D01*
X0130248Y0027251D01*
X0126444Y0028605D01*
X0122673Y0030051D01*
X0118940Y0031589D01*
X0115245Y0033217D01*
X0111591Y0034936D01*
X0107979Y0036743D01*
X0104414Y0038637D01*
X0100895Y0040618D01*
X0097426Y0042685D01*
X0094008Y0044835D01*
X0090644Y0047068D01*
X0087335Y0049383D01*
X0084084Y0051778D01*
X0080892Y0054252D01*
X0077762Y0056802D01*
X0074695Y0059429D01*
X0071693Y0062129D01*
X0068758Y0064902D01*
X0065891Y0067746D01*
X0063094Y0070659D01*
X0060370Y0073639D01*
X0057719Y0076685D01*
X0055143Y0079795D01*
X0052644Y0082967D01*
X0050224Y0086199D01*
X0047882Y0089489D01*
X0045622Y0092835D01*
X0043445Y0096235D01*
X0041350Y0099688D01*
X0039341Y0103191D01*
X0037418Y0106741D01*
X0035582Y0110338D01*
X0033835Y0113978D01*
X0032177Y0117660D01*
X0030609Y0121381D01*
X0029133Y0125140D01*
X0027749Y0128933D01*
X0026458Y0132759D01*
X0025260Y0136615D01*
X0024158Y0140500D01*
X0023150Y0144410D01*
D11*
X0085355Y0148347D02*
X0085357Y0148472D01*
X0085363Y0148597D01*
X0085373Y0148721D01*
X0085387Y0148845D01*
X0085404Y0148969D01*
X0085426Y0149092D01*
X0085452Y0149214D01*
X0085481Y0149336D01*
X0085514Y0149456D01*
X0085552Y0149575D01*
X0085592Y0149694D01*
X0085637Y0149810D01*
X0085685Y0149925D01*
X0085737Y0150039D01*
X0085793Y0150151D01*
X0085852Y0150261D01*
X0085914Y0150369D01*
X0085980Y0150476D01*
X0086049Y0150580D01*
X0086122Y0150681D01*
X0086197Y0150781D01*
X0086276Y0150878D01*
X0086358Y0150972D01*
X0086443Y0151064D01*
X0086530Y0151153D01*
X0086621Y0151239D01*
X0086714Y0151322D01*
X0086810Y0151403D01*
X0086908Y0151480D01*
X0087008Y0151554D01*
X0087111Y0151625D01*
X0087216Y0151692D01*
X0087324Y0151757D01*
X0087433Y0151817D01*
X0087544Y0151875D01*
X0087657Y0151928D01*
X0087771Y0151978D01*
X0087887Y0152025D01*
X0088004Y0152067D01*
X0088123Y0152106D01*
X0088243Y0152142D01*
X0088364Y0152173D01*
X0088486Y0152201D01*
X0088608Y0152224D01*
X0088732Y0152244D01*
X0088856Y0152260D01*
X0088980Y0152272D01*
X0089105Y0152280D01*
X0089230Y0152284D01*
X0089354Y0152284D01*
X0089479Y0152280D01*
X0089604Y0152272D01*
X0089728Y0152260D01*
X0089852Y0152244D01*
X0089976Y0152224D01*
X0090098Y0152201D01*
X0090220Y0152173D01*
X0090341Y0152142D01*
X0090461Y0152106D01*
X0090580Y0152067D01*
X0090697Y0152025D01*
X0090813Y0151978D01*
X0090927Y0151928D01*
X0091040Y0151875D01*
X0091151Y0151817D01*
X0091261Y0151757D01*
X0091368Y0151692D01*
X0091473Y0151625D01*
X0091576Y0151554D01*
X0091676Y0151480D01*
X0091774Y0151403D01*
X0091870Y0151322D01*
X0091963Y0151239D01*
X0092054Y0151153D01*
X0092141Y0151064D01*
X0092226Y0150972D01*
X0092308Y0150878D01*
X0092387Y0150781D01*
X0092462Y0150681D01*
X0092535Y0150580D01*
X0092604Y0150476D01*
X0092670Y0150369D01*
X0092732Y0150261D01*
X0092791Y0150151D01*
X0092847Y0150039D01*
X0092899Y0149925D01*
X0092947Y0149810D01*
X0092992Y0149694D01*
X0093032Y0149575D01*
X0093070Y0149456D01*
X0093103Y0149336D01*
X0093132Y0149214D01*
X0093158Y0149092D01*
X0093180Y0148969D01*
X0093197Y0148845D01*
X0093211Y0148721D01*
X0093221Y0148597D01*
X0093227Y0148472D01*
X0093229Y0148347D01*
X0093227Y0148222D01*
X0093221Y0148097D01*
X0093211Y0147973D01*
X0093197Y0147849D01*
X0093180Y0147725D01*
X0093158Y0147602D01*
X0093132Y0147480D01*
X0093103Y0147358D01*
X0093070Y0147238D01*
X0093032Y0147119D01*
X0092992Y0147000D01*
X0092947Y0146884D01*
X0092899Y0146769D01*
X0092847Y0146655D01*
X0092791Y0146543D01*
X0092732Y0146433D01*
X0092670Y0146325D01*
X0092604Y0146218D01*
X0092535Y0146114D01*
X0092462Y0146013D01*
X0092387Y0145913D01*
X0092308Y0145816D01*
X0092226Y0145722D01*
X0092141Y0145630D01*
X0092054Y0145541D01*
X0091963Y0145455D01*
X0091870Y0145372D01*
X0091774Y0145291D01*
X0091676Y0145214D01*
X0091576Y0145140D01*
X0091473Y0145069D01*
X0091368Y0145002D01*
X0091260Y0144937D01*
X0091151Y0144877D01*
X0091040Y0144819D01*
X0090927Y0144766D01*
X0090813Y0144716D01*
X0090697Y0144669D01*
X0090580Y0144627D01*
X0090461Y0144588D01*
X0090341Y0144552D01*
X0090220Y0144521D01*
X0090098Y0144493D01*
X0089976Y0144470D01*
X0089852Y0144450D01*
X0089728Y0144434D01*
X0089604Y0144422D01*
X0089479Y0144414D01*
X0089354Y0144410D01*
X0089230Y0144410D01*
X0089105Y0144414D01*
X0088980Y0144422D01*
X0088856Y0144434D01*
X0088732Y0144450D01*
X0088608Y0144470D01*
X0088486Y0144493D01*
X0088364Y0144521D01*
X0088243Y0144552D01*
X0088123Y0144588D01*
X0088004Y0144627D01*
X0087887Y0144669D01*
X0087771Y0144716D01*
X0087657Y0144766D01*
X0087544Y0144819D01*
X0087433Y0144877D01*
X0087323Y0144937D01*
X0087216Y0145002D01*
X0087111Y0145069D01*
X0087008Y0145140D01*
X0086908Y0145214D01*
X0086810Y0145291D01*
X0086714Y0145372D01*
X0086621Y0145455D01*
X0086530Y0145541D01*
X0086443Y0145630D01*
X0086358Y0145722D01*
X0086276Y0145816D01*
X0086197Y0145913D01*
X0086122Y0146013D01*
X0086049Y0146114D01*
X0085980Y0146218D01*
X0085914Y0146325D01*
X0085852Y0146433D01*
X0085793Y0146543D01*
X0085737Y0146655D01*
X0085685Y0146769D01*
X0085637Y0146884D01*
X0085592Y0147000D01*
X0085552Y0147119D01*
X0085514Y0147238D01*
X0085481Y0147358D01*
X0085452Y0147480D01*
X0085426Y0147602D01*
X0085404Y0147725D01*
X0085387Y0147849D01*
X0085373Y0147973D01*
X0085363Y0148097D01*
X0085357Y0148222D01*
X0085355Y0148347D01*
X0085355Y0219213D02*
X0085357Y0219338D01*
X0085363Y0219463D01*
X0085373Y0219587D01*
X0085387Y0219711D01*
X0085404Y0219835D01*
X0085426Y0219958D01*
X0085452Y0220080D01*
X0085481Y0220202D01*
X0085514Y0220322D01*
X0085552Y0220441D01*
X0085592Y0220560D01*
X0085637Y0220676D01*
X0085685Y0220791D01*
X0085737Y0220905D01*
X0085793Y0221017D01*
X0085852Y0221127D01*
X0085914Y0221235D01*
X0085980Y0221342D01*
X0086049Y0221446D01*
X0086122Y0221547D01*
X0086197Y0221647D01*
X0086276Y0221744D01*
X0086358Y0221838D01*
X0086443Y0221930D01*
X0086530Y0222019D01*
X0086621Y0222105D01*
X0086714Y0222188D01*
X0086810Y0222269D01*
X0086908Y0222346D01*
X0087008Y0222420D01*
X0087111Y0222491D01*
X0087216Y0222558D01*
X0087324Y0222623D01*
X0087433Y0222683D01*
X0087544Y0222741D01*
X0087657Y0222794D01*
X0087771Y0222844D01*
X0087887Y0222891D01*
X0088004Y0222933D01*
X0088123Y0222972D01*
X0088243Y0223008D01*
X0088364Y0223039D01*
X0088486Y0223067D01*
X0088608Y0223090D01*
X0088732Y0223110D01*
X0088856Y0223126D01*
X0088980Y0223138D01*
X0089105Y0223146D01*
X0089230Y0223150D01*
X0089354Y0223150D01*
X0089479Y0223146D01*
X0089604Y0223138D01*
X0089728Y0223126D01*
X0089852Y0223110D01*
X0089976Y0223090D01*
X0090098Y0223067D01*
X0090220Y0223039D01*
X0090341Y0223008D01*
X0090461Y0222972D01*
X0090580Y0222933D01*
X0090697Y0222891D01*
X0090813Y0222844D01*
X0090927Y0222794D01*
X0091040Y0222741D01*
X0091151Y0222683D01*
X0091261Y0222623D01*
X0091368Y0222558D01*
X0091473Y0222491D01*
X0091576Y0222420D01*
X0091676Y0222346D01*
X0091774Y0222269D01*
X0091870Y0222188D01*
X0091963Y0222105D01*
X0092054Y0222019D01*
X0092141Y0221930D01*
X0092226Y0221838D01*
X0092308Y0221744D01*
X0092387Y0221647D01*
X0092462Y0221547D01*
X0092535Y0221446D01*
X0092604Y0221342D01*
X0092670Y0221235D01*
X0092732Y0221127D01*
X0092791Y0221017D01*
X0092847Y0220905D01*
X0092899Y0220791D01*
X0092947Y0220676D01*
X0092992Y0220560D01*
X0093032Y0220441D01*
X0093070Y0220322D01*
X0093103Y0220202D01*
X0093132Y0220080D01*
X0093158Y0219958D01*
X0093180Y0219835D01*
X0093197Y0219711D01*
X0093211Y0219587D01*
X0093221Y0219463D01*
X0093227Y0219338D01*
X0093229Y0219213D01*
X0093227Y0219088D01*
X0093221Y0218963D01*
X0093211Y0218839D01*
X0093197Y0218715D01*
X0093180Y0218591D01*
X0093158Y0218468D01*
X0093132Y0218346D01*
X0093103Y0218224D01*
X0093070Y0218104D01*
X0093032Y0217985D01*
X0092992Y0217866D01*
X0092947Y0217750D01*
X0092899Y0217635D01*
X0092847Y0217521D01*
X0092791Y0217409D01*
X0092732Y0217299D01*
X0092670Y0217191D01*
X0092604Y0217084D01*
X0092535Y0216980D01*
X0092462Y0216879D01*
X0092387Y0216779D01*
X0092308Y0216682D01*
X0092226Y0216588D01*
X0092141Y0216496D01*
X0092054Y0216407D01*
X0091963Y0216321D01*
X0091870Y0216238D01*
X0091774Y0216157D01*
X0091676Y0216080D01*
X0091576Y0216006D01*
X0091473Y0215935D01*
X0091368Y0215868D01*
X0091260Y0215803D01*
X0091151Y0215743D01*
X0091040Y0215685D01*
X0090927Y0215632D01*
X0090813Y0215582D01*
X0090697Y0215535D01*
X0090580Y0215493D01*
X0090461Y0215454D01*
X0090341Y0215418D01*
X0090220Y0215387D01*
X0090098Y0215359D01*
X0089976Y0215336D01*
X0089852Y0215316D01*
X0089728Y0215300D01*
X0089604Y0215288D01*
X0089479Y0215280D01*
X0089354Y0215276D01*
X0089230Y0215276D01*
X0089105Y0215280D01*
X0088980Y0215288D01*
X0088856Y0215300D01*
X0088732Y0215316D01*
X0088608Y0215336D01*
X0088486Y0215359D01*
X0088364Y0215387D01*
X0088243Y0215418D01*
X0088123Y0215454D01*
X0088004Y0215493D01*
X0087887Y0215535D01*
X0087771Y0215582D01*
X0087657Y0215632D01*
X0087544Y0215685D01*
X0087433Y0215743D01*
X0087323Y0215803D01*
X0087216Y0215868D01*
X0087111Y0215935D01*
X0087008Y0216006D01*
X0086908Y0216080D01*
X0086810Y0216157D01*
X0086714Y0216238D01*
X0086621Y0216321D01*
X0086530Y0216407D01*
X0086443Y0216496D01*
X0086358Y0216588D01*
X0086276Y0216682D01*
X0086197Y0216779D01*
X0086122Y0216879D01*
X0086049Y0216980D01*
X0085980Y0217084D01*
X0085914Y0217191D01*
X0085852Y0217299D01*
X0085793Y0217409D01*
X0085737Y0217521D01*
X0085685Y0217635D01*
X0085637Y0217750D01*
X0085592Y0217866D01*
X0085552Y0217985D01*
X0085514Y0218104D01*
X0085481Y0218224D01*
X0085452Y0218346D01*
X0085426Y0218468D01*
X0085404Y0218591D01*
X0085387Y0218715D01*
X0085373Y0218839D01*
X0085363Y0218963D01*
X0085357Y0219088D01*
X0085355Y0219213D01*
X0130630Y0329450D02*
X0130632Y0329603D01*
X0130638Y0329757D01*
X0130648Y0329910D01*
X0130662Y0330062D01*
X0130680Y0330215D01*
X0130702Y0330366D01*
X0130727Y0330517D01*
X0130757Y0330668D01*
X0130791Y0330818D01*
X0130828Y0330966D01*
X0130869Y0331114D01*
X0130914Y0331260D01*
X0130963Y0331406D01*
X0131016Y0331550D01*
X0131072Y0331692D01*
X0131132Y0331833D01*
X0131196Y0331973D01*
X0131263Y0332111D01*
X0131334Y0332247D01*
X0131409Y0332381D01*
X0131486Y0332513D01*
X0131568Y0332643D01*
X0131652Y0332771D01*
X0131740Y0332897D01*
X0131831Y0333020D01*
X0131925Y0333141D01*
X0132023Y0333259D01*
X0132123Y0333375D01*
X0132227Y0333488D01*
X0132333Y0333599D01*
X0132442Y0333707D01*
X0132554Y0333812D01*
X0132668Y0333913D01*
X0132786Y0334012D01*
X0132905Y0334108D01*
X0133027Y0334201D01*
X0133152Y0334290D01*
X0133279Y0334377D01*
X0133408Y0334459D01*
X0133539Y0334539D01*
X0133672Y0334615D01*
X0133807Y0334688D01*
X0133944Y0334757D01*
X0134083Y0334822D01*
X0134223Y0334884D01*
X0134365Y0334942D01*
X0134508Y0334997D01*
X0134653Y0335048D01*
X0134799Y0335095D01*
X0134946Y0335138D01*
X0135094Y0335177D01*
X0135243Y0335213D01*
X0135393Y0335244D01*
X0135544Y0335272D01*
X0135695Y0335296D01*
X0135848Y0335316D01*
X0136000Y0335332D01*
X0136153Y0335344D01*
X0136306Y0335352D01*
X0136459Y0335356D01*
X0136613Y0335356D01*
X0136766Y0335352D01*
X0136919Y0335344D01*
X0137072Y0335332D01*
X0137224Y0335316D01*
X0137377Y0335296D01*
X0137528Y0335272D01*
X0137679Y0335244D01*
X0137829Y0335213D01*
X0137978Y0335177D01*
X0138126Y0335138D01*
X0138273Y0335095D01*
X0138419Y0335048D01*
X0138564Y0334997D01*
X0138707Y0334942D01*
X0138849Y0334884D01*
X0138989Y0334822D01*
X0139128Y0334757D01*
X0139265Y0334688D01*
X0139400Y0334615D01*
X0139533Y0334539D01*
X0139664Y0334459D01*
X0139793Y0334377D01*
X0139920Y0334290D01*
X0140045Y0334201D01*
X0140167Y0334108D01*
X0140286Y0334012D01*
X0140404Y0333913D01*
X0140518Y0333812D01*
X0140630Y0333707D01*
X0140739Y0333599D01*
X0140845Y0333488D01*
X0140949Y0333375D01*
X0141049Y0333259D01*
X0141147Y0333141D01*
X0141241Y0333020D01*
X0141332Y0332897D01*
X0141420Y0332771D01*
X0141504Y0332643D01*
X0141586Y0332513D01*
X0141663Y0332381D01*
X0141738Y0332247D01*
X0141809Y0332111D01*
X0141876Y0331973D01*
X0141940Y0331833D01*
X0142000Y0331692D01*
X0142056Y0331550D01*
X0142109Y0331406D01*
X0142158Y0331260D01*
X0142203Y0331114D01*
X0142244Y0330966D01*
X0142281Y0330818D01*
X0142315Y0330668D01*
X0142345Y0330517D01*
X0142370Y0330366D01*
X0142392Y0330215D01*
X0142410Y0330062D01*
X0142424Y0329910D01*
X0142434Y0329757D01*
X0142440Y0329603D01*
X0142442Y0329450D01*
X0142440Y0329297D01*
X0142434Y0329143D01*
X0142424Y0328990D01*
X0142410Y0328838D01*
X0142392Y0328685D01*
X0142370Y0328534D01*
X0142345Y0328383D01*
X0142315Y0328232D01*
X0142281Y0328082D01*
X0142244Y0327934D01*
X0142203Y0327786D01*
X0142158Y0327640D01*
X0142109Y0327494D01*
X0142056Y0327350D01*
X0142000Y0327208D01*
X0141940Y0327067D01*
X0141876Y0326927D01*
X0141809Y0326789D01*
X0141738Y0326653D01*
X0141663Y0326519D01*
X0141586Y0326387D01*
X0141504Y0326257D01*
X0141420Y0326129D01*
X0141332Y0326003D01*
X0141241Y0325880D01*
X0141147Y0325759D01*
X0141049Y0325641D01*
X0140949Y0325525D01*
X0140845Y0325412D01*
X0140739Y0325301D01*
X0140630Y0325193D01*
X0140518Y0325088D01*
X0140404Y0324987D01*
X0140286Y0324888D01*
X0140167Y0324792D01*
X0140045Y0324699D01*
X0139920Y0324610D01*
X0139793Y0324523D01*
X0139664Y0324441D01*
X0139533Y0324361D01*
X0139400Y0324285D01*
X0139265Y0324212D01*
X0139128Y0324143D01*
X0138989Y0324078D01*
X0138849Y0324016D01*
X0138707Y0323958D01*
X0138564Y0323903D01*
X0138419Y0323852D01*
X0138273Y0323805D01*
X0138126Y0323762D01*
X0137978Y0323723D01*
X0137829Y0323687D01*
X0137679Y0323656D01*
X0137528Y0323628D01*
X0137377Y0323604D01*
X0137224Y0323584D01*
X0137072Y0323568D01*
X0136919Y0323556D01*
X0136766Y0323548D01*
X0136613Y0323544D01*
X0136459Y0323544D01*
X0136306Y0323548D01*
X0136153Y0323556D01*
X0136000Y0323568D01*
X0135848Y0323584D01*
X0135695Y0323604D01*
X0135544Y0323628D01*
X0135393Y0323656D01*
X0135243Y0323687D01*
X0135094Y0323723D01*
X0134946Y0323762D01*
X0134799Y0323805D01*
X0134653Y0323852D01*
X0134508Y0323903D01*
X0134365Y0323958D01*
X0134223Y0324016D01*
X0134083Y0324078D01*
X0133944Y0324143D01*
X0133807Y0324212D01*
X0133672Y0324285D01*
X0133539Y0324361D01*
X0133408Y0324441D01*
X0133279Y0324523D01*
X0133152Y0324610D01*
X0133027Y0324699D01*
X0132905Y0324792D01*
X0132786Y0324888D01*
X0132668Y0324987D01*
X0132554Y0325088D01*
X0132442Y0325193D01*
X0132333Y0325301D01*
X0132227Y0325412D01*
X0132123Y0325525D01*
X0132023Y0325641D01*
X0131925Y0325759D01*
X0131831Y0325880D01*
X0131740Y0326003D01*
X0131652Y0326129D01*
X0131568Y0326257D01*
X0131486Y0326387D01*
X0131409Y0326519D01*
X0131334Y0326653D01*
X0131263Y0326789D01*
X0131196Y0326927D01*
X0131132Y0327067D01*
X0131072Y0327208D01*
X0131016Y0327350D01*
X0130963Y0327494D01*
X0130914Y0327640D01*
X0130869Y0327786D01*
X0130828Y0327934D01*
X0130791Y0328082D01*
X0130757Y0328232D01*
X0130727Y0328383D01*
X0130702Y0328534D01*
X0130680Y0328685D01*
X0130662Y0328838D01*
X0130648Y0328990D01*
X0130638Y0329143D01*
X0130632Y0329297D01*
X0130630Y0329450D01*
X0225118Y0329450D02*
X0225120Y0329603D01*
X0225126Y0329757D01*
X0225136Y0329910D01*
X0225150Y0330062D01*
X0225168Y0330215D01*
X0225190Y0330366D01*
X0225215Y0330517D01*
X0225245Y0330668D01*
X0225279Y0330818D01*
X0225316Y0330966D01*
X0225357Y0331114D01*
X0225402Y0331260D01*
X0225451Y0331406D01*
X0225504Y0331550D01*
X0225560Y0331692D01*
X0225620Y0331833D01*
X0225684Y0331973D01*
X0225751Y0332111D01*
X0225822Y0332247D01*
X0225897Y0332381D01*
X0225974Y0332513D01*
X0226056Y0332643D01*
X0226140Y0332771D01*
X0226228Y0332897D01*
X0226319Y0333020D01*
X0226413Y0333141D01*
X0226511Y0333259D01*
X0226611Y0333375D01*
X0226715Y0333488D01*
X0226821Y0333599D01*
X0226930Y0333707D01*
X0227042Y0333812D01*
X0227156Y0333913D01*
X0227274Y0334012D01*
X0227393Y0334108D01*
X0227515Y0334201D01*
X0227640Y0334290D01*
X0227767Y0334377D01*
X0227896Y0334459D01*
X0228027Y0334539D01*
X0228160Y0334615D01*
X0228295Y0334688D01*
X0228432Y0334757D01*
X0228571Y0334822D01*
X0228711Y0334884D01*
X0228853Y0334942D01*
X0228996Y0334997D01*
X0229141Y0335048D01*
X0229287Y0335095D01*
X0229434Y0335138D01*
X0229582Y0335177D01*
X0229731Y0335213D01*
X0229881Y0335244D01*
X0230032Y0335272D01*
X0230183Y0335296D01*
X0230336Y0335316D01*
X0230488Y0335332D01*
X0230641Y0335344D01*
X0230794Y0335352D01*
X0230947Y0335356D01*
X0231101Y0335356D01*
X0231254Y0335352D01*
X0231407Y0335344D01*
X0231560Y0335332D01*
X0231712Y0335316D01*
X0231865Y0335296D01*
X0232016Y0335272D01*
X0232167Y0335244D01*
X0232317Y0335213D01*
X0232466Y0335177D01*
X0232614Y0335138D01*
X0232761Y0335095D01*
X0232907Y0335048D01*
X0233052Y0334997D01*
X0233195Y0334942D01*
X0233337Y0334884D01*
X0233477Y0334822D01*
X0233616Y0334757D01*
X0233753Y0334688D01*
X0233888Y0334615D01*
X0234021Y0334539D01*
X0234152Y0334459D01*
X0234281Y0334377D01*
X0234408Y0334290D01*
X0234533Y0334201D01*
X0234655Y0334108D01*
X0234774Y0334012D01*
X0234892Y0333913D01*
X0235006Y0333812D01*
X0235118Y0333707D01*
X0235227Y0333599D01*
X0235333Y0333488D01*
X0235437Y0333375D01*
X0235537Y0333259D01*
X0235635Y0333141D01*
X0235729Y0333020D01*
X0235820Y0332897D01*
X0235908Y0332771D01*
X0235992Y0332643D01*
X0236074Y0332513D01*
X0236151Y0332381D01*
X0236226Y0332247D01*
X0236297Y0332111D01*
X0236364Y0331973D01*
X0236428Y0331833D01*
X0236488Y0331692D01*
X0236544Y0331550D01*
X0236597Y0331406D01*
X0236646Y0331260D01*
X0236691Y0331114D01*
X0236732Y0330966D01*
X0236769Y0330818D01*
X0236803Y0330668D01*
X0236833Y0330517D01*
X0236858Y0330366D01*
X0236880Y0330215D01*
X0236898Y0330062D01*
X0236912Y0329910D01*
X0236922Y0329757D01*
X0236928Y0329603D01*
X0236930Y0329450D01*
X0236928Y0329297D01*
X0236922Y0329143D01*
X0236912Y0328990D01*
X0236898Y0328838D01*
X0236880Y0328685D01*
X0236858Y0328534D01*
X0236833Y0328383D01*
X0236803Y0328232D01*
X0236769Y0328082D01*
X0236732Y0327934D01*
X0236691Y0327786D01*
X0236646Y0327640D01*
X0236597Y0327494D01*
X0236544Y0327350D01*
X0236488Y0327208D01*
X0236428Y0327067D01*
X0236364Y0326927D01*
X0236297Y0326789D01*
X0236226Y0326653D01*
X0236151Y0326519D01*
X0236074Y0326387D01*
X0235992Y0326257D01*
X0235908Y0326129D01*
X0235820Y0326003D01*
X0235729Y0325880D01*
X0235635Y0325759D01*
X0235537Y0325641D01*
X0235437Y0325525D01*
X0235333Y0325412D01*
X0235227Y0325301D01*
X0235118Y0325193D01*
X0235006Y0325088D01*
X0234892Y0324987D01*
X0234774Y0324888D01*
X0234655Y0324792D01*
X0234533Y0324699D01*
X0234408Y0324610D01*
X0234281Y0324523D01*
X0234152Y0324441D01*
X0234021Y0324361D01*
X0233888Y0324285D01*
X0233753Y0324212D01*
X0233616Y0324143D01*
X0233477Y0324078D01*
X0233337Y0324016D01*
X0233195Y0323958D01*
X0233052Y0323903D01*
X0232907Y0323852D01*
X0232761Y0323805D01*
X0232614Y0323762D01*
X0232466Y0323723D01*
X0232317Y0323687D01*
X0232167Y0323656D01*
X0232016Y0323628D01*
X0231865Y0323604D01*
X0231712Y0323584D01*
X0231560Y0323568D01*
X0231407Y0323556D01*
X0231254Y0323548D01*
X0231101Y0323544D01*
X0230947Y0323544D01*
X0230794Y0323548D01*
X0230641Y0323556D01*
X0230488Y0323568D01*
X0230336Y0323584D01*
X0230183Y0323604D01*
X0230032Y0323628D01*
X0229881Y0323656D01*
X0229731Y0323687D01*
X0229582Y0323723D01*
X0229434Y0323762D01*
X0229287Y0323805D01*
X0229141Y0323852D01*
X0228996Y0323903D01*
X0228853Y0323958D01*
X0228711Y0324016D01*
X0228571Y0324078D01*
X0228432Y0324143D01*
X0228295Y0324212D01*
X0228160Y0324285D01*
X0228027Y0324361D01*
X0227896Y0324441D01*
X0227767Y0324523D01*
X0227640Y0324610D01*
X0227515Y0324699D01*
X0227393Y0324792D01*
X0227274Y0324888D01*
X0227156Y0324987D01*
X0227042Y0325088D01*
X0226930Y0325193D01*
X0226821Y0325301D01*
X0226715Y0325412D01*
X0226611Y0325525D01*
X0226511Y0325641D01*
X0226413Y0325759D01*
X0226319Y0325880D01*
X0226228Y0326003D01*
X0226140Y0326129D01*
X0226056Y0326257D01*
X0225974Y0326387D01*
X0225897Y0326519D01*
X0225822Y0326653D01*
X0225751Y0326789D01*
X0225684Y0326927D01*
X0225620Y0327067D01*
X0225560Y0327208D01*
X0225504Y0327350D01*
X0225451Y0327494D01*
X0225402Y0327640D01*
X0225357Y0327786D01*
X0225316Y0327934D01*
X0225279Y0328082D01*
X0225245Y0328232D01*
X0225215Y0328383D01*
X0225190Y0328534D01*
X0225168Y0328685D01*
X0225150Y0328838D01*
X0225136Y0328990D01*
X0225126Y0329143D01*
X0225120Y0329297D01*
X0225118Y0329450D01*
X0274332Y0219213D02*
X0274334Y0219338D01*
X0274340Y0219463D01*
X0274350Y0219587D01*
X0274364Y0219711D01*
X0274381Y0219835D01*
X0274403Y0219958D01*
X0274429Y0220080D01*
X0274458Y0220202D01*
X0274491Y0220322D01*
X0274529Y0220441D01*
X0274569Y0220560D01*
X0274614Y0220676D01*
X0274662Y0220791D01*
X0274714Y0220905D01*
X0274770Y0221017D01*
X0274829Y0221127D01*
X0274891Y0221235D01*
X0274957Y0221342D01*
X0275026Y0221446D01*
X0275099Y0221547D01*
X0275174Y0221647D01*
X0275253Y0221744D01*
X0275335Y0221838D01*
X0275420Y0221930D01*
X0275507Y0222019D01*
X0275598Y0222105D01*
X0275691Y0222188D01*
X0275787Y0222269D01*
X0275885Y0222346D01*
X0275985Y0222420D01*
X0276088Y0222491D01*
X0276193Y0222558D01*
X0276301Y0222623D01*
X0276410Y0222683D01*
X0276521Y0222741D01*
X0276634Y0222794D01*
X0276748Y0222844D01*
X0276864Y0222891D01*
X0276981Y0222933D01*
X0277100Y0222972D01*
X0277220Y0223008D01*
X0277341Y0223039D01*
X0277463Y0223067D01*
X0277585Y0223090D01*
X0277709Y0223110D01*
X0277833Y0223126D01*
X0277957Y0223138D01*
X0278082Y0223146D01*
X0278207Y0223150D01*
X0278331Y0223150D01*
X0278456Y0223146D01*
X0278581Y0223138D01*
X0278705Y0223126D01*
X0278829Y0223110D01*
X0278953Y0223090D01*
X0279075Y0223067D01*
X0279197Y0223039D01*
X0279318Y0223008D01*
X0279438Y0222972D01*
X0279557Y0222933D01*
X0279674Y0222891D01*
X0279790Y0222844D01*
X0279904Y0222794D01*
X0280017Y0222741D01*
X0280128Y0222683D01*
X0280238Y0222623D01*
X0280345Y0222558D01*
X0280450Y0222491D01*
X0280553Y0222420D01*
X0280653Y0222346D01*
X0280751Y0222269D01*
X0280847Y0222188D01*
X0280940Y0222105D01*
X0281031Y0222019D01*
X0281118Y0221930D01*
X0281203Y0221838D01*
X0281285Y0221744D01*
X0281364Y0221647D01*
X0281439Y0221547D01*
X0281512Y0221446D01*
X0281581Y0221342D01*
X0281647Y0221235D01*
X0281709Y0221127D01*
X0281768Y0221017D01*
X0281824Y0220905D01*
X0281876Y0220791D01*
X0281924Y0220676D01*
X0281969Y0220560D01*
X0282009Y0220441D01*
X0282047Y0220322D01*
X0282080Y0220202D01*
X0282109Y0220080D01*
X0282135Y0219958D01*
X0282157Y0219835D01*
X0282174Y0219711D01*
X0282188Y0219587D01*
X0282198Y0219463D01*
X0282204Y0219338D01*
X0282206Y0219213D01*
X0282204Y0219088D01*
X0282198Y0218963D01*
X0282188Y0218839D01*
X0282174Y0218715D01*
X0282157Y0218591D01*
X0282135Y0218468D01*
X0282109Y0218346D01*
X0282080Y0218224D01*
X0282047Y0218104D01*
X0282009Y0217985D01*
X0281969Y0217866D01*
X0281924Y0217750D01*
X0281876Y0217635D01*
X0281824Y0217521D01*
X0281768Y0217409D01*
X0281709Y0217299D01*
X0281647Y0217191D01*
X0281581Y0217084D01*
X0281512Y0216980D01*
X0281439Y0216879D01*
X0281364Y0216779D01*
X0281285Y0216682D01*
X0281203Y0216588D01*
X0281118Y0216496D01*
X0281031Y0216407D01*
X0280940Y0216321D01*
X0280847Y0216238D01*
X0280751Y0216157D01*
X0280653Y0216080D01*
X0280553Y0216006D01*
X0280450Y0215935D01*
X0280345Y0215868D01*
X0280237Y0215803D01*
X0280128Y0215743D01*
X0280017Y0215685D01*
X0279904Y0215632D01*
X0279790Y0215582D01*
X0279674Y0215535D01*
X0279557Y0215493D01*
X0279438Y0215454D01*
X0279318Y0215418D01*
X0279197Y0215387D01*
X0279075Y0215359D01*
X0278953Y0215336D01*
X0278829Y0215316D01*
X0278705Y0215300D01*
X0278581Y0215288D01*
X0278456Y0215280D01*
X0278331Y0215276D01*
X0278207Y0215276D01*
X0278082Y0215280D01*
X0277957Y0215288D01*
X0277833Y0215300D01*
X0277709Y0215316D01*
X0277585Y0215336D01*
X0277463Y0215359D01*
X0277341Y0215387D01*
X0277220Y0215418D01*
X0277100Y0215454D01*
X0276981Y0215493D01*
X0276864Y0215535D01*
X0276748Y0215582D01*
X0276634Y0215632D01*
X0276521Y0215685D01*
X0276410Y0215743D01*
X0276300Y0215803D01*
X0276193Y0215868D01*
X0276088Y0215935D01*
X0275985Y0216006D01*
X0275885Y0216080D01*
X0275787Y0216157D01*
X0275691Y0216238D01*
X0275598Y0216321D01*
X0275507Y0216407D01*
X0275420Y0216496D01*
X0275335Y0216588D01*
X0275253Y0216682D01*
X0275174Y0216779D01*
X0275099Y0216879D01*
X0275026Y0216980D01*
X0274957Y0217084D01*
X0274891Y0217191D01*
X0274829Y0217299D01*
X0274770Y0217409D01*
X0274714Y0217521D01*
X0274662Y0217635D01*
X0274614Y0217750D01*
X0274569Y0217866D01*
X0274529Y0217985D01*
X0274491Y0218104D01*
X0274458Y0218224D01*
X0274429Y0218346D01*
X0274403Y0218468D01*
X0274381Y0218591D01*
X0274364Y0218715D01*
X0274350Y0218839D01*
X0274340Y0218963D01*
X0274334Y0219088D01*
X0274332Y0219213D01*
X0274332Y0148347D02*
X0274334Y0148472D01*
X0274340Y0148597D01*
X0274350Y0148721D01*
X0274364Y0148845D01*
X0274381Y0148969D01*
X0274403Y0149092D01*
X0274429Y0149214D01*
X0274458Y0149336D01*
X0274491Y0149456D01*
X0274529Y0149575D01*
X0274569Y0149694D01*
X0274614Y0149810D01*
X0274662Y0149925D01*
X0274714Y0150039D01*
X0274770Y0150151D01*
X0274829Y0150261D01*
X0274891Y0150369D01*
X0274957Y0150476D01*
X0275026Y0150580D01*
X0275099Y0150681D01*
X0275174Y0150781D01*
X0275253Y0150878D01*
X0275335Y0150972D01*
X0275420Y0151064D01*
X0275507Y0151153D01*
X0275598Y0151239D01*
X0275691Y0151322D01*
X0275787Y0151403D01*
X0275885Y0151480D01*
X0275985Y0151554D01*
X0276088Y0151625D01*
X0276193Y0151692D01*
X0276301Y0151757D01*
X0276410Y0151817D01*
X0276521Y0151875D01*
X0276634Y0151928D01*
X0276748Y0151978D01*
X0276864Y0152025D01*
X0276981Y0152067D01*
X0277100Y0152106D01*
X0277220Y0152142D01*
X0277341Y0152173D01*
X0277463Y0152201D01*
X0277585Y0152224D01*
X0277709Y0152244D01*
X0277833Y0152260D01*
X0277957Y0152272D01*
X0278082Y0152280D01*
X0278207Y0152284D01*
X0278331Y0152284D01*
X0278456Y0152280D01*
X0278581Y0152272D01*
X0278705Y0152260D01*
X0278829Y0152244D01*
X0278953Y0152224D01*
X0279075Y0152201D01*
X0279197Y0152173D01*
X0279318Y0152142D01*
X0279438Y0152106D01*
X0279557Y0152067D01*
X0279674Y0152025D01*
X0279790Y0151978D01*
X0279904Y0151928D01*
X0280017Y0151875D01*
X0280128Y0151817D01*
X0280238Y0151757D01*
X0280345Y0151692D01*
X0280450Y0151625D01*
X0280553Y0151554D01*
X0280653Y0151480D01*
X0280751Y0151403D01*
X0280847Y0151322D01*
X0280940Y0151239D01*
X0281031Y0151153D01*
X0281118Y0151064D01*
X0281203Y0150972D01*
X0281285Y0150878D01*
X0281364Y0150781D01*
X0281439Y0150681D01*
X0281512Y0150580D01*
X0281581Y0150476D01*
X0281647Y0150369D01*
X0281709Y0150261D01*
X0281768Y0150151D01*
X0281824Y0150039D01*
X0281876Y0149925D01*
X0281924Y0149810D01*
X0281969Y0149694D01*
X0282009Y0149575D01*
X0282047Y0149456D01*
X0282080Y0149336D01*
X0282109Y0149214D01*
X0282135Y0149092D01*
X0282157Y0148969D01*
X0282174Y0148845D01*
X0282188Y0148721D01*
X0282198Y0148597D01*
X0282204Y0148472D01*
X0282206Y0148347D01*
X0282204Y0148222D01*
X0282198Y0148097D01*
X0282188Y0147973D01*
X0282174Y0147849D01*
X0282157Y0147725D01*
X0282135Y0147602D01*
X0282109Y0147480D01*
X0282080Y0147358D01*
X0282047Y0147238D01*
X0282009Y0147119D01*
X0281969Y0147000D01*
X0281924Y0146884D01*
X0281876Y0146769D01*
X0281824Y0146655D01*
X0281768Y0146543D01*
X0281709Y0146433D01*
X0281647Y0146325D01*
X0281581Y0146218D01*
X0281512Y0146114D01*
X0281439Y0146013D01*
X0281364Y0145913D01*
X0281285Y0145816D01*
X0281203Y0145722D01*
X0281118Y0145630D01*
X0281031Y0145541D01*
X0280940Y0145455D01*
X0280847Y0145372D01*
X0280751Y0145291D01*
X0280653Y0145214D01*
X0280553Y0145140D01*
X0280450Y0145069D01*
X0280345Y0145002D01*
X0280237Y0144937D01*
X0280128Y0144877D01*
X0280017Y0144819D01*
X0279904Y0144766D01*
X0279790Y0144716D01*
X0279674Y0144669D01*
X0279557Y0144627D01*
X0279438Y0144588D01*
X0279318Y0144552D01*
X0279197Y0144521D01*
X0279075Y0144493D01*
X0278953Y0144470D01*
X0278829Y0144450D01*
X0278705Y0144434D01*
X0278581Y0144422D01*
X0278456Y0144414D01*
X0278331Y0144410D01*
X0278207Y0144410D01*
X0278082Y0144414D01*
X0277957Y0144422D01*
X0277833Y0144434D01*
X0277709Y0144450D01*
X0277585Y0144470D01*
X0277463Y0144493D01*
X0277341Y0144521D01*
X0277220Y0144552D01*
X0277100Y0144588D01*
X0276981Y0144627D01*
X0276864Y0144669D01*
X0276748Y0144716D01*
X0276634Y0144766D01*
X0276521Y0144819D01*
X0276410Y0144877D01*
X0276300Y0144937D01*
X0276193Y0145002D01*
X0276088Y0145069D01*
X0275985Y0145140D01*
X0275885Y0145214D01*
X0275787Y0145291D01*
X0275691Y0145372D01*
X0275598Y0145455D01*
X0275507Y0145541D01*
X0275420Y0145630D01*
X0275335Y0145722D01*
X0275253Y0145816D01*
X0275174Y0145913D01*
X0275099Y0146013D01*
X0275026Y0146114D01*
X0274957Y0146218D01*
X0274891Y0146325D01*
X0274829Y0146433D01*
X0274770Y0146543D01*
X0274714Y0146655D01*
X0274662Y0146769D01*
X0274614Y0146884D01*
X0274569Y0147000D01*
X0274529Y0147119D01*
X0274491Y0147238D01*
X0274458Y0147358D01*
X0274429Y0147480D01*
X0274403Y0147602D01*
X0274381Y0147725D01*
X0274364Y0147849D01*
X0274350Y0147973D01*
X0274340Y0148097D01*
X0274334Y0148222D01*
X0274332Y0148347D01*
X0225118Y0038111D02*
X0225120Y0038264D01*
X0225126Y0038418D01*
X0225136Y0038571D01*
X0225150Y0038723D01*
X0225168Y0038876D01*
X0225190Y0039027D01*
X0225215Y0039178D01*
X0225245Y0039329D01*
X0225279Y0039479D01*
X0225316Y0039627D01*
X0225357Y0039775D01*
X0225402Y0039921D01*
X0225451Y0040067D01*
X0225504Y0040211D01*
X0225560Y0040353D01*
X0225620Y0040494D01*
X0225684Y0040634D01*
X0225751Y0040772D01*
X0225822Y0040908D01*
X0225897Y0041042D01*
X0225974Y0041174D01*
X0226056Y0041304D01*
X0226140Y0041432D01*
X0226228Y0041558D01*
X0226319Y0041681D01*
X0226413Y0041802D01*
X0226511Y0041920D01*
X0226611Y0042036D01*
X0226715Y0042149D01*
X0226821Y0042260D01*
X0226930Y0042368D01*
X0227042Y0042473D01*
X0227156Y0042574D01*
X0227274Y0042673D01*
X0227393Y0042769D01*
X0227515Y0042862D01*
X0227640Y0042951D01*
X0227767Y0043038D01*
X0227896Y0043120D01*
X0228027Y0043200D01*
X0228160Y0043276D01*
X0228295Y0043349D01*
X0228432Y0043418D01*
X0228571Y0043483D01*
X0228711Y0043545D01*
X0228853Y0043603D01*
X0228996Y0043658D01*
X0229141Y0043709D01*
X0229287Y0043756D01*
X0229434Y0043799D01*
X0229582Y0043838D01*
X0229731Y0043874D01*
X0229881Y0043905D01*
X0230032Y0043933D01*
X0230183Y0043957D01*
X0230336Y0043977D01*
X0230488Y0043993D01*
X0230641Y0044005D01*
X0230794Y0044013D01*
X0230947Y0044017D01*
X0231101Y0044017D01*
X0231254Y0044013D01*
X0231407Y0044005D01*
X0231560Y0043993D01*
X0231712Y0043977D01*
X0231865Y0043957D01*
X0232016Y0043933D01*
X0232167Y0043905D01*
X0232317Y0043874D01*
X0232466Y0043838D01*
X0232614Y0043799D01*
X0232761Y0043756D01*
X0232907Y0043709D01*
X0233052Y0043658D01*
X0233195Y0043603D01*
X0233337Y0043545D01*
X0233477Y0043483D01*
X0233616Y0043418D01*
X0233753Y0043349D01*
X0233888Y0043276D01*
X0234021Y0043200D01*
X0234152Y0043120D01*
X0234281Y0043038D01*
X0234408Y0042951D01*
X0234533Y0042862D01*
X0234655Y0042769D01*
X0234774Y0042673D01*
X0234892Y0042574D01*
X0235006Y0042473D01*
X0235118Y0042368D01*
X0235227Y0042260D01*
X0235333Y0042149D01*
X0235437Y0042036D01*
X0235537Y0041920D01*
X0235635Y0041802D01*
X0235729Y0041681D01*
X0235820Y0041558D01*
X0235908Y0041432D01*
X0235992Y0041304D01*
X0236074Y0041174D01*
X0236151Y0041042D01*
X0236226Y0040908D01*
X0236297Y0040772D01*
X0236364Y0040634D01*
X0236428Y0040494D01*
X0236488Y0040353D01*
X0236544Y0040211D01*
X0236597Y0040067D01*
X0236646Y0039921D01*
X0236691Y0039775D01*
X0236732Y0039627D01*
X0236769Y0039479D01*
X0236803Y0039329D01*
X0236833Y0039178D01*
X0236858Y0039027D01*
X0236880Y0038876D01*
X0236898Y0038723D01*
X0236912Y0038571D01*
X0236922Y0038418D01*
X0236928Y0038264D01*
X0236930Y0038111D01*
X0236928Y0037958D01*
X0236922Y0037804D01*
X0236912Y0037651D01*
X0236898Y0037499D01*
X0236880Y0037346D01*
X0236858Y0037195D01*
X0236833Y0037044D01*
X0236803Y0036893D01*
X0236769Y0036743D01*
X0236732Y0036595D01*
X0236691Y0036447D01*
X0236646Y0036301D01*
X0236597Y0036155D01*
X0236544Y0036011D01*
X0236488Y0035869D01*
X0236428Y0035728D01*
X0236364Y0035588D01*
X0236297Y0035450D01*
X0236226Y0035314D01*
X0236151Y0035180D01*
X0236074Y0035048D01*
X0235992Y0034918D01*
X0235908Y0034790D01*
X0235820Y0034664D01*
X0235729Y0034541D01*
X0235635Y0034420D01*
X0235537Y0034302D01*
X0235437Y0034186D01*
X0235333Y0034073D01*
X0235227Y0033962D01*
X0235118Y0033854D01*
X0235006Y0033749D01*
X0234892Y0033648D01*
X0234774Y0033549D01*
X0234655Y0033453D01*
X0234533Y0033360D01*
X0234408Y0033271D01*
X0234281Y0033184D01*
X0234152Y0033102D01*
X0234021Y0033022D01*
X0233888Y0032946D01*
X0233753Y0032873D01*
X0233616Y0032804D01*
X0233477Y0032739D01*
X0233337Y0032677D01*
X0233195Y0032619D01*
X0233052Y0032564D01*
X0232907Y0032513D01*
X0232761Y0032466D01*
X0232614Y0032423D01*
X0232466Y0032384D01*
X0232317Y0032348D01*
X0232167Y0032317D01*
X0232016Y0032289D01*
X0231865Y0032265D01*
X0231712Y0032245D01*
X0231560Y0032229D01*
X0231407Y0032217D01*
X0231254Y0032209D01*
X0231101Y0032205D01*
X0230947Y0032205D01*
X0230794Y0032209D01*
X0230641Y0032217D01*
X0230488Y0032229D01*
X0230336Y0032245D01*
X0230183Y0032265D01*
X0230032Y0032289D01*
X0229881Y0032317D01*
X0229731Y0032348D01*
X0229582Y0032384D01*
X0229434Y0032423D01*
X0229287Y0032466D01*
X0229141Y0032513D01*
X0228996Y0032564D01*
X0228853Y0032619D01*
X0228711Y0032677D01*
X0228571Y0032739D01*
X0228432Y0032804D01*
X0228295Y0032873D01*
X0228160Y0032946D01*
X0228027Y0033022D01*
X0227896Y0033102D01*
X0227767Y0033184D01*
X0227640Y0033271D01*
X0227515Y0033360D01*
X0227393Y0033453D01*
X0227274Y0033549D01*
X0227156Y0033648D01*
X0227042Y0033749D01*
X0226930Y0033854D01*
X0226821Y0033962D01*
X0226715Y0034073D01*
X0226611Y0034186D01*
X0226511Y0034302D01*
X0226413Y0034420D01*
X0226319Y0034541D01*
X0226228Y0034664D01*
X0226140Y0034790D01*
X0226056Y0034918D01*
X0225974Y0035048D01*
X0225897Y0035180D01*
X0225822Y0035314D01*
X0225751Y0035450D01*
X0225684Y0035588D01*
X0225620Y0035728D01*
X0225560Y0035869D01*
X0225504Y0036011D01*
X0225451Y0036155D01*
X0225402Y0036301D01*
X0225357Y0036447D01*
X0225316Y0036595D01*
X0225279Y0036743D01*
X0225245Y0036893D01*
X0225215Y0037044D01*
X0225190Y0037195D01*
X0225168Y0037346D01*
X0225150Y0037499D01*
X0225136Y0037651D01*
X0225126Y0037804D01*
X0225120Y0037958D01*
X0225118Y0038111D01*
X0130630Y0038111D02*
X0130632Y0038264D01*
X0130638Y0038418D01*
X0130648Y0038571D01*
X0130662Y0038723D01*
X0130680Y0038876D01*
X0130702Y0039027D01*
X0130727Y0039178D01*
X0130757Y0039329D01*
X0130791Y0039479D01*
X0130828Y0039627D01*
X0130869Y0039775D01*
X0130914Y0039921D01*
X0130963Y0040067D01*
X0131016Y0040211D01*
X0131072Y0040353D01*
X0131132Y0040494D01*
X0131196Y0040634D01*
X0131263Y0040772D01*
X0131334Y0040908D01*
X0131409Y0041042D01*
X0131486Y0041174D01*
X0131568Y0041304D01*
X0131652Y0041432D01*
X0131740Y0041558D01*
X0131831Y0041681D01*
X0131925Y0041802D01*
X0132023Y0041920D01*
X0132123Y0042036D01*
X0132227Y0042149D01*
X0132333Y0042260D01*
X0132442Y0042368D01*
X0132554Y0042473D01*
X0132668Y0042574D01*
X0132786Y0042673D01*
X0132905Y0042769D01*
X0133027Y0042862D01*
X0133152Y0042951D01*
X0133279Y0043038D01*
X0133408Y0043120D01*
X0133539Y0043200D01*
X0133672Y0043276D01*
X0133807Y0043349D01*
X0133944Y0043418D01*
X0134083Y0043483D01*
X0134223Y0043545D01*
X0134365Y0043603D01*
X0134508Y0043658D01*
X0134653Y0043709D01*
X0134799Y0043756D01*
X0134946Y0043799D01*
X0135094Y0043838D01*
X0135243Y0043874D01*
X0135393Y0043905D01*
X0135544Y0043933D01*
X0135695Y0043957D01*
X0135848Y0043977D01*
X0136000Y0043993D01*
X0136153Y0044005D01*
X0136306Y0044013D01*
X0136459Y0044017D01*
X0136613Y0044017D01*
X0136766Y0044013D01*
X0136919Y0044005D01*
X0137072Y0043993D01*
X0137224Y0043977D01*
X0137377Y0043957D01*
X0137528Y0043933D01*
X0137679Y0043905D01*
X0137829Y0043874D01*
X0137978Y0043838D01*
X0138126Y0043799D01*
X0138273Y0043756D01*
X0138419Y0043709D01*
X0138564Y0043658D01*
X0138707Y0043603D01*
X0138849Y0043545D01*
X0138989Y0043483D01*
X0139128Y0043418D01*
X0139265Y0043349D01*
X0139400Y0043276D01*
X0139533Y0043200D01*
X0139664Y0043120D01*
X0139793Y0043038D01*
X0139920Y0042951D01*
X0140045Y0042862D01*
X0140167Y0042769D01*
X0140286Y0042673D01*
X0140404Y0042574D01*
X0140518Y0042473D01*
X0140630Y0042368D01*
X0140739Y0042260D01*
X0140845Y0042149D01*
X0140949Y0042036D01*
X0141049Y0041920D01*
X0141147Y0041802D01*
X0141241Y0041681D01*
X0141332Y0041558D01*
X0141420Y0041432D01*
X0141504Y0041304D01*
X0141586Y0041174D01*
X0141663Y0041042D01*
X0141738Y0040908D01*
X0141809Y0040772D01*
X0141876Y0040634D01*
X0141940Y0040494D01*
X0142000Y0040353D01*
X0142056Y0040211D01*
X0142109Y0040067D01*
X0142158Y0039921D01*
X0142203Y0039775D01*
X0142244Y0039627D01*
X0142281Y0039479D01*
X0142315Y0039329D01*
X0142345Y0039178D01*
X0142370Y0039027D01*
X0142392Y0038876D01*
X0142410Y0038723D01*
X0142424Y0038571D01*
X0142434Y0038418D01*
X0142440Y0038264D01*
X0142442Y0038111D01*
X0142440Y0037958D01*
X0142434Y0037804D01*
X0142424Y0037651D01*
X0142410Y0037499D01*
X0142392Y0037346D01*
X0142370Y0037195D01*
X0142345Y0037044D01*
X0142315Y0036893D01*
X0142281Y0036743D01*
X0142244Y0036595D01*
X0142203Y0036447D01*
X0142158Y0036301D01*
X0142109Y0036155D01*
X0142056Y0036011D01*
X0142000Y0035869D01*
X0141940Y0035728D01*
X0141876Y0035588D01*
X0141809Y0035450D01*
X0141738Y0035314D01*
X0141663Y0035180D01*
X0141586Y0035048D01*
X0141504Y0034918D01*
X0141420Y0034790D01*
X0141332Y0034664D01*
X0141241Y0034541D01*
X0141147Y0034420D01*
X0141049Y0034302D01*
X0140949Y0034186D01*
X0140845Y0034073D01*
X0140739Y0033962D01*
X0140630Y0033854D01*
X0140518Y0033749D01*
X0140404Y0033648D01*
X0140286Y0033549D01*
X0140167Y0033453D01*
X0140045Y0033360D01*
X0139920Y0033271D01*
X0139793Y0033184D01*
X0139664Y0033102D01*
X0139533Y0033022D01*
X0139400Y0032946D01*
X0139265Y0032873D01*
X0139128Y0032804D01*
X0138989Y0032739D01*
X0138849Y0032677D01*
X0138707Y0032619D01*
X0138564Y0032564D01*
X0138419Y0032513D01*
X0138273Y0032466D01*
X0138126Y0032423D01*
X0137978Y0032384D01*
X0137829Y0032348D01*
X0137679Y0032317D01*
X0137528Y0032289D01*
X0137377Y0032265D01*
X0137224Y0032245D01*
X0137072Y0032229D01*
X0136919Y0032217D01*
X0136766Y0032209D01*
X0136613Y0032205D01*
X0136459Y0032205D01*
X0136306Y0032209D01*
X0136153Y0032217D01*
X0136000Y0032229D01*
X0135848Y0032245D01*
X0135695Y0032265D01*
X0135544Y0032289D01*
X0135393Y0032317D01*
X0135243Y0032348D01*
X0135094Y0032384D01*
X0134946Y0032423D01*
X0134799Y0032466D01*
X0134653Y0032513D01*
X0134508Y0032564D01*
X0134365Y0032619D01*
X0134223Y0032677D01*
X0134083Y0032739D01*
X0133944Y0032804D01*
X0133807Y0032873D01*
X0133672Y0032946D01*
X0133539Y0033022D01*
X0133408Y0033102D01*
X0133279Y0033184D01*
X0133152Y0033271D01*
X0133027Y0033360D01*
X0132905Y0033453D01*
X0132786Y0033549D01*
X0132668Y0033648D01*
X0132554Y0033749D01*
X0132442Y0033854D01*
X0132333Y0033962D01*
X0132227Y0034073D01*
X0132123Y0034186D01*
X0132023Y0034302D01*
X0131925Y0034420D01*
X0131831Y0034541D01*
X0131740Y0034664D01*
X0131652Y0034790D01*
X0131568Y0034918D01*
X0131486Y0035048D01*
X0131409Y0035180D01*
X0131334Y0035314D01*
X0131263Y0035450D01*
X0131196Y0035588D01*
X0131132Y0035728D01*
X0131072Y0035869D01*
X0131016Y0036011D01*
X0130963Y0036155D01*
X0130914Y0036301D01*
X0130869Y0036447D01*
X0130828Y0036595D01*
X0130791Y0036743D01*
X0130757Y0036893D01*
X0130727Y0037044D01*
X0130702Y0037195D01*
X0130680Y0037346D01*
X0130662Y0037499D01*
X0130648Y0037651D01*
X0130638Y0037804D01*
X0130632Y0037958D01*
X0130630Y0038111D01*
D12*
X0107166Y0056497D03*
X0184331Y0181969D03*
X0261143Y0181497D03*
X0300922Y0181497D03*
X0261702Y0056115D03*
M02*
