G75*
%MOIN*%
%OFA0B0*%
%FSLAX25Y25*%
%IPPOS*%
%LPD*%
%AMOC8*
5,1,8,0,0,1.08239X$1,22.5*
%
%ADD10C,0.00600*%
%ADD11C,0.00000*%
%ADD12C,0.03500*%
%ADD13C,0.00500*%
%ADD14C,0.00300*%
D10*
X0027900Y0149160D02*
X0062546Y0149160D01*
X0062546Y0227900D01*
X0027900Y0227900D01*
X0027900Y0227901D02*
X0028908Y0231811D01*
X0030010Y0235696D01*
X0031208Y0239552D01*
X0032499Y0243378D01*
X0033883Y0247171D01*
X0035359Y0250930D01*
X0036927Y0254651D01*
X0038585Y0258333D01*
X0040332Y0261973D01*
X0042168Y0265570D01*
X0044091Y0269120D01*
X0046100Y0272623D01*
X0048195Y0276076D01*
X0050372Y0279476D01*
X0052632Y0282822D01*
X0054974Y0286112D01*
X0057394Y0289344D01*
X0059893Y0292516D01*
X0062469Y0295626D01*
X0065120Y0298672D01*
X0067844Y0301652D01*
X0070641Y0304565D01*
X0073508Y0307409D01*
X0076443Y0310182D01*
X0079445Y0312882D01*
X0082512Y0315509D01*
X0085642Y0318059D01*
X0088834Y0320533D01*
X0092085Y0322928D01*
X0095394Y0325243D01*
X0098758Y0327476D01*
X0102176Y0329626D01*
X0105645Y0331693D01*
X0109164Y0333674D01*
X0112729Y0335568D01*
X0116341Y0337375D01*
X0119995Y0339094D01*
X0123690Y0340722D01*
X0127423Y0342260D01*
X0131194Y0343706D01*
X0134998Y0345060D01*
X0138834Y0346320D01*
X0142700Y0347487D01*
X0146593Y0348558D01*
X0150511Y0349534D01*
X0154452Y0350415D01*
X0158413Y0351198D01*
X0162393Y0351885D01*
X0166387Y0352475D01*
X0170395Y0352967D01*
X0174414Y0353360D01*
X0178441Y0353656D01*
X0182474Y0353853D01*
X0186511Y0353952D01*
X0190549Y0353952D01*
X0194586Y0353853D01*
X0198619Y0353656D01*
X0202646Y0353360D01*
X0206665Y0352967D01*
X0210673Y0352475D01*
X0214667Y0351885D01*
X0218647Y0351198D01*
X0222608Y0350415D01*
X0226549Y0349534D01*
X0230467Y0348558D01*
X0234360Y0347487D01*
X0238226Y0346320D01*
X0242062Y0345060D01*
X0245866Y0343706D01*
X0249637Y0342260D01*
X0253370Y0340722D01*
X0257065Y0339094D01*
X0260719Y0337375D01*
X0264331Y0335568D01*
X0267896Y0333674D01*
X0271415Y0331693D01*
X0274884Y0329626D01*
X0278302Y0327476D01*
X0281666Y0325243D01*
X0284975Y0322928D01*
X0288226Y0320533D01*
X0291418Y0318059D01*
X0294548Y0315509D01*
X0297615Y0312882D01*
X0300617Y0310182D01*
X0303552Y0307409D01*
X0306419Y0304565D01*
X0309216Y0301652D01*
X0311940Y0298672D01*
X0314591Y0295626D01*
X0317167Y0292516D01*
X0319666Y0289344D01*
X0322086Y0286112D01*
X0324428Y0282822D01*
X0326688Y0279476D01*
X0328865Y0276076D01*
X0330960Y0272623D01*
X0332969Y0269120D01*
X0334892Y0265570D01*
X0336728Y0261973D01*
X0338475Y0258333D01*
X0340133Y0254651D01*
X0341701Y0250930D01*
X0343177Y0247171D01*
X0344561Y0243378D01*
X0345852Y0239552D01*
X0347050Y0235696D01*
X0348152Y0231811D01*
X0349160Y0227901D01*
X0349160Y0227900D02*
X0314515Y0227900D01*
X0314515Y0149160D01*
X0349160Y0149160D01*
X0348152Y0145250D01*
X0347050Y0141365D01*
X0345852Y0137509D01*
X0344561Y0133683D01*
X0343177Y0129890D01*
X0341701Y0126131D01*
X0340133Y0122410D01*
X0338475Y0118728D01*
X0336728Y0115088D01*
X0334892Y0111491D01*
X0332969Y0107941D01*
X0330960Y0104438D01*
X0328865Y0100985D01*
X0326688Y0097585D01*
X0324428Y0094239D01*
X0322086Y0090949D01*
X0319666Y0087717D01*
X0317167Y0084545D01*
X0314591Y0081435D01*
X0311940Y0078389D01*
X0309216Y0075409D01*
X0306419Y0072496D01*
X0303552Y0069652D01*
X0300617Y0066879D01*
X0297615Y0064179D01*
X0294548Y0061552D01*
X0291418Y0059002D01*
X0288226Y0056528D01*
X0284975Y0054133D01*
X0281666Y0051818D01*
X0278302Y0049585D01*
X0274884Y0047435D01*
X0271415Y0045368D01*
X0267896Y0043387D01*
X0264331Y0041493D01*
X0260719Y0039686D01*
X0257065Y0037967D01*
X0253370Y0036339D01*
X0249637Y0034801D01*
X0245866Y0033355D01*
X0242062Y0032001D01*
X0238226Y0030741D01*
X0234360Y0029574D01*
X0230467Y0028503D01*
X0226549Y0027527D01*
X0222608Y0026646D01*
X0218647Y0025863D01*
X0214667Y0025176D01*
X0210673Y0024586D01*
X0206665Y0024094D01*
X0202646Y0023701D01*
X0198619Y0023405D01*
X0194586Y0023208D01*
X0190549Y0023109D01*
X0186511Y0023109D01*
X0182474Y0023208D01*
X0178441Y0023405D01*
X0174414Y0023701D01*
X0170395Y0024094D01*
X0166387Y0024586D01*
X0162393Y0025176D01*
X0158413Y0025863D01*
X0154452Y0026646D01*
X0150511Y0027527D01*
X0146593Y0028503D01*
X0142700Y0029574D01*
X0138834Y0030741D01*
X0134998Y0032001D01*
X0131194Y0033355D01*
X0127423Y0034801D01*
X0123690Y0036339D01*
X0119995Y0037967D01*
X0116341Y0039686D01*
X0112729Y0041493D01*
X0109164Y0043387D01*
X0105645Y0045368D01*
X0102176Y0047435D01*
X0098758Y0049585D01*
X0095394Y0051818D01*
X0092085Y0054133D01*
X0088834Y0056528D01*
X0085642Y0059002D01*
X0082512Y0061552D01*
X0079445Y0064179D01*
X0076443Y0066879D01*
X0073508Y0069652D01*
X0070641Y0072496D01*
X0067844Y0075409D01*
X0065120Y0078389D01*
X0062469Y0081435D01*
X0059893Y0084545D01*
X0057394Y0087717D01*
X0054974Y0090949D01*
X0052632Y0094239D01*
X0050372Y0097585D01*
X0048195Y0100985D01*
X0046100Y0104438D01*
X0044091Y0107941D01*
X0042168Y0111491D01*
X0040332Y0115088D01*
X0038585Y0118728D01*
X0036927Y0122410D01*
X0035359Y0126131D01*
X0033883Y0129890D01*
X0032499Y0133683D01*
X0031208Y0137509D01*
X0030010Y0141365D01*
X0028908Y0145250D01*
X0027900Y0149160D01*
D11*
X0135380Y0042861D02*
X0135382Y0043014D01*
X0135388Y0043168D01*
X0135398Y0043321D01*
X0135412Y0043473D01*
X0135430Y0043626D01*
X0135452Y0043777D01*
X0135477Y0043928D01*
X0135507Y0044079D01*
X0135541Y0044229D01*
X0135578Y0044377D01*
X0135619Y0044525D01*
X0135664Y0044671D01*
X0135713Y0044817D01*
X0135766Y0044961D01*
X0135822Y0045103D01*
X0135882Y0045244D01*
X0135946Y0045384D01*
X0136013Y0045522D01*
X0136084Y0045658D01*
X0136159Y0045792D01*
X0136236Y0045924D01*
X0136318Y0046054D01*
X0136402Y0046182D01*
X0136490Y0046308D01*
X0136581Y0046431D01*
X0136675Y0046552D01*
X0136773Y0046670D01*
X0136873Y0046786D01*
X0136977Y0046899D01*
X0137083Y0047010D01*
X0137192Y0047118D01*
X0137304Y0047223D01*
X0137418Y0047324D01*
X0137536Y0047423D01*
X0137655Y0047519D01*
X0137777Y0047612D01*
X0137902Y0047701D01*
X0138029Y0047788D01*
X0138158Y0047870D01*
X0138289Y0047950D01*
X0138422Y0048026D01*
X0138557Y0048099D01*
X0138694Y0048168D01*
X0138833Y0048233D01*
X0138973Y0048295D01*
X0139115Y0048353D01*
X0139258Y0048408D01*
X0139403Y0048459D01*
X0139549Y0048506D01*
X0139696Y0048549D01*
X0139844Y0048588D01*
X0139993Y0048624D01*
X0140143Y0048655D01*
X0140294Y0048683D01*
X0140445Y0048707D01*
X0140598Y0048727D01*
X0140750Y0048743D01*
X0140903Y0048755D01*
X0141056Y0048763D01*
X0141209Y0048767D01*
X0141363Y0048767D01*
X0141516Y0048763D01*
X0141669Y0048755D01*
X0141822Y0048743D01*
X0141974Y0048727D01*
X0142127Y0048707D01*
X0142278Y0048683D01*
X0142429Y0048655D01*
X0142579Y0048624D01*
X0142728Y0048588D01*
X0142876Y0048549D01*
X0143023Y0048506D01*
X0143169Y0048459D01*
X0143314Y0048408D01*
X0143457Y0048353D01*
X0143599Y0048295D01*
X0143739Y0048233D01*
X0143878Y0048168D01*
X0144015Y0048099D01*
X0144150Y0048026D01*
X0144283Y0047950D01*
X0144414Y0047870D01*
X0144543Y0047788D01*
X0144670Y0047701D01*
X0144795Y0047612D01*
X0144917Y0047519D01*
X0145036Y0047423D01*
X0145154Y0047324D01*
X0145268Y0047223D01*
X0145380Y0047118D01*
X0145489Y0047010D01*
X0145595Y0046899D01*
X0145699Y0046786D01*
X0145799Y0046670D01*
X0145897Y0046552D01*
X0145991Y0046431D01*
X0146082Y0046308D01*
X0146170Y0046182D01*
X0146254Y0046054D01*
X0146336Y0045924D01*
X0146413Y0045792D01*
X0146488Y0045658D01*
X0146559Y0045522D01*
X0146626Y0045384D01*
X0146690Y0045244D01*
X0146750Y0045103D01*
X0146806Y0044961D01*
X0146859Y0044817D01*
X0146908Y0044671D01*
X0146953Y0044525D01*
X0146994Y0044377D01*
X0147031Y0044229D01*
X0147065Y0044079D01*
X0147095Y0043928D01*
X0147120Y0043777D01*
X0147142Y0043626D01*
X0147160Y0043473D01*
X0147174Y0043321D01*
X0147184Y0043168D01*
X0147190Y0043014D01*
X0147192Y0042861D01*
X0147190Y0042708D01*
X0147184Y0042554D01*
X0147174Y0042401D01*
X0147160Y0042249D01*
X0147142Y0042096D01*
X0147120Y0041945D01*
X0147095Y0041794D01*
X0147065Y0041643D01*
X0147031Y0041493D01*
X0146994Y0041345D01*
X0146953Y0041197D01*
X0146908Y0041051D01*
X0146859Y0040905D01*
X0146806Y0040761D01*
X0146750Y0040619D01*
X0146690Y0040478D01*
X0146626Y0040338D01*
X0146559Y0040200D01*
X0146488Y0040064D01*
X0146413Y0039930D01*
X0146336Y0039798D01*
X0146254Y0039668D01*
X0146170Y0039540D01*
X0146082Y0039414D01*
X0145991Y0039291D01*
X0145897Y0039170D01*
X0145799Y0039052D01*
X0145699Y0038936D01*
X0145595Y0038823D01*
X0145489Y0038712D01*
X0145380Y0038604D01*
X0145268Y0038499D01*
X0145154Y0038398D01*
X0145036Y0038299D01*
X0144917Y0038203D01*
X0144795Y0038110D01*
X0144670Y0038021D01*
X0144543Y0037934D01*
X0144414Y0037852D01*
X0144283Y0037772D01*
X0144150Y0037696D01*
X0144015Y0037623D01*
X0143878Y0037554D01*
X0143739Y0037489D01*
X0143599Y0037427D01*
X0143457Y0037369D01*
X0143314Y0037314D01*
X0143169Y0037263D01*
X0143023Y0037216D01*
X0142876Y0037173D01*
X0142728Y0037134D01*
X0142579Y0037098D01*
X0142429Y0037067D01*
X0142278Y0037039D01*
X0142127Y0037015D01*
X0141974Y0036995D01*
X0141822Y0036979D01*
X0141669Y0036967D01*
X0141516Y0036959D01*
X0141363Y0036955D01*
X0141209Y0036955D01*
X0141056Y0036959D01*
X0140903Y0036967D01*
X0140750Y0036979D01*
X0140598Y0036995D01*
X0140445Y0037015D01*
X0140294Y0037039D01*
X0140143Y0037067D01*
X0139993Y0037098D01*
X0139844Y0037134D01*
X0139696Y0037173D01*
X0139549Y0037216D01*
X0139403Y0037263D01*
X0139258Y0037314D01*
X0139115Y0037369D01*
X0138973Y0037427D01*
X0138833Y0037489D01*
X0138694Y0037554D01*
X0138557Y0037623D01*
X0138422Y0037696D01*
X0138289Y0037772D01*
X0138158Y0037852D01*
X0138029Y0037934D01*
X0137902Y0038021D01*
X0137777Y0038110D01*
X0137655Y0038203D01*
X0137536Y0038299D01*
X0137418Y0038398D01*
X0137304Y0038499D01*
X0137192Y0038604D01*
X0137083Y0038712D01*
X0136977Y0038823D01*
X0136873Y0038936D01*
X0136773Y0039052D01*
X0136675Y0039170D01*
X0136581Y0039291D01*
X0136490Y0039414D01*
X0136402Y0039540D01*
X0136318Y0039668D01*
X0136236Y0039798D01*
X0136159Y0039930D01*
X0136084Y0040064D01*
X0136013Y0040200D01*
X0135946Y0040338D01*
X0135882Y0040478D01*
X0135822Y0040619D01*
X0135766Y0040761D01*
X0135713Y0040905D01*
X0135664Y0041051D01*
X0135619Y0041197D01*
X0135578Y0041345D01*
X0135541Y0041493D01*
X0135507Y0041643D01*
X0135477Y0041794D01*
X0135452Y0041945D01*
X0135430Y0042096D01*
X0135412Y0042249D01*
X0135398Y0042401D01*
X0135388Y0042554D01*
X0135382Y0042708D01*
X0135380Y0042861D01*
X0229868Y0042861D02*
X0229870Y0043014D01*
X0229876Y0043168D01*
X0229886Y0043321D01*
X0229900Y0043473D01*
X0229918Y0043626D01*
X0229940Y0043777D01*
X0229965Y0043928D01*
X0229995Y0044079D01*
X0230029Y0044229D01*
X0230066Y0044377D01*
X0230107Y0044525D01*
X0230152Y0044671D01*
X0230201Y0044817D01*
X0230254Y0044961D01*
X0230310Y0045103D01*
X0230370Y0045244D01*
X0230434Y0045384D01*
X0230501Y0045522D01*
X0230572Y0045658D01*
X0230647Y0045792D01*
X0230724Y0045924D01*
X0230806Y0046054D01*
X0230890Y0046182D01*
X0230978Y0046308D01*
X0231069Y0046431D01*
X0231163Y0046552D01*
X0231261Y0046670D01*
X0231361Y0046786D01*
X0231465Y0046899D01*
X0231571Y0047010D01*
X0231680Y0047118D01*
X0231792Y0047223D01*
X0231906Y0047324D01*
X0232024Y0047423D01*
X0232143Y0047519D01*
X0232265Y0047612D01*
X0232390Y0047701D01*
X0232517Y0047788D01*
X0232646Y0047870D01*
X0232777Y0047950D01*
X0232910Y0048026D01*
X0233045Y0048099D01*
X0233182Y0048168D01*
X0233321Y0048233D01*
X0233461Y0048295D01*
X0233603Y0048353D01*
X0233746Y0048408D01*
X0233891Y0048459D01*
X0234037Y0048506D01*
X0234184Y0048549D01*
X0234332Y0048588D01*
X0234481Y0048624D01*
X0234631Y0048655D01*
X0234782Y0048683D01*
X0234933Y0048707D01*
X0235086Y0048727D01*
X0235238Y0048743D01*
X0235391Y0048755D01*
X0235544Y0048763D01*
X0235697Y0048767D01*
X0235851Y0048767D01*
X0236004Y0048763D01*
X0236157Y0048755D01*
X0236310Y0048743D01*
X0236462Y0048727D01*
X0236615Y0048707D01*
X0236766Y0048683D01*
X0236917Y0048655D01*
X0237067Y0048624D01*
X0237216Y0048588D01*
X0237364Y0048549D01*
X0237511Y0048506D01*
X0237657Y0048459D01*
X0237802Y0048408D01*
X0237945Y0048353D01*
X0238087Y0048295D01*
X0238227Y0048233D01*
X0238366Y0048168D01*
X0238503Y0048099D01*
X0238638Y0048026D01*
X0238771Y0047950D01*
X0238902Y0047870D01*
X0239031Y0047788D01*
X0239158Y0047701D01*
X0239283Y0047612D01*
X0239405Y0047519D01*
X0239524Y0047423D01*
X0239642Y0047324D01*
X0239756Y0047223D01*
X0239868Y0047118D01*
X0239977Y0047010D01*
X0240083Y0046899D01*
X0240187Y0046786D01*
X0240287Y0046670D01*
X0240385Y0046552D01*
X0240479Y0046431D01*
X0240570Y0046308D01*
X0240658Y0046182D01*
X0240742Y0046054D01*
X0240824Y0045924D01*
X0240901Y0045792D01*
X0240976Y0045658D01*
X0241047Y0045522D01*
X0241114Y0045384D01*
X0241178Y0045244D01*
X0241238Y0045103D01*
X0241294Y0044961D01*
X0241347Y0044817D01*
X0241396Y0044671D01*
X0241441Y0044525D01*
X0241482Y0044377D01*
X0241519Y0044229D01*
X0241553Y0044079D01*
X0241583Y0043928D01*
X0241608Y0043777D01*
X0241630Y0043626D01*
X0241648Y0043473D01*
X0241662Y0043321D01*
X0241672Y0043168D01*
X0241678Y0043014D01*
X0241680Y0042861D01*
X0241678Y0042708D01*
X0241672Y0042554D01*
X0241662Y0042401D01*
X0241648Y0042249D01*
X0241630Y0042096D01*
X0241608Y0041945D01*
X0241583Y0041794D01*
X0241553Y0041643D01*
X0241519Y0041493D01*
X0241482Y0041345D01*
X0241441Y0041197D01*
X0241396Y0041051D01*
X0241347Y0040905D01*
X0241294Y0040761D01*
X0241238Y0040619D01*
X0241178Y0040478D01*
X0241114Y0040338D01*
X0241047Y0040200D01*
X0240976Y0040064D01*
X0240901Y0039930D01*
X0240824Y0039798D01*
X0240742Y0039668D01*
X0240658Y0039540D01*
X0240570Y0039414D01*
X0240479Y0039291D01*
X0240385Y0039170D01*
X0240287Y0039052D01*
X0240187Y0038936D01*
X0240083Y0038823D01*
X0239977Y0038712D01*
X0239868Y0038604D01*
X0239756Y0038499D01*
X0239642Y0038398D01*
X0239524Y0038299D01*
X0239405Y0038203D01*
X0239283Y0038110D01*
X0239158Y0038021D01*
X0239031Y0037934D01*
X0238902Y0037852D01*
X0238771Y0037772D01*
X0238638Y0037696D01*
X0238503Y0037623D01*
X0238366Y0037554D01*
X0238227Y0037489D01*
X0238087Y0037427D01*
X0237945Y0037369D01*
X0237802Y0037314D01*
X0237657Y0037263D01*
X0237511Y0037216D01*
X0237364Y0037173D01*
X0237216Y0037134D01*
X0237067Y0037098D01*
X0236917Y0037067D01*
X0236766Y0037039D01*
X0236615Y0037015D01*
X0236462Y0036995D01*
X0236310Y0036979D01*
X0236157Y0036967D01*
X0236004Y0036959D01*
X0235851Y0036955D01*
X0235697Y0036955D01*
X0235544Y0036959D01*
X0235391Y0036967D01*
X0235238Y0036979D01*
X0235086Y0036995D01*
X0234933Y0037015D01*
X0234782Y0037039D01*
X0234631Y0037067D01*
X0234481Y0037098D01*
X0234332Y0037134D01*
X0234184Y0037173D01*
X0234037Y0037216D01*
X0233891Y0037263D01*
X0233746Y0037314D01*
X0233603Y0037369D01*
X0233461Y0037427D01*
X0233321Y0037489D01*
X0233182Y0037554D01*
X0233045Y0037623D01*
X0232910Y0037696D01*
X0232777Y0037772D01*
X0232646Y0037852D01*
X0232517Y0037934D01*
X0232390Y0038021D01*
X0232265Y0038110D01*
X0232143Y0038203D01*
X0232024Y0038299D01*
X0231906Y0038398D01*
X0231792Y0038499D01*
X0231680Y0038604D01*
X0231571Y0038712D01*
X0231465Y0038823D01*
X0231361Y0038936D01*
X0231261Y0039052D01*
X0231163Y0039170D01*
X0231069Y0039291D01*
X0230978Y0039414D01*
X0230890Y0039540D01*
X0230806Y0039668D01*
X0230724Y0039798D01*
X0230647Y0039930D01*
X0230572Y0040064D01*
X0230501Y0040200D01*
X0230434Y0040338D01*
X0230370Y0040478D01*
X0230310Y0040619D01*
X0230254Y0040761D01*
X0230201Y0040905D01*
X0230152Y0041051D01*
X0230107Y0041197D01*
X0230066Y0041345D01*
X0230029Y0041493D01*
X0229995Y0041643D01*
X0229965Y0041794D01*
X0229940Y0041945D01*
X0229918Y0042096D01*
X0229900Y0042249D01*
X0229886Y0042401D01*
X0229876Y0042554D01*
X0229870Y0042708D01*
X0229868Y0042861D01*
X0279082Y0153097D02*
X0279084Y0153222D01*
X0279090Y0153347D01*
X0279100Y0153471D01*
X0279114Y0153595D01*
X0279131Y0153719D01*
X0279153Y0153842D01*
X0279179Y0153964D01*
X0279208Y0154086D01*
X0279241Y0154206D01*
X0279279Y0154325D01*
X0279319Y0154444D01*
X0279364Y0154560D01*
X0279412Y0154675D01*
X0279464Y0154789D01*
X0279520Y0154901D01*
X0279579Y0155011D01*
X0279641Y0155119D01*
X0279707Y0155226D01*
X0279776Y0155330D01*
X0279849Y0155431D01*
X0279924Y0155531D01*
X0280003Y0155628D01*
X0280085Y0155722D01*
X0280170Y0155814D01*
X0280257Y0155903D01*
X0280348Y0155989D01*
X0280441Y0156072D01*
X0280537Y0156153D01*
X0280635Y0156230D01*
X0280735Y0156304D01*
X0280838Y0156375D01*
X0280943Y0156442D01*
X0281051Y0156507D01*
X0281160Y0156567D01*
X0281271Y0156625D01*
X0281384Y0156678D01*
X0281498Y0156728D01*
X0281614Y0156775D01*
X0281731Y0156817D01*
X0281850Y0156856D01*
X0281970Y0156892D01*
X0282091Y0156923D01*
X0282213Y0156951D01*
X0282335Y0156974D01*
X0282459Y0156994D01*
X0282583Y0157010D01*
X0282707Y0157022D01*
X0282832Y0157030D01*
X0282957Y0157034D01*
X0283081Y0157034D01*
X0283206Y0157030D01*
X0283331Y0157022D01*
X0283455Y0157010D01*
X0283579Y0156994D01*
X0283703Y0156974D01*
X0283825Y0156951D01*
X0283947Y0156923D01*
X0284068Y0156892D01*
X0284188Y0156856D01*
X0284307Y0156817D01*
X0284424Y0156775D01*
X0284540Y0156728D01*
X0284654Y0156678D01*
X0284767Y0156625D01*
X0284878Y0156567D01*
X0284988Y0156507D01*
X0285095Y0156442D01*
X0285200Y0156375D01*
X0285303Y0156304D01*
X0285403Y0156230D01*
X0285501Y0156153D01*
X0285597Y0156072D01*
X0285690Y0155989D01*
X0285781Y0155903D01*
X0285868Y0155814D01*
X0285953Y0155722D01*
X0286035Y0155628D01*
X0286114Y0155531D01*
X0286189Y0155431D01*
X0286262Y0155330D01*
X0286331Y0155226D01*
X0286397Y0155119D01*
X0286459Y0155011D01*
X0286518Y0154901D01*
X0286574Y0154789D01*
X0286626Y0154675D01*
X0286674Y0154560D01*
X0286719Y0154444D01*
X0286759Y0154325D01*
X0286797Y0154206D01*
X0286830Y0154086D01*
X0286859Y0153964D01*
X0286885Y0153842D01*
X0286907Y0153719D01*
X0286924Y0153595D01*
X0286938Y0153471D01*
X0286948Y0153347D01*
X0286954Y0153222D01*
X0286956Y0153097D01*
X0286954Y0152972D01*
X0286948Y0152847D01*
X0286938Y0152723D01*
X0286924Y0152599D01*
X0286907Y0152475D01*
X0286885Y0152352D01*
X0286859Y0152230D01*
X0286830Y0152108D01*
X0286797Y0151988D01*
X0286759Y0151869D01*
X0286719Y0151750D01*
X0286674Y0151634D01*
X0286626Y0151519D01*
X0286574Y0151405D01*
X0286518Y0151293D01*
X0286459Y0151183D01*
X0286397Y0151075D01*
X0286331Y0150968D01*
X0286262Y0150864D01*
X0286189Y0150763D01*
X0286114Y0150663D01*
X0286035Y0150566D01*
X0285953Y0150472D01*
X0285868Y0150380D01*
X0285781Y0150291D01*
X0285690Y0150205D01*
X0285597Y0150122D01*
X0285501Y0150041D01*
X0285403Y0149964D01*
X0285303Y0149890D01*
X0285200Y0149819D01*
X0285095Y0149752D01*
X0284987Y0149687D01*
X0284878Y0149627D01*
X0284767Y0149569D01*
X0284654Y0149516D01*
X0284540Y0149466D01*
X0284424Y0149419D01*
X0284307Y0149377D01*
X0284188Y0149338D01*
X0284068Y0149302D01*
X0283947Y0149271D01*
X0283825Y0149243D01*
X0283703Y0149220D01*
X0283579Y0149200D01*
X0283455Y0149184D01*
X0283331Y0149172D01*
X0283206Y0149164D01*
X0283081Y0149160D01*
X0282957Y0149160D01*
X0282832Y0149164D01*
X0282707Y0149172D01*
X0282583Y0149184D01*
X0282459Y0149200D01*
X0282335Y0149220D01*
X0282213Y0149243D01*
X0282091Y0149271D01*
X0281970Y0149302D01*
X0281850Y0149338D01*
X0281731Y0149377D01*
X0281614Y0149419D01*
X0281498Y0149466D01*
X0281384Y0149516D01*
X0281271Y0149569D01*
X0281160Y0149627D01*
X0281050Y0149687D01*
X0280943Y0149752D01*
X0280838Y0149819D01*
X0280735Y0149890D01*
X0280635Y0149964D01*
X0280537Y0150041D01*
X0280441Y0150122D01*
X0280348Y0150205D01*
X0280257Y0150291D01*
X0280170Y0150380D01*
X0280085Y0150472D01*
X0280003Y0150566D01*
X0279924Y0150663D01*
X0279849Y0150763D01*
X0279776Y0150864D01*
X0279707Y0150968D01*
X0279641Y0151075D01*
X0279579Y0151183D01*
X0279520Y0151293D01*
X0279464Y0151405D01*
X0279412Y0151519D01*
X0279364Y0151634D01*
X0279319Y0151750D01*
X0279279Y0151869D01*
X0279241Y0151988D01*
X0279208Y0152108D01*
X0279179Y0152230D01*
X0279153Y0152352D01*
X0279131Y0152475D01*
X0279114Y0152599D01*
X0279100Y0152723D01*
X0279090Y0152847D01*
X0279084Y0152972D01*
X0279082Y0153097D01*
X0279082Y0223963D02*
X0279084Y0224088D01*
X0279090Y0224213D01*
X0279100Y0224337D01*
X0279114Y0224461D01*
X0279131Y0224585D01*
X0279153Y0224708D01*
X0279179Y0224830D01*
X0279208Y0224952D01*
X0279241Y0225072D01*
X0279279Y0225191D01*
X0279319Y0225310D01*
X0279364Y0225426D01*
X0279412Y0225541D01*
X0279464Y0225655D01*
X0279520Y0225767D01*
X0279579Y0225877D01*
X0279641Y0225985D01*
X0279707Y0226092D01*
X0279776Y0226196D01*
X0279849Y0226297D01*
X0279924Y0226397D01*
X0280003Y0226494D01*
X0280085Y0226588D01*
X0280170Y0226680D01*
X0280257Y0226769D01*
X0280348Y0226855D01*
X0280441Y0226938D01*
X0280537Y0227019D01*
X0280635Y0227096D01*
X0280735Y0227170D01*
X0280838Y0227241D01*
X0280943Y0227308D01*
X0281051Y0227373D01*
X0281160Y0227433D01*
X0281271Y0227491D01*
X0281384Y0227544D01*
X0281498Y0227594D01*
X0281614Y0227641D01*
X0281731Y0227683D01*
X0281850Y0227722D01*
X0281970Y0227758D01*
X0282091Y0227789D01*
X0282213Y0227817D01*
X0282335Y0227840D01*
X0282459Y0227860D01*
X0282583Y0227876D01*
X0282707Y0227888D01*
X0282832Y0227896D01*
X0282957Y0227900D01*
X0283081Y0227900D01*
X0283206Y0227896D01*
X0283331Y0227888D01*
X0283455Y0227876D01*
X0283579Y0227860D01*
X0283703Y0227840D01*
X0283825Y0227817D01*
X0283947Y0227789D01*
X0284068Y0227758D01*
X0284188Y0227722D01*
X0284307Y0227683D01*
X0284424Y0227641D01*
X0284540Y0227594D01*
X0284654Y0227544D01*
X0284767Y0227491D01*
X0284878Y0227433D01*
X0284988Y0227373D01*
X0285095Y0227308D01*
X0285200Y0227241D01*
X0285303Y0227170D01*
X0285403Y0227096D01*
X0285501Y0227019D01*
X0285597Y0226938D01*
X0285690Y0226855D01*
X0285781Y0226769D01*
X0285868Y0226680D01*
X0285953Y0226588D01*
X0286035Y0226494D01*
X0286114Y0226397D01*
X0286189Y0226297D01*
X0286262Y0226196D01*
X0286331Y0226092D01*
X0286397Y0225985D01*
X0286459Y0225877D01*
X0286518Y0225767D01*
X0286574Y0225655D01*
X0286626Y0225541D01*
X0286674Y0225426D01*
X0286719Y0225310D01*
X0286759Y0225191D01*
X0286797Y0225072D01*
X0286830Y0224952D01*
X0286859Y0224830D01*
X0286885Y0224708D01*
X0286907Y0224585D01*
X0286924Y0224461D01*
X0286938Y0224337D01*
X0286948Y0224213D01*
X0286954Y0224088D01*
X0286956Y0223963D01*
X0286954Y0223838D01*
X0286948Y0223713D01*
X0286938Y0223589D01*
X0286924Y0223465D01*
X0286907Y0223341D01*
X0286885Y0223218D01*
X0286859Y0223096D01*
X0286830Y0222974D01*
X0286797Y0222854D01*
X0286759Y0222735D01*
X0286719Y0222616D01*
X0286674Y0222500D01*
X0286626Y0222385D01*
X0286574Y0222271D01*
X0286518Y0222159D01*
X0286459Y0222049D01*
X0286397Y0221941D01*
X0286331Y0221834D01*
X0286262Y0221730D01*
X0286189Y0221629D01*
X0286114Y0221529D01*
X0286035Y0221432D01*
X0285953Y0221338D01*
X0285868Y0221246D01*
X0285781Y0221157D01*
X0285690Y0221071D01*
X0285597Y0220988D01*
X0285501Y0220907D01*
X0285403Y0220830D01*
X0285303Y0220756D01*
X0285200Y0220685D01*
X0285095Y0220618D01*
X0284987Y0220553D01*
X0284878Y0220493D01*
X0284767Y0220435D01*
X0284654Y0220382D01*
X0284540Y0220332D01*
X0284424Y0220285D01*
X0284307Y0220243D01*
X0284188Y0220204D01*
X0284068Y0220168D01*
X0283947Y0220137D01*
X0283825Y0220109D01*
X0283703Y0220086D01*
X0283579Y0220066D01*
X0283455Y0220050D01*
X0283331Y0220038D01*
X0283206Y0220030D01*
X0283081Y0220026D01*
X0282957Y0220026D01*
X0282832Y0220030D01*
X0282707Y0220038D01*
X0282583Y0220050D01*
X0282459Y0220066D01*
X0282335Y0220086D01*
X0282213Y0220109D01*
X0282091Y0220137D01*
X0281970Y0220168D01*
X0281850Y0220204D01*
X0281731Y0220243D01*
X0281614Y0220285D01*
X0281498Y0220332D01*
X0281384Y0220382D01*
X0281271Y0220435D01*
X0281160Y0220493D01*
X0281050Y0220553D01*
X0280943Y0220618D01*
X0280838Y0220685D01*
X0280735Y0220756D01*
X0280635Y0220830D01*
X0280537Y0220907D01*
X0280441Y0220988D01*
X0280348Y0221071D01*
X0280257Y0221157D01*
X0280170Y0221246D01*
X0280085Y0221338D01*
X0280003Y0221432D01*
X0279924Y0221529D01*
X0279849Y0221629D01*
X0279776Y0221730D01*
X0279707Y0221834D01*
X0279641Y0221941D01*
X0279579Y0222049D01*
X0279520Y0222159D01*
X0279464Y0222271D01*
X0279412Y0222385D01*
X0279364Y0222500D01*
X0279319Y0222616D01*
X0279279Y0222735D01*
X0279241Y0222854D01*
X0279208Y0222974D01*
X0279179Y0223096D01*
X0279153Y0223218D01*
X0279131Y0223341D01*
X0279114Y0223465D01*
X0279100Y0223589D01*
X0279090Y0223713D01*
X0279084Y0223838D01*
X0279082Y0223963D01*
X0229868Y0334200D02*
X0229870Y0334353D01*
X0229876Y0334507D01*
X0229886Y0334660D01*
X0229900Y0334812D01*
X0229918Y0334965D01*
X0229940Y0335116D01*
X0229965Y0335267D01*
X0229995Y0335418D01*
X0230029Y0335568D01*
X0230066Y0335716D01*
X0230107Y0335864D01*
X0230152Y0336010D01*
X0230201Y0336156D01*
X0230254Y0336300D01*
X0230310Y0336442D01*
X0230370Y0336583D01*
X0230434Y0336723D01*
X0230501Y0336861D01*
X0230572Y0336997D01*
X0230647Y0337131D01*
X0230724Y0337263D01*
X0230806Y0337393D01*
X0230890Y0337521D01*
X0230978Y0337647D01*
X0231069Y0337770D01*
X0231163Y0337891D01*
X0231261Y0338009D01*
X0231361Y0338125D01*
X0231465Y0338238D01*
X0231571Y0338349D01*
X0231680Y0338457D01*
X0231792Y0338562D01*
X0231906Y0338663D01*
X0232024Y0338762D01*
X0232143Y0338858D01*
X0232265Y0338951D01*
X0232390Y0339040D01*
X0232517Y0339127D01*
X0232646Y0339209D01*
X0232777Y0339289D01*
X0232910Y0339365D01*
X0233045Y0339438D01*
X0233182Y0339507D01*
X0233321Y0339572D01*
X0233461Y0339634D01*
X0233603Y0339692D01*
X0233746Y0339747D01*
X0233891Y0339798D01*
X0234037Y0339845D01*
X0234184Y0339888D01*
X0234332Y0339927D01*
X0234481Y0339963D01*
X0234631Y0339994D01*
X0234782Y0340022D01*
X0234933Y0340046D01*
X0235086Y0340066D01*
X0235238Y0340082D01*
X0235391Y0340094D01*
X0235544Y0340102D01*
X0235697Y0340106D01*
X0235851Y0340106D01*
X0236004Y0340102D01*
X0236157Y0340094D01*
X0236310Y0340082D01*
X0236462Y0340066D01*
X0236615Y0340046D01*
X0236766Y0340022D01*
X0236917Y0339994D01*
X0237067Y0339963D01*
X0237216Y0339927D01*
X0237364Y0339888D01*
X0237511Y0339845D01*
X0237657Y0339798D01*
X0237802Y0339747D01*
X0237945Y0339692D01*
X0238087Y0339634D01*
X0238227Y0339572D01*
X0238366Y0339507D01*
X0238503Y0339438D01*
X0238638Y0339365D01*
X0238771Y0339289D01*
X0238902Y0339209D01*
X0239031Y0339127D01*
X0239158Y0339040D01*
X0239283Y0338951D01*
X0239405Y0338858D01*
X0239524Y0338762D01*
X0239642Y0338663D01*
X0239756Y0338562D01*
X0239868Y0338457D01*
X0239977Y0338349D01*
X0240083Y0338238D01*
X0240187Y0338125D01*
X0240287Y0338009D01*
X0240385Y0337891D01*
X0240479Y0337770D01*
X0240570Y0337647D01*
X0240658Y0337521D01*
X0240742Y0337393D01*
X0240824Y0337263D01*
X0240901Y0337131D01*
X0240976Y0336997D01*
X0241047Y0336861D01*
X0241114Y0336723D01*
X0241178Y0336583D01*
X0241238Y0336442D01*
X0241294Y0336300D01*
X0241347Y0336156D01*
X0241396Y0336010D01*
X0241441Y0335864D01*
X0241482Y0335716D01*
X0241519Y0335568D01*
X0241553Y0335418D01*
X0241583Y0335267D01*
X0241608Y0335116D01*
X0241630Y0334965D01*
X0241648Y0334812D01*
X0241662Y0334660D01*
X0241672Y0334507D01*
X0241678Y0334353D01*
X0241680Y0334200D01*
X0241678Y0334047D01*
X0241672Y0333893D01*
X0241662Y0333740D01*
X0241648Y0333588D01*
X0241630Y0333435D01*
X0241608Y0333284D01*
X0241583Y0333133D01*
X0241553Y0332982D01*
X0241519Y0332832D01*
X0241482Y0332684D01*
X0241441Y0332536D01*
X0241396Y0332390D01*
X0241347Y0332244D01*
X0241294Y0332100D01*
X0241238Y0331958D01*
X0241178Y0331817D01*
X0241114Y0331677D01*
X0241047Y0331539D01*
X0240976Y0331403D01*
X0240901Y0331269D01*
X0240824Y0331137D01*
X0240742Y0331007D01*
X0240658Y0330879D01*
X0240570Y0330753D01*
X0240479Y0330630D01*
X0240385Y0330509D01*
X0240287Y0330391D01*
X0240187Y0330275D01*
X0240083Y0330162D01*
X0239977Y0330051D01*
X0239868Y0329943D01*
X0239756Y0329838D01*
X0239642Y0329737D01*
X0239524Y0329638D01*
X0239405Y0329542D01*
X0239283Y0329449D01*
X0239158Y0329360D01*
X0239031Y0329273D01*
X0238902Y0329191D01*
X0238771Y0329111D01*
X0238638Y0329035D01*
X0238503Y0328962D01*
X0238366Y0328893D01*
X0238227Y0328828D01*
X0238087Y0328766D01*
X0237945Y0328708D01*
X0237802Y0328653D01*
X0237657Y0328602D01*
X0237511Y0328555D01*
X0237364Y0328512D01*
X0237216Y0328473D01*
X0237067Y0328437D01*
X0236917Y0328406D01*
X0236766Y0328378D01*
X0236615Y0328354D01*
X0236462Y0328334D01*
X0236310Y0328318D01*
X0236157Y0328306D01*
X0236004Y0328298D01*
X0235851Y0328294D01*
X0235697Y0328294D01*
X0235544Y0328298D01*
X0235391Y0328306D01*
X0235238Y0328318D01*
X0235086Y0328334D01*
X0234933Y0328354D01*
X0234782Y0328378D01*
X0234631Y0328406D01*
X0234481Y0328437D01*
X0234332Y0328473D01*
X0234184Y0328512D01*
X0234037Y0328555D01*
X0233891Y0328602D01*
X0233746Y0328653D01*
X0233603Y0328708D01*
X0233461Y0328766D01*
X0233321Y0328828D01*
X0233182Y0328893D01*
X0233045Y0328962D01*
X0232910Y0329035D01*
X0232777Y0329111D01*
X0232646Y0329191D01*
X0232517Y0329273D01*
X0232390Y0329360D01*
X0232265Y0329449D01*
X0232143Y0329542D01*
X0232024Y0329638D01*
X0231906Y0329737D01*
X0231792Y0329838D01*
X0231680Y0329943D01*
X0231571Y0330051D01*
X0231465Y0330162D01*
X0231361Y0330275D01*
X0231261Y0330391D01*
X0231163Y0330509D01*
X0231069Y0330630D01*
X0230978Y0330753D01*
X0230890Y0330879D01*
X0230806Y0331007D01*
X0230724Y0331137D01*
X0230647Y0331269D01*
X0230572Y0331403D01*
X0230501Y0331539D01*
X0230434Y0331677D01*
X0230370Y0331817D01*
X0230310Y0331958D01*
X0230254Y0332100D01*
X0230201Y0332244D01*
X0230152Y0332390D01*
X0230107Y0332536D01*
X0230066Y0332684D01*
X0230029Y0332832D01*
X0229995Y0332982D01*
X0229965Y0333133D01*
X0229940Y0333284D01*
X0229918Y0333435D01*
X0229900Y0333588D01*
X0229886Y0333740D01*
X0229876Y0333893D01*
X0229870Y0334047D01*
X0229868Y0334200D01*
X0135380Y0334200D02*
X0135382Y0334353D01*
X0135388Y0334507D01*
X0135398Y0334660D01*
X0135412Y0334812D01*
X0135430Y0334965D01*
X0135452Y0335116D01*
X0135477Y0335267D01*
X0135507Y0335418D01*
X0135541Y0335568D01*
X0135578Y0335716D01*
X0135619Y0335864D01*
X0135664Y0336010D01*
X0135713Y0336156D01*
X0135766Y0336300D01*
X0135822Y0336442D01*
X0135882Y0336583D01*
X0135946Y0336723D01*
X0136013Y0336861D01*
X0136084Y0336997D01*
X0136159Y0337131D01*
X0136236Y0337263D01*
X0136318Y0337393D01*
X0136402Y0337521D01*
X0136490Y0337647D01*
X0136581Y0337770D01*
X0136675Y0337891D01*
X0136773Y0338009D01*
X0136873Y0338125D01*
X0136977Y0338238D01*
X0137083Y0338349D01*
X0137192Y0338457D01*
X0137304Y0338562D01*
X0137418Y0338663D01*
X0137536Y0338762D01*
X0137655Y0338858D01*
X0137777Y0338951D01*
X0137902Y0339040D01*
X0138029Y0339127D01*
X0138158Y0339209D01*
X0138289Y0339289D01*
X0138422Y0339365D01*
X0138557Y0339438D01*
X0138694Y0339507D01*
X0138833Y0339572D01*
X0138973Y0339634D01*
X0139115Y0339692D01*
X0139258Y0339747D01*
X0139403Y0339798D01*
X0139549Y0339845D01*
X0139696Y0339888D01*
X0139844Y0339927D01*
X0139993Y0339963D01*
X0140143Y0339994D01*
X0140294Y0340022D01*
X0140445Y0340046D01*
X0140598Y0340066D01*
X0140750Y0340082D01*
X0140903Y0340094D01*
X0141056Y0340102D01*
X0141209Y0340106D01*
X0141363Y0340106D01*
X0141516Y0340102D01*
X0141669Y0340094D01*
X0141822Y0340082D01*
X0141974Y0340066D01*
X0142127Y0340046D01*
X0142278Y0340022D01*
X0142429Y0339994D01*
X0142579Y0339963D01*
X0142728Y0339927D01*
X0142876Y0339888D01*
X0143023Y0339845D01*
X0143169Y0339798D01*
X0143314Y0339747D01*
X0143457Y0339692D01*
X0143599Y0339634D01*
X0143739Y0339572D01*
X0143878Y0339507D01*
X0144015Y0339438D01*
X0144150Y0339365D01*
X0144283Y0339289D01*
X0144414Y0339209D01*
X0144543Y0339127D01*
X0144670Y0339040D01*
X0144795Y0338951D01*
X0144917Y0338858D01*
X0145036Y0338762D01*
X0145154Y0338663D01*
X0145268Y0338562D01*
X0145380Y0338457D01*
X0145489Y0338349D01*
X0145595Y0338238D01*
X0145699Y0338125D01*
X0145799Y0338009D01*
X0145897Y0337891D01*
X0145991Y0337770D01*
X0146082Y0337647D01*
X0146170Y0337521D01*
X0146254Y0337393D01*
X0146336Y0337263D01*
X0146413Y0337131D01*
X0146488Y0336997D01*
X0146559Y0336861D01*
X0146626Y0336723D01*
X0146690Y0336583D01*
X0146750Y0336442D01*
X0146806Y0336300D01*
X0146859Y0336156D01*
X0146908Y0336010D01*
X0146953Y0335864D01*
X0146994Y0335716D01*
X0147031Y0335568D01*
X0147065Y0335418D01*
X0147095Y0335267D01*
X0147120Y0335116D01*
X0147142Y0334965D01*
X0147160Y0334812D01*
X0147174Y0334660D01*
X0147184Y0334507D01*
X0147190Y0334353D01*
X0147192Y0334200D01*
X0147190Y0334047D01*
X0147184Y0333893D01*
X0147174Y0333740D01*
X0147160Y0333588D01*
X0147142Y0333435D01*
X0147120Y0333284D01*
X0147095Y0333133D01*
X0147065Y0332982D01*
X0147031Y0332832D01*
X0146994Y0332684D01*
X0146953Y0332536D01*
X0146908Y0332390D01*
X0146859Y0332244D01*
X0146806Y0332100D01*
X0146750Y0331958D01*
X0146690Y0331817D01*
X0146626Y0331677D01*
X0146559Y0331539D01*
X0146488Y0331403D01*
X0146413Y0331269D01*
X0146336Y0331137D01*
X0146254Y0331007D01*
X0146170Y0330879D01*
X0146082Y0330753D01*
X0145991Y0330630D01*
X0145897Y0330509D01*
X0145799Y0330391D01*
X0145699Y0330275D01*
X0145595Y0330162D01*
X0145489Y0330051D01*
X0145380Y0329943D01*
X0145268Y0329838D01*
X0145154Y0329737D01*
X0145036Y0329638D01*
X0144917Y0329542D01*
X0144795Y0329449D01*
X0144670Y0329360D01*
X0144543Y0329273D01*
X0144414Y0329191D01*
X0144283Y0329111D01*
X0144150Y0329035D01*
X0144015Y0328962D01*
X0143878Y0328893D01*
X0143739Y0328828D01*
X0143599Y0328766D01*
X0143457Y0328708D01*
X0143314Y0328653D01*
X0143169Y0328602D01*
X0143023Y0328555D01*
X0142876Y0328512D01*
X0142728Y0328473D01*
X0142579Y0328437D01*
X0142429Y0328406D01*
X0142278Y0328378D01*
X0142127Y0328354D01*
X0141974Y0328334D01*
X0141822Y0328318D01*
X0141669Y0328306D01*
X0141516Y0328298D01*
X0141363Y0328294D01*
X0141209Y0328294D01*
X0141056Y0328298D01*
X0140903Y0328306D01*
X0140750Y0328318D01*
X0140598Y0328334D01*
X0140445Y0328354D01*
X0140294Y0328378D01*
X0140143Y0328406D01*
X0139993Y0328437D01*
X0139844Y0328473D01*
X0139696Y0328512D01*
X0139549Y0328555D01*
X0139403Y0328602D01*
X0139258Y0328653D01*
X0139115Y0328708D01*
X0138973Y0328766D01*
X0138833Y0328828D01*
X0138694Y0328893D01*
X0138557Y0328962D01*
X0138422Y0329035D01*
X0138289Y0329111D01*
X0138158Y0329191D01*
X0138029Y0329273D01*
X0137902Y0329360D01*
X0137777Y0329449D01*
X0137655Y0329542D01*
X0137536Y0329638D01*
X0137418Y0329737D01*
X0137304Y0329838D01*
X0137192Y0329943D01*
X0137083Y0330051D01*
X0136977Y0330162D01*
X0136873Y0330275D01*
X0136773Y0330391D01*
X0136675Y0330509D01*
X0136581Y0330630D01*
X0136490Y0330753D01*
X0136402Y0330879D01*
X0136318Y0331007D01*
X0136236Y0331137D01*
X0136159Y0331269D01*
X0136084Y0331403D01*
X0136013Y0331539D01*
X0135946Y0331677D01*
X0135882Y0331817D01*
X0135822Y0331958D01*
X0135766Y0332100D01*
X0135713Y0332244D01*
X0135664Y0332390D01*
X0135619Y0332536D01*
X0135578Y0332684D01*
X0135541Y0332832D01*
X0135507Y0332982D01*
X0135477Y0333133D01*
X0135452Y0333284D01*
X0135430Y0333435D01*
X0135412Y0333588D01*
X0135398Y0333740D01*
X0135388Y0333893D01*
X0135382Y0334047D01*
X0135380Y0334200D01*
X0090105Y0223963D02*
X0090107Y0224088D01*
X0090113Y0224213D01*
X0090123Y0224337D01*
X0090137Y0224461D01*
X0090154Y0224585D01*
X0090176Y0224708D01*
X0090202Y0224830D01*
X0090231Y0224952D01*
X0090264Y0225072D01*
X0090302Y0225191D01*
X0090342Y0225310D01*
X0090387Y0225426D01*
X0090435Y0225541D01*
X0090487Y0225655D01*
X0090543Y0225767D01*
X0090602Y0225877D01*
X0090664Y0225985D01*
X0090730Y0226092D01*
X0090799Y0226196D01*
X0090872Y0226297D01*
X0090947Y0226397D01*
X0091026Y0226494D01*
X0091108Y0226588D01*
X0091193Y0226680D01*
X0091280Y0226769D01*
X0091371Y0226855D01*
X0091464Y0226938D01*
X0091560Y0227019D01*
X0091658Y0227096D01*
X0091758Y0227170D01*
X0091861Y0227241D01*
X0091966Y0227308D01*
X0092074Y0227373D01*
X0092183Y0227433D01*
X0092294Y0227491D01*
X0092407Y0227544D01*
X0092521Y0227594D01*
X0092637Y0227641D01*
X0092754Y0227683D01*
X0092873Y0227722D01*
X0092993Y0227758D01*
X0093114Y0227789D01*
X0093236Y0227817D01*
X0093358Y0227840D01*
X0093482Y0227860D01*
X0093606Y0227876D01*
X0093730Y0227888D01*
X0093855Y0227896D01*
X0093980Y0227900D01*
X0094104Y0227900D01*
X0094229Y0227896D01*
X0094354Y0227888D01*
X0094478Y0227876D01*
X0094602Y0227860D01*
X0094726Y0227840D01*
X0094848Y0227817D01*
X0094970Y0227789D01*
X0095091Y0227758D01*
X0095211Y0227722D01*
X0095330Y0227683D01*
X0095447Y0227641D01*
X0095563Y0227594D01*
X0095677Y0227544D01*
X0095790Y0227491D01*
X0095901Y0227433D01*
X0096011Y0227373D01*
X0096118Y0227308D01*
X0096223Y0227241D01*
X0096326Y0227170D01*
X0096426Y0227096D01*
X0096524Y0227019D01*
X0096620Y0226938D01*
X0096713Y0226855D01*
X0096804Y0226769D01*
X0096891Y0226680D01*
X0096976Y0226588D01*
X0097058Y0226494D01*
X0097137Y0226397D01*
X0097212Y0226297D01*
X0097285Y0226196D01*
X0097354Y0226092D01*
X0097420Y0225985D01*
X0097482Y0225877D01*
X0097541Y0225767D01*
X0097597Y0225655D01*
X0097649Y0225541D01*
X0097697Y0225426D01*
X0097742Y0225310D01*
X0097782Y0225191D01*
X0097820Y0225072D01*
X0097853Y0224952D01*
X0097882Y0224830D01*
X0097908Y0224708D01*
X0097930Y0224585D01*
X0097947Y0224461D01*
X0097961Y0224337D01*
X0097971Y0224213D01*
X0097977Y0224088D01*
X0097979Y0223963D01*
X0097977Y0223838D01*
X0097971Y0223713D01*
X0097961Y0223589D01*
X0097947Y0223465D01*
X0097930Y0223341D01*
X0097908Y0223218D01*
X0097882Y0223096D01*
X0097853Y0222974D01*
X0097820Y0222854D01*
X0097782Y0222735D01*
X0097742Y0222616D01*
X0097697Y0222500D01*
X0097649Y0222385D01*
X0097597Y0222271D01*
X0097541Y0222159D01*
X0097482Y0222049D01*
X0097420Y0221941D01*
X0097354Y0221834D01*
X0097285Y0221730D01*
X0097212Y0221629D01*
X0097137Y0221529D01*
X0097058Y0221432D01*
X0096976Y0221338D01*
X0096891Y0221246D01*
X0096804Y0221157D01*
X0096713Y0221071D01*
X0096620Y0220988D01*
X0096524Y0220907D01*
X0096426Y0220830D01*
X0096326Y0220756D01*
X0096223Y0220685D01*
X0096118Y0220618D01*
X0096010Y0220553D01*
X0095901Y0220493D01*
X0095790Y0220435D01*
X0095677Y0220382D01*
X0095563Y0220332D01*
X0095447Y0220285D01*
X0095330Y0220243D01*
X0095211Y0220204D01*
X0095091Y0220168D01*
X0094970Y0220137D01*
X0094848Y0220109D01*
X0094726Y0220086D01*
X0094602Y0220066D01*
X0094478Y0220050D01*
X0094354Y0220038D01*
X0094229Y0220030D01*
X0094104Y0220026D01*
X0093980Y0220026D01*
X0093855Y0220030D01*
X0093730Y0220038D01*
X0093606Y0220050D01*
X0093482Y0220066D01*
X0093358Y0220086D01*
X0093236Y0220109D01*
X0093114Y0220137D01*
X0092993Y0220168D01*
X0092873Y0220204D01*
X0092754Y0220243D01*
X0092637Y0220285D01*
X0092521Y0220332D01*
X0092407Y0220382D01*
X0092294Y0220435D01*
X0092183Y0220493D01*
X0092073Y0220553D01*
X0091966Y0220618D01*
X0091861Y0220685D01*
X0091758Y0220756D01*
X0091658Y0220830D01*
X0091560Y0220907D01*
X0091464Y0220988D01*
X0091371Y0221071D01*
X0091280Y0221157D01*
X0091193Y0221246D01*
X0091108Y0221338D01*
X0091026Y0221432D01*
X0090947Y0221529D01*
X0090872Y0221629D01*
X0090799Y0221730D01*
X0090730Y0221834D01*
X0090664Y0221941D01*
X0090602Y0222049D01*
X0090543Y0222159D01*
X0090487Y0222271D01*
X0090435Y0222385D01*
X0090387Y0222500D01*
X0090342Y0222616D01*
X0090302Y0222735D01*
X0090264Y0222854D01*
X0090231Y0222974D01*
X0090202Y0223096D01*
X0090176Y0223218D01*
X0090154Y0223341D01*
X0090137Y0223465D01*
X0090123Y0223589D01*
X0090113Y0223713D01*
X0090107Y0223838D01*
X0090105Y0223963D01*
X0090105Y0153097D02*
X0090107Y0153222D01*
X0090113Y0153347D01*
X0090123Y0153471D01*
X0090137Y0153595D01*
X0090154Y0153719D01*
X0090176Y0153842D01*
X0090202Y0153964D01*
X0090231Y0154086D01*
X0090264Y0154206D01*
X0090302Y0154325D01*
X0090342Y0154444D01*
X0090387Y0154560D01*
X0090435Y0154675D01*
X0090487Y0154789D01*
X0090543Y0154901D01*
X0090602Y0155011D01*
X0090664Y0155119D01*
X0090730Y0155226D01*
X0090799Y0155330D01*
X0090872Y0155431D01*
X0090947Y0155531D01*
X0091026Y0155628D01*
X0091108Y0155722D01*
X0091193Y0155814D01*
X0091280Y0155903D01*
X0091371Y0155989D01*
X0091464Y0156072D01*
X0091560Y0156153D01*
X0091658Y0156230D01*
X0091758Y0156304D01*
X0091861Y0156375D01*
X0091966Y0156442D01*
X0092074Y0156507D01*
X0092183Y0156567D01*
X0092294Y0156625D01*
X0092407Y0156678D01*
X0092521Y0156728D01*
X0092637Y0156775D01*
X0092754Y0156817D01*
X0092873Y0156856D01*
X0092993Y0156892D01*
X0093114Y0156923D01*
X0093236Y0156951D01*
X0093358Y0156974D01*
X0093482Y0156994D01*
X0093606Y0157010D01*
X0093730Y0157022D01*
X0093855Y0157030D01*
X0093980Y0157034D01*
X0094104Y0157034D01*
X0094229Y0157030D01*
X0094354Y0157022D01*
X0094478Y0157010D01*
X0094602Y0156994D01*
X0094726Y0156974D01*
X0094848Y0156951D01*
X0094970Y0156923D01*
X0095091Y0156892D01*
X0095211Y0156856D01*
X0095330Y0156817D01*
X0095447Y0156775D01*
X0095563Y0156728D01*
X0095677Y0156678D01*
X0095790Y0156625D01*
X0095901Y0156567D01*
X0096011Y0156507D01*
X0096118Y0156442D01*
X0096223Y0156375D01*
X0096326Y0156304D01*
X0096426Y0156230D01*
X0096524Y0156153D01*
X0096620Y0156072D01*
X0096713Y0155989D01*
X0096804Y0155903D01*
X0096891Y0155814D01*
X0096976Y0155722D01*
X0097058Y0155628D01*
X0097137Y0155531D01*
X0097212Y0155431D01*
X0097285Y0155330D01*
X0097354Y0155226D01*
X0097420Y0155119D01*
X0097482Y0155011D01*
X0097541Y0154901D01*
X0097597Y0154789D01*
X0097649Y0154675D01*
X0097697Y0154560D01*
X0097742Y0154444D01*
X0097782Y0154325D01*
X0097820Y0154206D01*
X0097853Y0154086D01*
X0097882Y0153964D01*
X0097908Y0153842D01*
X0097930Y0153719D01*
X0097947Y0153595D01*
X0097961Y0153471D01*
X0097971Y0153347D01*
X0097977Y0153222D01*
X0097979Y0153097D01*
X0097977Y0152972D01*
X0097971Y0152847D01*
X0097961Y0152723D01*
X0097947Y0152599D01*
X0097930Y0152475D01*
X0097908Y0152352D01*
X0097882Y0152230D01*
X0097853Y0152108D01*
X0097820Y0151988D01*
X0097782Y0151869D01*
X0097742Y0151750D01*
X0097697Y0151634D01*
X0097649Y0151519D01*
X0097597Y0151405D01*
X0097541Y0151293D01*
X0097482Y0151183D01*
X0097420Y0151075D01*
X0097354Y0150968D01*
X0097285Y0150864D01*
X0097212Y0150763D01*
X0097137Y0150663D01*
X0097058Y0150566D01*
X0096976Y0150472D01*
X0096891Y0150380D01*
X0096804Y0150291D01*
X0096713Y0150205D01*
X0096620Y0150122D01*
X0096524Y0150041D01*
X0096426Y0149964D01*
X0096326Y0149890D01*
X0096223Y0149819D01*
X0096118Y0149752D01*
X0096010Y0149687D01*
X0095901Y0149627D01*
X0095790Y0149569D01*
X0095677Y0149516D01*
X0095563Y0149466D01*
X0095447Y0149419D01*
X0095330Y0149377D01*
X0095211Y0149338D01*
X0095091Y0149302D01*
X0094970Y0149271D01*
X0094848Y0149243D01*
X0094726Y0149220D01*
X0094602Y0149200D01*
X0094478Y0149184D01*
X0094354Y0149172D01*
X0094229Y0149164D01*
X0094104Y0149160D01*
X0093980Y0149160D01*
X0093855Y0149164D01*
X0093730Y0149172D01*
X0093606Y0149184D01*
X0093482Y0149200D01*
X0093358Y0149220D01*
X0093236Y0149243D01*
X0093114Y0149271D01*
X0092993Y0149302D01*
X0092873Y0149338D01*
X0092754Y0149377D01*
X0092637Y0149419D01*
X0092521Y0149466D01*
X0092407Y0149516D01*
X0092294Y0149569D01*
X0092183Y0149627D01*
X0092073Y0149687D01*
X0091966Y0149752D01*
X0091861Y0149819D01*
X0091758Y0149890D01*
X0091658Y0149964D01*
X0091560Y0150041D01*
X0091464Y0150122D01*
X0091371Y0150205D01*
X0091280Y0150291D01*
X0091193Y0150380D01*
X0091108Y0150472D01*
X0091026Y0150566D01*
X0090947Y0150663D01*
X0090872Y0150763D01*
X0090799Y0150864D01*
X0090730Y0150968D01*
X0090664Y0151075D01*
X0090602Y0151183D01*
X0090543Y0151293D01*
X0090487Y0151405D01*
X0090435Y0151519D01*
X0090387Y0151634D01*
X0090342Y0151750D01*
X0090302Y0151869D01*
X0090264Y0151988D01*
X0090231Y0152108D01*
X0090202Y0152230D01*
X0090176Y0152352D01*
X0090154Y0152475D01*
X0090137Y0152599D01*
X0090123Y0152723D01*
X0090113Y0152847D01*
X0090107Y0152972D01*
X0090105Y0153097D01*
D12*
X0172130Y0044680D02*
X0172130Y0038680D01*
X0204930Y0038680D02*
X0204930Y0044680D01*
D13*
X0203530Y0049180D02*
X0201030Y0051680D01*
X0203530Y0049180D02*
X0203530Y0054180D01*
X0188530Y0054180D01*
X0188530Y0059180D01*
X0186030Y0056680D01*
X0188530Y0059180D02*
X0191030Y0056680D01*
X0188530Y0054180D02*
X0171030Y0054180D01*
X0171030Y0049180D01*
X0168530Y0051680D01*
X0171030Y0049180D02*
X0173530Y0051680D01*
X0203530Y0049180D02*
X0206030Y0051680D01*
D14*
X0205788Y0061130D02*
X0205788Y0064030D01*
X0205788Y0063063D02*
X0206593Y0063063D01*
X0206635Y0063061D01*
X0206677Y0063056D01*
X0206718Y0063047D01*
X0206758Y0063034D01*
X0206797Y0063018D01*
X0206835Y0062998D01*
X0206870Y0062976D01*
X0206903Y0062950D01*
X0206935Y0062922D01*
X0206963Y0062890D01*
X0206989Y0062857D01*
X0207011Y0062822D01*
X0207031Y0062784D01*
X0207047Y0062745D01*
X0207060Y0062705D01*
X0207069Y0062664D01*
X0207074Y0062622D01*
X0207076Y0062580D01*
X0207076Y0061130D01*
X0204586Y0061130D02*
X0204425Y0061130D01*
X0204383Y0061132D01*
X0204341Y0061137D01*
X0204300Y0061146D01*
X0204260Y0061159D01*
X0204221Y0061175D01*
X0204184Y0061195D01*
X0204148Y0061217D01*
X0204115Y0061243D01*
X0204083Y0061271D01*
X0204055Y0061303D01*
X0204029Y0061336D01*
X0204007Y0061372D01*
X0203987Y0061409D01*
X0203971Y0061448D01*
X0203958Y0061488D01*
X0203949Y0061529D01*
X0203944Y0061571D01*
X0203942Y0061613D01*
X0203942Y0064030D01*
X0203619Y0063063D02*
X0204586Y0063063D01*
X0202688Y0063063D02*
X0202688Y0061130D01*
X0201059Y0061130D02*
X0201543Y0063063D01*
X0200576Y0062419D02*
X0201059Y0061130D01*
X0200093Y0061130D02*
X0200576Y0062419D01*
X0199609Y0063063D02*
X0200093Y0061130D01*
X0196659Y0061935D02*
X0195853Y0062258D01*
X0195816Y0062275D01*
X0195782Y0062295D01*
X0195749Y0062318D01*
X0195719Y0062344D01*
X0195691Y0062373D01*
X0195667Y0062404D01*
X0195645Y0062438D01*
X0195627Y0062474D01*
X0195612Y0062511D01*
X0195601Y0062549D01*
X0195594Y0062589D01*
X0195590Y0062629D01*
X0195591Y0062668D01*
X0195595Y0062708D01*
X0195603Y0062747D01*
X0195614Y0062786D01*
X0195629Y0062823D01*
X0195648Y0062858D01*
X0195670Y0062892D01*
X0195695Y0062923D01*
X0195723Y0062951D01*
X0195753Y0062977D01*
X0195786Y0063000D01*
X0195821Y0063020D01*
X0195857Y0063036D01*
X0195895Y0063049D01*
X0195934Y0063057D01*
X0195974Y0063063D01*
X0196014Y0063064D01*
X0195612Y0061291D02*
X0195707Y0061259D01*
X0195803Y0061230D01*
X0195901Y0061205D01*
X0195999Y0061184D01*
X0196098Y0061166D01*
X0196197Y0061151D01*
X0196297Y0061141D01*
X0196398Y0061134D01*
X0196498Y0061130D01*
X0196538Y0061131D01*
X0196578Y0061137D01*
X0196617Y0061145D01*
X0196655Y0061158D01*
X0196691Y0061174D01*
X0196726Y0061194D01*
X0196759Y0061217D01*
X0196789Y0061243D01*
X0196817Y0061271D01*
X0196842Y0061302D01*
X0196864Y0061336D01*
X0196883Y0061371D01*
X0196898Y0061408D01*
X0196909Y0061447D01*
X0196917Y0061486D01*
X0196921Y0061526D01*
X0196922Y0061565D01*
X0196918Y0061605D01*
X0196911Y0061645D01*
X0196900Y0061683D01*
X0196885Y0061720D01*
X0196867Y0061756D01*
X0196845Y0061790D01*
X0196821Y0061821D01*
X0196793Y0061850D01*
X0196763Y0061876D01*
X0196730Y0061899D01*
X0196696Y0061919D01*
X0196659Y0061936D01*
X0196739Y0062903D02*
X0196663Y0062935D01*
X0196585Y0062964D01*
X0196506Y0062989D01*
X0196425Y0063011D01*
X0196344Y0063029D01*
X0196262Y0063043D01*
X0196180Y0063054D01*
X0196097Y0063061D01*
X0196014Y0063064D01*
X0194109Y0061613D02*
X0194111Y0061571D01*
X0194116Y0061529D01*
X0194125Y0061488D01*
X0194138Y0061448D01*
X0194154Y0061409D01*
X0194174Y0061372D01*
X0194196Y0061336D01*
X0194222Y0061303D01*
X0194250Y0061271D01*
X0194282Y0061243D01*
X0194315Y0061217D01*
X0194351Y0061195D01*
X0194388Y0061175D01*
X0194427Y0061159D01*
X0194467Y0061146D01*
X0194508Y0061137D01*
X0194550Y0061132D01*
X0194592Y0061130D01*
X0194108Y0061613D02*
X0194108Y0064030D01*
X0192572Y0064030D02*
X0192572Y0061613D01*
X0192573Y0061613D02*
X0192575Y0061571D01*
X0192580Y0061529D01*
X0192589Y0061488D01*
X0192602Y0061448D01*
X0192618Y0061409D01*
X0192638Y0061372D01*
X0192660Y0061336D01*
X0192686Y0061303D01*
X0192714Y0061271D01*
X0192746Y0061243D01*
X0192779Y0061217D01*
X0192815Y0061195D01*
X0192852Y0061175D01*
X0192891Y0061159D01*
X0192931Y0061146D01*
X0192972Y0061137D01*
X0193014Y0061132D01*
X0193056Y0061130D01*
X0191360Y0061130D02*
X0191360Y0063063D01*
X0191280Y0063869D02*
X0191441Y0063869D01*
X0191441Y0064030D01*
X0191280Y0064030D01*
X0191280Y0063869D01*
X0190453Y0063063D02*
X0190453Y0062741D01*
X0190453Y0063063D02*
X0189486Y0063063D01*
X0189486Y0061130D01*
X0188052Y0061130D02*
X0187247Y0061130D01*
X0187205Y0061132D01*
X0187163Y0061137D01*
X0187122Y0061146D01*
X0187082Y0061159D01*
X0187043Y0061175D01*
X0187006Y0061195D01*
X0186970Y0061217D01*
X0186937Y0061243D01*
X0186905Y0061271D01*
X0186877Y0061303D01*
X0186851Y0061336D01*
X0186829Y0061372D01*
X0186809Y0061409D01*
X0186793Y0061448D01*
X0186780Y0061488D01*
X0186771Y0061529D01*
X0186766Y0061571D01*
X0186764Y0061613D01*
X0186764Y0062580D01*
X0186766Y0062622D01*
X0186771Y0062664D01*
X0186780Y0062705D01*
X0186793Y0062745D01*
X0186809Y0062784D01*
X0186829Y0062822D01*
X0186851Y0062857D01*
X0186877Y0062890D01*
X0186905Y0062922D01*
X0186937Y0062950D01*
X0186970Y0062976D01*
X0187006Y0062998D01*
X0187043Y0063018D01*
X0187082Y0063034D01*
X0187122Y0063047D01*
X0187163Y0063056D01*
X0187205Y0063061D01*
X0187247Y0063063D01*
X0188052Y0063063D01*
X0188052Y0064030D02*
X0188052Y0061130D01*
X0184138Y0061130D02*
X0183977Y0061130D01*
X0183935Y0061132D01*
X0183893Y0061137D01*
X0183852Y0061146D01*
X0183812Y0061159D01*
X0183773Y0061175D01*
X0183736Y0061195D01*
X0183700Y0061217D01*
X0183667Y0061243D01*
X0183635Y0061271D01*
X0183607Y0061303D01*
X0183581Y0061336D01*
X0183559Y0061372D01*
X0183539Y0061409D01*
X0183523Y0061448D01*
X0183510Y0061488D01*
X0183501Y0061529D01*
X0183496Y0061571D01*
X0183494Y0061613D01*
X0183494Y0064030D01*
X0183172Y0063063D02*
X0184138Y0063063D01*
X0182213Y0062419D02*
X0182213Y0061774D01*
X0182212Y0061774D02*
X0182210Y0061725D01*
X0182204Y0061676D01*
X0182195Y0061627D01*
X0182182Y0061580D01*
X0182165Y0061533D01*
X0182145Y0061488D01*
X0182122Y0061445D01*
X0182095Y0061403D01*
X0182065Y0061364D01*
X0182032Y0061327D01*
X0181996Y0061293D01*
X0181958Y0061262D01*
X0181918Y0061233D01*
X0181876Y0061208D01*
X0181831Y0061186D01*
X0181786Y0061168D01*
X0181739Y0061153D01*
X0181691Y0061142D01*
X0181642Y0061134D01*
X0181593Y0061130D01*
X0181543Y0061130D01*
X0181494Y0061134D01*
X0181445Y0061142D01*
X0181397Y0061153D01*
X0181350Y0061168D01*
X0181305Y0061186D01*
X0181260Y0061208D01*
X0181218Y0061233D01*
X0181178Y0061262D01*
X0181140Y0061293D01*
X0181104Y0061327D01*
X0181071Y0061364D01*
X0181041Y0061403D01*
X0181014Y0061445D01*
X0180991Y0061488D01*
X0180971Y0061533D01*
X0180954Y0061580D01*
X0180941Y0061627D01*
X0180932Y0061676D01*
X0180926Y0061725D01*
X0180924Y0061774D01*
X0180924Y0062419D01*
X0180926Y0062468D01*
X0180932Y0062517D01*
X0180941Y0062566D01*
X0180954Y0062613D01*
X0180971Y0062660D01*
X0180991Y0062705D01*
X0181014Y0062748D01*
X0181041Y0062790D01*
X0181071Y0062829D01*
X0181104Y0062866D01*
X0181140Y0062900D01*
X0181178Y0062931D01*
X0181218Y0062960D01*
X0181260Y0062985D01*
X0181305Y0063007D01*
X0181350Y0063025D01*
X0181397Y0063040D01*
X0181445Y0063051D01*
X0181494Y0063059D01*
X0181543Y0063063D01*
X0181593Y0063063D01*
X0181642Y0063059D01*
X0181691Y0063051D01*
X0181739Y0063040D01*
X0181786Y0063025D01*
X0181831Y0063007D01*
X0181876Y0062985D01*
X0181918Y0062960D01*
X0181958Y0062931D01*
X0181996Y0062900D01*
X0182032Y0062866D01*
X0182065Y0062829D01*
X0182095Y0062790D01*
X0182122Y0062748D01*
X0182145Y0062705D01*
X0182165Y0062660D01*
X0182182Y0062613D01*
X0182195Y0062566D01*
X0182204Y0062517D01*
X0182210Y0062468D01*
X0182212Y0062419D01*
X0179904Y0061130D02*
X0179862Y0061132D01*
X0179820Y0061137D01*
X0179779Y0061146D01*
X0179739Y0061159D01*
X0179700Y0061175D01*
X0179663Y0061195D01*
X0179627Y0061217D01*
X0179594Y0061243D01*
X0179562Y0061271D01*
X0179534Y0061303D01*
X0179508Y0061336D01*
X0179486Y0061372D01*
X0179466Y0061409D01*
X0179450Y0061448D01*
X0179437Y0061488D01*
X0179428Y0061529D01*
X0179423Y0061571D01*
X0179421Y0061613D01*
X0179420Y0061613D02*
X0179420Y0064030D01*
X0177778Y0061130D02*
X0177678Y0061134D01*
X0177577Y0061141D01*
X0177477Y0061151D01*
X0177378Y0061166D01*
X0177279Y0061184D01*
X0177181Y0061205D01*
X0177083Y0061230D01*
X0176987Y0061259D01*
X0176892Y0061291D01*
X0177294Y0063064D02*
X0177377Y0063061D01*
X0177460Y0063054D01*
X0177542Y0063043D01*
X0177624Y0063029D01*
X0177705Y0063011D01*
X0177786Y0062989D01*
X0177865Y0062964D01*
X0177943Y0062935D01*
X0178019Y0062903D01*
X0177295Y0063064D02*
X0177255Y0063063D01*
X0177215Y0063057D01*
X0177176Y0063049D01*
X0177138Y0063036D01*
X0177102Y0063020D01*
X0177067Y0063000D01*
X0177034Y0062977D01*
X0177004Y0062951D01*
X0176976Y0062923D01*
X0176951Y0062892D01*
X0176929Y0062858D01*
X0176910Y0062823D01*
X0176895Y0062786D01*
X0176884Y0062747D01*
X0176876Y0062708D01*
X0176872Y0062668D01*
X0176871Y0062629D01*
X0176875Y0062589D01*
X0176882Y0062549D01*
X0176893Y0062511D01*
X0176908Y0062474D01*
X0176926Y0062438D01*
X0176948Y0062404D01*
X0176972Y0062373D01*
X0177000Y0062344D01*
X0177030Y0062318D01*
X0177063Y0062295D01*
X0177097Y0062275D01*
X0177134Y0062258D01*
X0177133Y0062258D02*
X0177939Y0061935D01*
X0177939Y0061936D02*
X0177976Y0061919D01*
X0178010Y0061899D01*
X0178043Y0061876D01*
X0178073Y0061850D01*
X0178101Y0061821D01*
X0178125Y0061790D01*
X0178147Y0061756D01*
X0178165Y0061720D01*
X0178180Y0061683D01*
X0178191Y0061645D01*
X0178198Y0061605D01*
X0178202Y0061565D01*
X0178201Y0061526D01*
X0178197Y0061486D01*
X0178189Y0061447D01*
X0178178Y0061408D01*
X0178163Y0061371D01*
X0178144Y0061336D01*
X0178122Y0061302D01*
X0178097Y0061271D01*
X0178069Y0061243D01*
X0178039Y0061217D01*
X0178006Y0061194D01*
X0177971Y0061174D01*
X0177935Y0061158D01*
X0177897Y0061145D01*
X0177858Y0061137D01*
X0177818Y0061131D01*
X0177778Y0061130D01*
X0202607Y0063869D02*
X0202769Y0063869D01*
X0202769Y0064030D01*
X0202607Y0064030D01*
X0202607Y0063869D01*
X0209919Y0062580D02*
X0209919Y0061613D01*
X0209920Y0061613D02*
X0209922Y0061571D01*
X0209927Y0061529D01*
X0209936Y0061488D01*
X0209949Y0061448D01*
X0209965Y0061409D01*
X0209985Y0061372D01*
X0210007Y0061336D01*
X0210033Y0061303D01*
X0210061Y0061271D01*
X0210093Y0061243D01*
X0210126Y0061217D01*
X0210162Y0061195D01*
X0210199Y0061175D01*
X0210238Y0061159D01*
X0210278Y0061146D01*
X0210319Y0061137D01*
X0210361Y0061132D01*
X0210403Y0061130D01*
X0211047Y0061130D01*
X0212124Y0061774D02*
X0212124Y0062419D01*
X0212126Y0062468D01*
X0212132Y0062517D01*
X0212141Y0062566D01*
X0212154Y0062613D01*
X0212171Y0062660D01*
X0212191Y0062705D01*
X0212214Y0062748D01*
X0212241Y0062790D01*
X0212271Y0062829D01*
X0212304Y0062866D01*
X0212340Y0062900D01*
X0212378Y0062931D01*
X0212418Y0062960D01*
X0212460Y0062985D01*
X0212505Y0063007D01*
X0212550Y0063025D01*
X0212597Y0063040D01*
X0212645Y0063051D01*
X0212694Y0063059D01*
X0212743Y0063063D01*
X0212793Y0063063D01*
X0212842Y0063059D01*
X0212891Y0063051D01*
X0212939Y0063040D01*
X0212986Y0063025D01*
X0213031Y0063007D01*
X0213076Y0062985D01*
X0213118Y0062960D01*
X0213158Y0062931D01*
X0213196Y0062900D01*
X0213232Y0062866D01*
X0213265Y0062829D01*
X0213295Y0062790D01*
X0213322Y0062748D01*
X0213345Y0062705D01*
X0213365Y0062660D01*
X0213382Y0062613D01*
X0213395Y0062566D01*
X0213404Y0062517D01*
X0213410Y0062468D01*
X0213412Y0062419D01*
X0213412Y0061774D01*
X0213410Y0061725D01*
X0213404Y0061676D01*
X0213395Y0061627D01*
X0213382Y0061580D01*
X0213365Y0061533D01*
X0213345Y0061488D01*
X0213322Y0061445D01*
X0213295Y0061403D01*
X0213265Y0061364D01*
X0213232Y0061327D01*
X0213196Y0061293D01*
X0213158Y0061262D01*
X0213118Y0061233D01*
X0213076Y0061208D01*
X0213031Y0061186D01*
X0212986Y0061168D01*
X0212939Y0061153D01*
X0212891Y0061142D01*
X0212842Y0061134D01*
X0212793Y0061130D01*
X0212743Y0061130D01*
X0212694Y0061134D01*
X0212645Y0061142D01*
X0212597Y0061153D01*
X0212550Y0061168D01*
X0212505Y0061186D01*
X0212460Y0061208D01*
X0212418Y0061233D01*
X0212378Y0061262D01*
X0212340Y0061293D01*
X0212304Y0061327D01*
X0212271Y0061364D01*
X0212241Y0061403D01*
X0212214Y0061445D01*
X0212191Y0061488D01*
X0212171Y0061533D01*
X0212154Y0061580D01*
X0212141Y0061627D01*
X0212132Y0061676D01*
X0212126Y0061725D01*
X0212124Y0061774D01*
X0211047Y0063063D02*
X0210403Y0063063D01*
X0210402Y0063063D02*
X0210360Y0063061D01*
X0210318Y0063056D01*
X0210277Y0063047D01*
X0210237Y0063034D01*
X0210198Y0063018D01*
X0210161Y0062998D01*
X0210125Y0062976D01*
X0210092Y0062950D01*
X0210060Y0062922D01*
X0210032Y0062890D01*
X0210006Y0062857D01*
X0209984Y0062822D01*
X0209964Y0062784D01*
X0209948Y0062745D01*
X0209935Y0062705D01*
X0209926Y0062664D01*
X0209921Y0062622D01*
X0209919Y0062580D01*
X0214732Y0063063D02*
X0214732Y0060163D01*
X0214732Y0061130D02*
X0215537Y0061130D01*
X0215579Y0061132D01*
X0215621Y0061137D01*
X0215662Y0061146D01*
X0215702Y0061159D01*
X0215741Y0061175D01*
X0215779Y0061195D01*
X0215814Y0061217D01*
X0215847Y0061243D01*
X0215879Y0061271D01*
X0215907Y0061303D01*
X0215933Y0061336D01*
X0215955Y0061372D01*
X0215975Y0061409D01*
X0215991Y0061448D01*
X0216004Y0061488D01*
X0216013Y0061529D01*
X0216018Y0061571D01*
X0216020Y0061613D01*
X0216021Y0061613D02*
X0216021Y0062580D01*
X0216020Y0062580D02*
X0216018Y0062622D01*
X0216013Y0062664D01*
X0216004Y0062705D01*
X0215991Y0062745D01*
X0215975Y0062784D01*
X0215955Y0062822D01*
X0215933Y0062857D01*
X0215907Y0062890D01*
X0215879Y0062922D01*
X0215847Y0062950D01*
X0215814Y0062976D01*
X0215779Y0062998D01*
X0215741Y0063018D01*
X0215702Y0063034D01*
X0215662Y0063047D01*
X0215621Y0063056D01*
X0215579Y0063061D01*
X0215537Y0063063D01*
X0214732Y0063063D01*
X0217324Y0063063D02*
X0217324Y0060163D01*
X0217324Y0061130D02*
X0218129Y0061130D01*
X0218171Y0061132D01*
X0218213Y0061137D01*
X0218254Y0061146D01*
X0218294Y0061159D01*
X0218333Y0061175D01*
X0218371Y0061195D01*
X0218406Y0061217D01*
X0218439Y0061243D01*
X0218471Y0061271D01*
X0218499Y0061303D01*
X0218525Y0061336D01*
X0218547Y0061372D01*
X0218567Y0061409D01*
X0218583Y0061448D01*
X0218596Y0061488D01*
X0218605Y0061529D01*
X0218610Y0061571D01*
X0218612Y0061613D01*
X0218613Y0061613D02*
X0218613Y0062580D01*
X0218612Y0062580D02*
X0218610Y0062622D01*
X0218605Y0062664D01*
X0218596Y0062705D01*
X0218583Y0062745D01*
X0218567Y0062784D01*
X0218547Y0062822D01*
X0218525Y0062857D01*
X0218499Y0062890D01*
X0218471Y0062922D01*
X0218439Y0062950D01*
X0218406Y0062976D01*
X0218371Y0062998D01*
X0218333Y0063018D01*
X0218294Y0063034D01*
X0218254Y0063047D01*
X0218213Y0063056D01*
X0218171Y0063061D01*
X0218129Y0063063D01*
X0217324Y0063063D01*
X0219804Y0062419D02*
X0219804Y0061613D01*
X0219806Y0061571D01*
X0219811Y0061529D01*
X0219820Y0061488D01*
X0219833Y0061448D01*
X0219849Y0061409D01*
X0219869Y0061372D01*
X0219891Y0061336D01*
X0219917Y0061303D01*
X0219945Y0061271D01*
X0219977Y0061243D01*
X0220010Y0061217D01*
X0220046Y0061195D01*
X0220083Y0061175D01*
X0220122Y0061159D01*
X0220162Y0061146D01*
X0220203Y0061137D01*
X0220245Y0061132D01*
X0220287Y0061130D01*
X0221092Y0061130D01*
X0221092Y0062097D02*
X0219804Y0062097D01*
X0219804Y0062419D02*
X0219806Y0062468D01*
X0219812Y0062517D01*
X0219821Y0062566D01*
X0219834Y0062613D01*
X0219851Y0062660D01*
X0219871Y0062705D01*
X0219894Y0062748D01*
X0219921Y0062790D01*
X0219951Y0062829D01*
X0219984Y0062866D01*
X0220020Y0062900D01*
X0220058Y0062931D01*
X0220098Y0062960D01*
X0220140Y0062985D01*
X0220185Y0063007D01*
X0220230Y0063025D01*
X0220277Y0063040D01*
X0220325Y0063051D01*
X0220374Y0063059D01*
X0220423Y0063063D01*
X0220473Y0063063D01*
X0220522Y0063059D01*
X0220571Y0063051D01*
X0220619Y0063040D01*
X0220666Y0063025D01*
X0220711Y0063007D01*
X0220756Y0062985D01*
X0220798Y0062960D01*
X0220838Y0062931D01*
X0220876Y0062900D01*
X0220912Y0062866D01*
X0220945Y0062829D01*
X0220975Y0062790D01*
X0221002Y0062748D01*
X0221025Y0062705D01*
X0221045Y0062660D01*
X0221062Y0062613D01*
X0221075Y0062566D01*
X0221084Y0062517D01*
X0221090Y0062468D01*
X0221092Y0062419D01*
X0221092Y0062097D01*
X0222414Y0063063D02*
X0223380Y0063063D01*
X0223380Y0062741D01*
X0222414Y0063063D02*
X0222414Y0061130D01*
M02*
