%
M48
M72
T01C0.00800
T02C0.01200
T03C0.02362
T04C0.02400
T05C0.02756
T06C0.03000
T07C0.03150
T08C0.03200
T09C0.03500
T10C0.04000
T11C0.07874
T12C0.11811
%
T01
X177300Y265500
T02
X171100Y265700
X166600Y274700
X159850Y276950
X156250Y276950
X148600Y273350
X144100Y268850
X124750Y291350
X114400Y281000
X96400Y294950
X117550Y326000
X156250Y317900
X162550Y292700
X173800Y287750
X186400Y285950
X189550Y275150
X182800Y274700
X186500Y254000
X188200Y246800
X208450Y228800
X218800Y228800
X233650Y235550
X254350Y218450
X235900Y209900
X220150Y203150
X214750Y198200
X197200Y200900
X191300Y197300
X186300Y181300
X156700Y203150
X153100Y203150
X134200Y180650
X127900Y183350
X98650Y137900
X174250Y145100
X185050Y137450
X283600Y125750
X287200Y148250
X217000Y296750
X210700Y304400
X130600Y230150
T03
X138347Y232954
X138347Y237954
X138347Y242954
X138347Y247954
X138347Y252954
X138347Y257954
X138347Y262954
X138347Y267954
X138347Y272954
X138347Y277954
X138347Y282954
X138347Y287954
X138347Y292954
X138347Y297954
X209213Y297954
X209213Y292954
X209213Y287954
X209213Y282954
X209213Y277954
X209213Y272954
X209213Y262954
X209213Y257954
X209213Y252954
X209213Y247954
X209213Y242954
X209213Y237954
X209213Y232954
X196339Y227087
X191339Y227087
X156339Y227087
X151339Y227087
T04
X170300Y258300
X176300Y258300
T05
X205276Y216457
X211182Y216457
X217087Y216457
X222993Y216457
X228898Y216457
X234804Y216457
X140316Y216457
X134410Y216457
X128505Y216457
X122599Y216457
X116694Y216457
X110788Y216457
T06
X157380Y36930
X190180Y36930
T07
X124426Y138713
X124426Y148713
T08
X64000Y116300
X85150Y156350
X66700Y253550
X65800Y261200
X76150Y271550
X82450Y315200
X121600Y250400
X158500Y263000
X162100Y287750
X192700Y286850
X195850Y309350
X219700Y308000
X257500Y304400
X307900Y238700
X248500Y218900
X287200Y142850
X193600Y110000
T09
X181780Y36930
X173780Y36930
X165780Y36930
T10
X220800Y137300
X230800Y137300
X240800Y137300
X198780Y154253
X188780Y154253
X178780Y154253
X168780Y154253
X158780Y154253
X148780Y154253
X86772Y241489
X86772Y251489
X86772Y261489
X86772Y271489
X86772Y281489
X86772Y291489
X79655Y304222
X72584Y297151
X65513Y290080
X58442Y283008
X51370Y275937
X153780Y333387
X163780Y333387
X173780Y333387
X183780Y333387
X193780Y333387
X221300Y291300
X231300Y291300
X231300Y281300
X221300Y281300
X221300Y271300
X221300Y261300
X231300Y261300
X231300Y271300
X241300Y271300
X241300Y261300
X241300Y251300
X241300Y241300
X231300Y241300
X221300Y241300
X221300Y251300
X231300Y251300
X251300Y251300
X251300Y241300
X261300Y241300
X271300Y241300
X271300Y251300
X261300Y251300
X261300Y261300
X261300Y271300
X271300Y271300
X271300Y261300
X281300Y261300
X281300Y271300
X271300Y281300
X261300Y281300
X261300Y291300
X251300Y291300
X251300Y281300
X251300Y271300
X251300Y261300
X241300Y281300
X241300Y291300
X265937Y304222
X273008Y297151
X280080Y290080
X287151Y283008
X294222Y275937
X291300Y261300
X301300Y261300
X301300Y251300
X291300Y251300
X291300Y241300
X301300Y241300
X281300Y241300
X281300Y251300
X282954Y116851
X292954Y116851
T11
X268269Y148347
X268269Y219213
X106851Y152048
X106851Y136300
X79292Y148347
X79292Y219213
T12
X126536Y329450
X221024Y329450
X221024Y38111
X126536Y38111
M30
