%
M48
M72
T01C0.00800
T02C0.01200
T03C0.02362
T04C0.02400
T05C0.02756
T06C0.03000
T07C0.03150
T08C0.03200
T09C0.03500
T10C0.04000
T11C0.07874
T12C0.11811
%
T01
X201050Y186050
X206050Y201050
X201550Y258550
X192050Y270250
T02
X185850Y270450
X181350Y279450
X174600Y281700
X171000Y281700
X163350Y278100
X158850Y273600
X139500Y296100
X129150Y285750
X111150Y299700
X132300Y330750
X171000Y322650
X177300Y297450
X188550Y292500
X201150Y290700
X204300Y279900
X197550Y279450
X202950Y251550
X223200Y233550
X233550Y233550
X248400Y240300
X269100Y223200
X250650Y214650
X234900Y207900
X229500Y202950
X211950Y205650
X171450Y207900
X167850Y207900
X148950Y185400
X142650Y188100
X113400Y142650
X189000Y149850
X199800Y142200
X145350Y234900
X225450Y309150
X231750Y301500
X301950Y153000
X298350Y130500
T03
X211089Y231837
X206089Y231837
X223963Y237704
X223963Y242704
X223963Y247704
X223963Y252704
X223963Y257704
X223963Y262704
X223963Y267704
X223963Y277704
X223963Y282704
X223963Y287704
X223963Y292704
X223963Y297704
X223963Y302704
X171089Y231837
X166089Y231837
X153097Y237704
X153097Y242704
X153097Y247704
X153097Y252704
X153097Y257704
X153097Y262704
X153097Y267704
X153097Y272704
X153097Y277704
X153097Y282704
X153097Y287704
X153097Y292704
X153097Y297704
X153097Y302704
T04
X185050Y263050
X191050Y263050
T05
X220026Y221207
X225932Y221207
X231837Y221207
X237743Y221207
X243648Y221207
X249554Y221207
X155066Y221207
X149160Y221207
X143255Y221207
X137349Y221207
X131444Y221207
X125538Y221207
T06
X172130Y41680
X204930Y41680
T07
X139176Y143463
X139176Y153463
T08
X78750Y121050
X99900Y161100
X136350Y255150
X173250Y267750
X176850Y292500
X207450Y291600
X210600Y314100
X234450Y312750
X272250Y309150
X322650Y243450
X263250Y223650
X301950Y147600
X208350Y114750
X81450Y258300
X80550Y265950
X90900Y276300
X97200Y319950
T09
X180530Y41680
X188530Y41680
X196530Y41680
T10
X235550Y142050
X245550Y142050
X255550Y142050
X213530Y159003
X203530Y159003
X193530Y159003
X183530Y159003
X173530Y159003
X163530Y159003
X236050Y246050
X236050Y256050
X236050Y266050
X236050Y276050
X236050Y286050
X236050Y296050
X246050Y296050
X256050Y296050
X256050Y286050
X256050Y276050
X246050Y276050
X246050Y286050
X246050Y266050
X256050Y266050
X256050Y256050
X246050Y256050
X246050Y246050
X256050Y246050
X266050Y246050
X266050Y256050
X266050Y266050
X266050Y276050
X266050Y286050
X266050Y296050
X276050Y296050
X276050Y286050
X276050Y276050
X286050Y276050
X286050Y286050
X294830Y294830
X287758Y301901
X280687Y308972
X301901Y287758
X308972Y280687
X296050Y276050
X296050Y266050
X296050Y256050
X296050Y246050
X286050Y246050
X276050Y246050
X276050Y256050
X286050Y256050
X286050Y266050
X276050Y266050
X306050Y266050
X306050Y256050
X306050Y246050
X316050Y246050
X316050Y256050
X316050Y266050
X208530Y338137
X198530Y338137
X188530Y338137
X178530Y338137
X168530Y338137
X101522Y296239
X101522Y286239
X101522Y276239
X101522Y266239
X101522Y256239
X101522Y246239
X66120Y280687
X73192Y287758
X80263Y294830
X87334Y301901
X94405Y308972
X297704Y121601
X307704Y121601
T11
X283019Y153097
X283019Y223963
X121601Y156798
X121601Y141050
X94042Y153097
X94042Y223963
T12
X141286Y334200
X235774Y334200
X235774Y42861
X141286Y42861
M30
