G75*
%MOIN*%
%OFA0B0*%
%FSLAX25Y25*%
%IPPOS*%
%LPD*%
%AMOC8*
5,1,8,0,0,1.08239X$1,22.5*
%
%ADD10C,0.00600*%
%ADD11C,0.00000*%
%ADD12C,0.07874*%
%ADD13C,0.11811*%
%ADD14C,0.06300*%
%ADD15OC8,0.06000*%
%ADD16C,0.04134*%
%ADD17R,0.06500X0.06500*%
%ADD18C,0.06500*%
%ADD19C,0.05500*%
%ADD20R,0.10000X0.20000*%
%ADD21OC8,0.07000*%
%ADD22C,0.06000*%
%ADD23R,0.06000X0.06000*%
%ADD24C,0.01200*%
%ADD25R,0.06000X0.06000*%
%ADD26C,0.03562*%
%ADD27C,0.06000*%
D10*
X0013150Y0144410D02*
X0047796Y0144410D01*
X0047796Y0223150D01*
X0013150Y0223150D01*
X0013150Y0223151D02*
X0014158Y0227061D01*
X0015260Y0230946D01*
X0016458Y0234802D01*
X0017749Y0238628D01*
X0019133Y0242421D01*
X0020609Y0246180D01*
X0022177Y0249901D01*
X0023835Y0253583D01*
X0025582Y0257223D01*
X0027418Y0260820D01*
X0029341Y0264370D01*
X0031350Y0267873D01*
X0033445Y0271326D01*
X0035622Y0274726D01*
X0037882Y0278072D01*
X0040224Y0281362D01*
X0042644Y0284594D01*
X0045143Y0287766D01*
X0047719Y0290876D01*
X0050370Y0293922D01*
X0053094Y0296902D01*
X0055891Y0299815D01*
X0058758Y0302659D01*
X0061693Y0305432D01*
X0064695Y0308132D01*
X0067762Y0310759D01*
X0070892Y0313309D01*
X0074084Y0315783D01*
X0077335Y0318178D01*
X0080644Y0320493D01*
X0084008Y0322726D01*
X0087426Y0324876D01*
X0090895Y0326943D01*
X0094414Y0328924D01*
X0097979Y0330818D01*
X0101591Y0332625D01*
X0105245Y0334344D01*
X0108940Y0335972D01*
X0112673Y0337510D01*
X0116444Y0338956D01*
X0120248Y0340310D01*
X0124084Y0341570D01*
X0127950Y0342737D01*
X0131843Y0343808D01*
X0135761Y0344784D01*
X0139702Y0345665D01*
X0143663Y0346448D01*
X0147643Y0347135D01*
X0151637Y0347725D01*
X0155645Y0348217D01*
X0159664Y0348610D01*
X0163691Y0348906D01*
X0167724Y0349103D01*
X0171761Y0349202D01*
X0175799Y0349202D01*
X0179836Y0349103D01*
X0183869Y0348906D01*
X0187896Y0348610D01*
X0191915Y0348217D01*
X0195923Y0347725D01*
X0199917Y0347135D01*
X0203897Y0346448D01*
X0207858Y0345665D01*
X0211799Y0344784D01*
X0215717Y0343808D01*
X0219610Y0342737D01*
X0223476Y0341570D01*
X0227312Y0340310D01*
X0231116Y0338956D01*
X0234887Y0337510D01*
X0238620Y0335972D01*
X0242315Y0334344D01*
X0245969Y0332625D01*
X0249581Y0330818D01*
X0253146Y0328924D01*
X0256665Y0326943D01*
X0260134Y0324876D01*
X0263552Y0322726D01*
X0266916Y0320493D01*
X0270225Y0318178D01*
X0273476Y0315783D01*
X0276668Y0313309D01*
X0279798Y0310759D01*
X0282865Y0308132D01*
X0285867Y0305432D01*
X0288802Y0302659D01*
X0291669Y0299815D01*
X0294466Y0296902D01*
X0297190Y0293922D01*
X0299841Y0290876D01*
X0302417Y0287766D01*
X0304916Y0284594D01*
X0307336Y0281362D01*
X0309678Y0278072D01*
X0311938Y0274726D01*
X0314115Y0271326D01*
X0316210Y0267873D01*
X0318219Y0264370D01*
X0320142Y0260820D01*
X0321978Y0257223D01*
X0323725Y0253583D01*
X0325383Y0249901D01*
X0326951Y0246180D01*
X0328427Y0242421D01*
X0329811Y0238628D01*
X0331102Y0234802D01*
X0332300Y0230946D01*
X0333402Y0227061D01*
X0334410Y0223151D01*
X0334410Y0223150D02*
X0299765Y0223150D01*
X0299765Y0144410D01*
X0334410Y0144410D01*
X0333402Y0140500D01*
X0332300Y0136615D01*
X0331102Y0132759D01*
X0329811Y0128933D01*
X0328427Y0125140D01*
X0326951Y0121381D01*
X0325383Y0117660D01*
X0323725Y0113978D01*
X0321978Y0110338D01*
X0320142Y0106741D01*
X0318219Y0103191D01*
X0316210Y0099688D01*
X0314115Y0096235D01*
X0311938Y0092835D01*
X0309678Y0089489D01*
X0307336Y0086199D01*
X0304916Y0082967D01*
X0302417Y0079795D01*
X0299841Y0076685D01*
X0297190Y0073639D01*
X0294466Y0070659D01*
X0291669Y0067746D01*
X0288802Y0064902D01*
X0285867Y0062129D01*
X0282865Y0059429D01*
X0279798Y0056802D01*
X0276668Y0054252D01*
X0273476Y0051778D01*
X0270225Y0049383D01*
X0266916Y0047068D01*
X0263552Y0044835D01*
X0260134Y0042685D01*
X0256665Y0040618D01*
X0253146Y0038637D01*
X0249581Y0036743D01*
X0245969Y0034936D01*
X0242315Y0033217D01*
X0238620Y0031589D01*
X0234887Y0030051D01*
X0231116Y0028605D01*
X0227312Y0027251D01*
X0223476Y0025991D01*
X0219610Y0024824D01*
X0215717Y0023753D01*
X0211799Y0022777D01*
X0207858Y0021896D01*
X0203897Y0021113D01*
X0199917Y0020426D01*
X0195923Y0019836D01*
X0191915Y0019344D01*
X0187896Y0018951D01*
X0183869Y0018655D01*
X0179836Y0018458D01*
X0175799Y0018359D01*
X0171761Y0018359D01*
X0167724Y0018458D01*
X0163691Y0018655D01*
X0159664Y0018951D01*
X0155645Y0019344D01*
X0151637Y0019836D01*
X0147643Y0020426D01*
X0143663Y0021113D01*
X0139702Y0021896D01*
X0135761Y0022777D01*
X0131843Y0023753D01*
X0127950Y0024824D01*
X0124084Y0025991D01*
X0120248Y0027251D01*
X0116444Y0028605D01*
X0112673Y0030051D01*
X0108940Y0031589D01*
X0105245Y0033217D01*
X0101591Y0034936D01*
X0097979Y0036743D01*
X0094414Y0038637D01*
X0090895Y0040618D01*
X0087426Y0042685D01*
X0084008Y0044835D01*
X0080644Y0047068D01*
X0077335Y0049383D01*
X0074084Y0051778D01*
X0070892Y0054252D01*
X0067762Y0056802D01*
X0064695Y0059429D01*
X0061693Y0062129D01*
X0058758Y0064902D01*
X0055891Y0067746D01*
X0053094Y0070659D01*
X0050370Y0073639D01*
X0047719Y0076685D01*
X0045143Y0079795D01*
X0042644Y0082967D01*
X0040224Y0086199D01*
X0037882Y0089489D01*
X0035622Y0092835D01*
X0033445Y0096235D01*
X0031350Y0099688D01*
X0029341Y0103191D01*
X0027418Y0106741D01*
X0025582Y0110338D01*
X0023835Y0113978D01*
X0022177Y0117660D01*
X0020609Y0121381D01*
X0019133Y0125140D01*
X0017749Y0128933D01*
X0016458Y0132759D01*
X0015260Y0136615D01*
X0014158Y0140500D01*
X0013150Y0144410D01*
D11*
X0075355Y0148347D02*
X0075357Y0148472D01*
X0075363Y0148597D01*
X0075373Y0148721D01*
X0075387Y0148845D01*
X0075404Y0148969D01*
X0075426Y0149092D01*
X0075452Y0149214D01*
X0075481Y0149336D01*
X0075514Y0149456D01*
X0075552Y0149575D01*
X0075592Y0149694D01*
X0075637Y0149810D01*
X0075685Y0149925D01*
X0075737Y0150039D01*
X0075793Y0150151D01*
X0075852Y0150261D01*
X0075914Y0150369D01*
X0075980Y0150476D01*
X0076049Y0150580D01*
X0076122Y0150681D01*
X0076197Y0150781D01*
X0076276Y0150878D01*
X0076358Y0150972D01*
X0076443Y0151064D01*
X0076530Y0151153D01*
X0076621Y0151239D01*
X0076714Y0151322D01*
X0076810Y0151403D01*
X0076908Y0151480D01*
X0077008Y0151554D01*
X0077111Y0151625D01*
X0077216Y0151692D01*
X0077324Y0151757D01*
X0077433Y0151817D01*
X0077544Y0151875D01*
X0077657Y0151928D01*
X0077771Y0151978D01*
X0077887Y0152025D01*
X0078004Y0152067D01*
X0078123Y0152106D01*
X0078243Y0152142D01*
X0078364Y0152173D01*
X0078486Y0152201D01*
X0078608Y0152224D01*
X0078732Y0152244D01*
X0078856Y0152260D01*
X0078980Y0152272D01*
X0079105Y0152280D01*
X0079230Y0152284D01*
X0079354Y0152284D01*
X0079479Y0152280D01*
X0079604Y0152272D01*
X0079728Y0152260D01*
X0079852Y0152244D01*
X0079976Y0152224D01*
X0080098Y0152201D01*
X0080220Y0152173D01*
X0080341Y0152142D01*
X0080461Y0152106D01*
X0080580Y0152067D01*
X0080697Y0152025D01*
X0080813Y0151978D01*
X0080927Y0151928D01*
X0081040Y0151875D01*
X0081151Y0151817D01*
X0081261Y0151757D01*
X0081368Y0151692D01*
X0081473Y0151625D01*
X0081576Y0151554D01*
X0081676Y0151480D01*
X0081774Y0151403D01*
X0081870Y0151322D01*
X0081963Y0151239D01*
X0082054Y0151153D01*
X0082141Y0151064D01*
X0082226Y0150972D01*
X0082308Y0150878D01*
X0082387Y0150781D01*
X0082462Y0150681D01*
X0082535Y0150580D01*
X0082604Y0150476D01*
X0082670Y0150369D01*
X0082732Y0150261D01*
X0082791Y0150151D01*
X0082847Y0150039D01*
X0082899Y0149925D01*
X0082947Y0149810D01*
X0082992Y0149694D01*
X0083032Y0149575D01*
X0083070Y0149456D01*
X0083103Y0149336D01*
X0083132Y0149214D01*
X0083158Y0149092D01*
X0083180Y0148969D01*
X0083197Y0148845D01*
X0083211Y0148721D01*
X0083221Y0148597D01*
X0083227Y0148472D01*
X0083229Y0148347D01*
X0083227Y0148222D01*
X0083221Y0148097D01*
X0083211Y0147973D01*
X0083197Y0147849D01*
X0083180Y0147725D01*
X0083158Y0147602D01*
X0083132Y0147480D01*
X0083103Y0147358D01*
X0083070Y0147238D01*
X0083032Y0147119D01*
X0082992Y0147000D01*
X0082947Y0146884D01*
X0082899Y0146769D01*
X0082847Y0146655D01*
X0082791Y0146543D01*
X0082732Y0146433D01*
X0082670Y0146325D01*
X0082604Y0146218D01*
X0082535Y0146114D01*
X0082462Y0146013D01*
X0082387Y0145913D01*
X0082308Y0145816D01*
X0082226Y0145722D01*
X0082141Y0145630D01*
X0082054Y0145541D01*
X0081963Y0145455D01*
X0081870Y0145372D01*
X0081774Y0145291D01*
X0081676Y0145214D01*
X0081576Y0145140D01*
X0081473Y0145069D01*
X0081368Y0145002D01*
X0081260Y0144937D01*
X0081151Y0144877D01*
X0081040Y0144819D01*
X0080927Y0144766D01*
X0080813Y0144716D01*
X0080697Y0144669D01*
X0080580Y0144627D01*
X0080461Y0144588D01*
X0080341Y0144552D01*
X0080220Y0144521D01*
X0080098Y0144493D01*
X0079976Y0144470D01*
X0079852Y0144450D01*
X0079728Y0144434D01*
X0079604Y0144422D01*
X0079479Y0144414D01*
X0079354Y0144410D01*
X0079230Y0144410D01*
X0079105Y0144414D01*
X0078980Y0144422D01*
X0078856Y0144434D01*
X0078732Y0144450D01*
X0078608Y0144470D01*
X0078486Y0144493D01*
X0078364Y0144521D01*
X0078243Y0144552D01*
X0078123Y0144588D01*
X0078004Y0144627D01*
X0077887Y0144669D01*
X0077771Y0144716D01*
X0077657Y0144766D01*
X0077544Y0144819D01*
X0077433Y0144877D01*
X0077323Y0144937D01*
X0077216Y0145002D01*
X0077111Y0145069D01*
X0077008Y0145140D01*
X0076908Y0145214D01*
X0076810Y0145291D01*
X0076714Y0145372D01*
X0076621Y0145455D01*
X0076530Y0145541D01*
X0076443Y0145630D01*
X0076358Y0145722D01*
X0076276Y0145816D01*
X0076197Y0145913D01*
X0076122Y0146013D01*
X0076049Y0146114D01*
X0075980Y0146218D01*
X0075914Y0146325D01*
X0075852Y0146433D01*
X0075793Y0146543D01*
X0075737Y0146655D01*
X0075685Y0146769D01*
X0075637Y0146884D01*
X0075592Y0147000D01*
X0075552Y0147119D01*
X0075514Y0147238D01*
X0075481Y0147358D01*
X0075452Y0147480D01*
X0075426Y0147602D01*
X0075404Y0147725D01*
X0075387Y0147849D01*
X0075373Y0147973D01*
X0075363Y0148097D01*
X0075357Y0148222D01*
X0075355Y0148347D01*
X0075355Y0219213D02*
X0075357Y0219338D01*
X0075363Y0219463D01*
X0075373Y0219587D01*
X0075387Y0219711D01*
X0075404Y0219835D01*
X0075426Y0219958D01*
X0075452Y0220080D01*
X0075481Y0220202D01*
X0075514Y0220322D01*
X0075552Y0220441D01*
X0075592Y0220560D01*
X0075637Y0220676D01*
X0075685Y0220791D01*
X0075737Y0220905D01*
X0075793Y0221017D01*
X0075852Y0221127D01*
X0075914Y0221235D01*
X0075980Y0221342D01*
X0076049Y0221446D01*
X0076122Y0221547D01*
X0076197Y0221647D01*
X0076276Y0221744D01*
X0076358Y0221838D01*
X0076443Y0221930D01*
X0076530Y0222019D01*
X0076621Y0222105D01*
X0076714Y0222188D01*
X0076810Y0222269D01*
X0076908Y0222346D01*
X0077008Y0222420D01*
X0077111Y0222491D01*
X0077216Y0222558D01*
X0077324Y0222623D01*
X0077433Y0222683D01*
X0077544Y0222741D01*
X0077657Y0222794D01*
X0077771Y0222844D01*
X0077887Y0222891D01*
X0078004Y0222933D01*
X0078123Y0222972D01*
X0078243Y0223008D01*
X0078364Y0223039D01*
X0078486Y0223067D01*
X0078608Y0223090D01*
X0078732Y0223110D01*
X0078856Y0223126D01*
X0078980Y0223138D01*
X0079105Y0223146D01*
X0079230Y0223150D01*
X0079354Y0223150D01*
X0079479Y0223146D01*
X0079604Y0223138D01*
X0079728Y0223126D01*
X0079852Y0223110D01*
X0079976Y0223090D01*
X0080098Y0223067D01*
X0080220Y0223039D01*
X0080341Y0223008D01*
X0080461Y0222972D01*
X0080580Y0222933D01*
X0080697Y0222891D01*
X0080813Y0222844D01*
X0080927Y0222794D01*
X0081040Y0222741D01*
X0081151Y0222683D01*
X0081261Y0222623D01*
X0081368Y0222558D01*
X0081473Y0222491D01*
X0081576Y0222420D01*
X0081676Y0222346D01*
X0081774Y0222269D01*
X0081870Y0222188D01*
X0081963Y0222105D01*
X0082054Y0222019D01*
X0082141Y0221930D01*
X0082226Y0221838D01*
X0082308Y0221744D01*
X0082387Y0221647D01*
X0082462Y0221547D01*
X0082535Y0221446D01*
X0082604Y0221342D01*
X0082670Y0221235D01*
X0082732Y0221127D01*
X0082791Y0221017D01*
X0082847Y0220905D01*
X0082899Y0220791D01*
X0082947Y0220676D01*
X0082992Y0220560D01*
X0083032Y0220441D01*
X0083070Y0220322D01*
X0083103Y0220202D01*
X0083132Y0220080D01*
X0083158Y0219958D01*
X0083180Y0219835D01*
X0083197Y0219711D01*
X0083211Y0219587D01*
X0083221Y0219463D01*
X0083227Y0219338D01*
X0083229Y0219213D01*
X0083227Y0219088D01*
X0083221Y0218963D01*
X0083211Y0218839D01*
X0083197Y0218715D01*
X0083180Y0218591D01*
X0083158Y0218468D01*
X0083132Y0218346D01*
X0083103Y0218224D01*
X0083070Y0218104D01*
X0083032Y0217985D01*
X0082992Y0217866D01*
X0082947Y0217750D01*
X0082899Y0217635D01*
X0082847Y0217521D01*
X0082791Y0217409D01*
X0082732Y0217299D01*
X0082670Y0217191D01*
X0082604Y0217084D01*
X0082535Y0216980D01*
X0082462Y0216879D01*
X0082387Y0216779D01*
X0082308Y0216682D01*
X0082226Y0216588D01*
X0082141Y0216496D01*
X0082054Y0216407D01*
X0081963Y0216321D01*
X0081870Y0216238D01*
X0081774Y0216157D01*
X0081676Y0216080D01*
X0081576Y0216006D01*
X0081473Y0215935D01*
X0081368Y0215868D01*
X0081260Y0215803D01*
X0081151Y0215743D01*
X0081040Y0215685D01*
X0080927Y0215632D01*
X0080813Y0215582D01*
X0080697Y0215535D01*
X0080580Y0215493D01*
X0080461Y0215454D01*
X0080341Y0215418D01*
X0080220Y0215387D01*
X0080098Y0215359D01*
X0079976Y0215336D01*
X0079852Y0215316D01*
X0079728Y0215300D01*
X0079604Y0215288D01*
X0079479Y0215280D01*
X0079354Y0215276D01*
X0079230Y0215276D01*
X0079105Y0215280D01*
X0078980Y0215288D01*
X0078856Y0215300D01*
X0078732Y0215316D01*
X0078608Y0215336D01*
X0078486Y0215359D01*
X0078364Y0215387D01*
X0078243Y0215418D01*
X0078123Y0215454D01*
X0078004Y0215493D01*
X0077887Y0215535D01*
X0077771Y0215582D01*
X0077657Y0215632D01*
X0077544Y0215685D01*
X0077433Y0215743D01*
X0077323Y0215803D01*
X0077216Y0215868D01*
X0077111Y0215935D01*
X0077008Y0216006D01*
X0076908Y0216080D01*
X0076810Y0216157D01*
X0076714Y0216238D01*
X0076621Y0216321D01*
X0076530Y0216407D01*
X0076443Y0216496D01*
X0076358Y0216588D01*
X0076276Y0216682D01*
X0076197Y0216779D01*
X0076122Y0216879D01*
X0076049Y0216980D01*
X0075980Y0217084D01*
X0075914Y0217191D01*
X0075852Y0217299D01*
X0075793Y0217409D01*
X0075737Y0217521D01*
X0075685Y0217635D01*
X0075637Y0217750D01*
X0075592Y0217866D01*
X0075552Y0217985D01*
X0075514Y0218104D01*
X0075481Y0218224D01*
X0075452Y0218346D01*
X0075426Y0218468D01*
X0075404Y0218591D01*
X0075387Y0218715D01*
X0075373Y0218839D01*
X0075363Y0218963D01*
X0075357Y0219088D01*
X0075355Y0219213D01*
X0120630Y0329450D02*
X0120632Y0329603D01*
X0120638Y0329757D01*
X0120648Y0329910D01*
X0120662Y0330062D01*
X0120680Y0330215D01*
X0120702Y0330366D01*
X0120727Y0330517D01*
X0120757Y0330668D01*
X0120791Y0330818D01*
X0120828Y0330966D01*
X0120869Y0331114D01*
X0120914Y0331260D01*
X0120963Y0331406D01*
X0121016Y0331550D01*
X0121072Y0331692D01*
X0121132Y0331833D01*
X0121196Y0331973D01*
X0121263Y0332111D01*
X0121334Y0332247D01*
X0121409Y0332381D01*
X0121486Y0332513D01*
X0121568Y0332643D01*
X0121652Y0332771D01*
X0121740Y0332897D01*
X0121831Y0333020D01*
X0121925Y0333141D01*
X0122023Y0333259D01*
X0122123Y0333375D01*
X0122227Y0333488D01*
X0122333Y0333599D01*
X0122442Y0333707D01*
X0122554Y0333812D01*
X0122668Y0333913D01*
X0122786Y0334012D01*
X0122905Y0334108D01*
X0123027Y0334201D01*
X0123152Y0334290D01*
X0123279Y0334377D01*
X0123408Y0334459D01*
X0123539Y0334539D01*
X0123672Y0334615D01*
X0123807Y0334688D01*
X0123944Y0334757D01*
X0124083Y0334822D01*
X0124223Y0334884D01*
X0124365Y0334942D01*
X0124508Y0334997D01*
X0124653Y0335048D01*
X0124799Y0335095D01*
X0124946Y0335138D01*
X0125094Y0335177D01*
X0125243Y0335213D01*
X0125393Y0335244D01*
X0125544Y0335272D01*
X0125695Y0335296D01*
X0125848Y0335316D01*
X0126000Y0335332D01*
X0126153Y0335344D01*
X0126306Y0335352D01*
X0126459Y0335356D01*
X0126613Y0335356D01*
X0126766Y0335352D01*
X0126919Y0335344D01*
X0127072Y0335332D01*
X0127224Y0335316D01*
X0127377Y0335296D01*
X0127528Y0335272D01*
X0127679Y0335244D01*
X0127829Y0335213D01*
X0127978Y0335177D01*
X0128126Y0335138D01*
X0128273Y0335095D01*
X0128419Y0335048D01*
X0128564Y0334997D01*
X0128707Y0334942D01*
X0128849Y0334884D01*
X0128989Y0334822D01*
X0129128Y0334757D01*
X0129265Y0334688D01*
X0129400Y0334615D01*
X0129533Y0334539D01*
X0129664Y0334459D01*
X0129793Y0334377D01*
X0129920Y0334290D01*
X0130045Y0334201D01*
X0130167Y0334108D01*
X0130286Y0334012D01*
X0130404Y0333913D01*
X0130518Y0333812D01*
X0130630Y0333707D01*
X0130739Y0333599D01*
X0130845Y0333488D01*
X0130949Y0333375D01*
X0131049Y0333259D01*
X0131147Y0333141D01*
X0131241Y0333020D01*
X0131332Y0332897D01*
X0131420Y0332771D01*
X0131504Y0332643D01*
X0131586Y0332513D01*
X0131663Y0332381D01*
X0131738Y0332247D01*
X0131809Y0332111D01*
X0131876Y0331973D01*
X0131940Y0331833D01*
X0132000Y0331692D01*
X0132056Y0331550D01*
X0132109Y0331406D01*
X0132158Y0331260D01*
X0132203Y0331114D01*
X0132244Y0330966D01*
X0132281Y0330818D01*
X0132315Y0330668D01*
X0132345Y0330517D01*
X0132370Y0330366D01*
X0132392Y0330215D01*
X0132410Y0330062D01*
X0132424Y0329910D01*
X0132434Y0329757D01*
X0132440Y0329603D01*
X0132442Y0329450D01*
X0132440Y0329297D01*
X0132434Y0329143D01*
X0132424Y0328990D01*
X0132410Y0328838D01*
X0132392Y0328685D01*
X0132370Y0328534D01*
X0132345Y0328383D01*
X0132315Y0328232D01*
X0132281Y0328082D01*
X0132244Y0327934D01*
X0132203Y0327786D01*
X0132158Y0327640D01*
X0132109Y0327494D01*
X0132056Y0327350D01*
X0132000Y0327208D01*
X0131940Y0327067D01*
X0131876Y0326927D01*
X0131809Y0326789D01*
X0131738Y0326653D01*
X0131663Y0326519D01*
X0131586Y0326387D01*
X0131504Y0326257D01*
X0131420Y0326129D01*
X0131332Y0326003D01*
X0131241Y0325880D01*
X0131147Y0325759D01*
X0131049Y0325641D01*
X0130949Y0325525D01*
X0130845Y0325412D01*
X0130739Y0325301D01*
X0130630Y0325193D01*
X0130518Y0325088D01*
X0130404Y0324987D01*
X0130286Y0324888D01*
X0130167Y0324792D01*
X0130045Y0324699D01*
X0129920Y0324610D01*
X0129793Y0324523D01*
X0129664Y0324441D01*
X0129533Y0324361D01*
X0129400Y0324285D01*
X0129265Y0324212D01*
X0129128Y0324143D01*
X0128989Y0324078D01*
X0128849Y0324016D01*
X0128707Y0323958D01*
X0128564Y0323903D01*
X0128419Y0323852D01*
X0128273Y0323805D01*
X0128126Y0323762D01*
X0127978Y0323723D01*
X0127829Y0323687D01*
X0127679Y0323656D01*
X0127528Y0323628D01*
X0127377Y0323604D01*
X0127224Y0323584D01*
X0127072Y0323568D01*
X0126919Y0323556D01*
X0126766Y0323548D01*
X0126613Y0323544D01*
X0126459Y0323544D01*
X0126306Y0323548D01*
X0126153Y0323556D01*
X0126000Y0323568D01*
X0125848Y0323584D01*
X0125695Y0323604D01*
X0125544Y0323628D01*
X0125393Y0323656D01*
X0125243Y0323687D01*
X0125094Y0323723D01*
X0124946Y0323762D01*
X0124799Y0323805D01*
X0124653Y0323852D01*
X0124508Y0323903D01*
X0124365Y0323958D01*
X0124223Y0324016D01*
X0124083Y0324078D01*
X0123944Y0324143D01*
X0123807Y0324212D01*
X0123672Y0324285D01*
X0123539Y0324361D01*
X0123408Y0324441D01*
X0123279Y0324523D01*
X0123152Y0324610D01*
X0123027Y0324699D01*
X0122905Y0324792D01*
X0122786Y0324888D01*
X0122668Y0324987D01*
X0122554Y0325088D01*
X0122442Y0325193D01*
X0122333Y0325301D01*
X0122227Y0325412D01*
X0122123Y0325525D01*
X0122023Y0325641D01*
X0121925Y0325759D01*
X0121831Y0325880D01*
X0121740Y0326003D01*
X0121652Y0326129D01*
X0121568Y0326257D01*
X0121486Y0326387D01*
X0121409Y0326519D01*
X0121334Y0326653D01*
X0121263Y0326789D01*
X0121196Y0326927D01*
X0121132Y0327067D01*
X0121072Y0327208D01*
X0121016Y0327350D01*
X0120963Y0327494D01*
X0120914Y0327640D01*
X0120869Y0327786D01*
X0120828Y0327934D01*
X0120791Y0328082D01*
X0120757Y0328232D01*
X0120727Y0328383D01*
X0120702Y0328534D01*
X0120680Y0328685D01*
X0120662Y0328838D01*
X0120648Y0328990D01*
X0120638Y0329143D01*
X0120632Y0329297D01*
X0120630Y0329450D01*
X0215118Y0329450D02*
X0215120Y0329603D01*
X0215126Y0329757D01*
X0215136Y0329910D01*
X0215150Y0330062D01*
X0215168Y0330215D01*
X0215190Y0330366D01*
X0215215Y0330517D01*
X0215245Y0330668D01*
X0215279Y0330818D01*
X0215316Y0330966D01*
X0215357Y0331114D01*
X0215402Y0331260D01*
X0215451Y0331406D01*
X0215504Y0331550D01*
X0215560Y0331692D01*
X0215620Y0331833D01*
X0215684Y0331973D01*
X0215751Y0332111D01*
X0215822Y0332247D01*
X0215897Y0332381D01*
X0215974Y0332513D01*
X0216056Y0332643D01*
X0216140Y0332771D01*
X0216228Y0332897D01*
X0216319Y0333020D01*
X0216413Y0333141D01*
X0216511Y0333259D01*
X0216611Y0333375D01*
X0216715Y0333488D01*
X0216821Y0333599D01*
X0216930Y0333707D01*
X0217042Y0333812D01*
X0217156Y0333913D01*
X0217274Y0334012D01*
X0217393Y0334108D01*
X0217515Y0334201D01*
X0217640Y0334290D01*
X0217767Y0334377D01*
X0217896Y0334459D01*
X0218027Y0334539D01*
X0218160Y0334615D01*
X0218295Y0334688D01*
X0218432Y0334757D01*
X0218571Y0334822D01*
X0218711Y0334884D01*
X0218853Y0334942D01*
X0218996Y0334997D01*
X0219141Y0335048D01*
X0219287Y0335095D01*
X0219434Y0335138D01*
X0219582Y0335177D01*
X0219731Y0335213D01*
X0219881Y0335244D01*
X0220032Y0335272D01*
X0220183Y0335296D01*
X0220336Y0335316D01*
X0220488Y0335332D01*
X0220641Y0335344D01*
X0220794Y0335352D01*
X0220947Y0335356D01*
X0221101Y0335356D01*
X0221254Y0335352D01*
X0221407Y0335344D01*
X0221560Y0335332D01*
X0221712Y0335316D01*
X0221865Y0335296D01*
X0222016Y0335272D01*
X0222167Y0335244D01*
X0222317Y0335213D01*
X0222466Y0335177D01*
X0222614Y0335138D01*
X0222761Y0335095D01*
X0222907Y0335048D01*
X0223052Y0334997D01*
X0223195Y0334942D01*
X0223337Y0334884D01*
X0223477Y0334822D01*
X0223616Y0334757D01*
X0223753Y0334688D01*
X0223888Y0334615D01*
X0224021Y0334539D01*
X0224152Y0334459D01*
X0224281Y0334377D01*
X0224408Y0334290D01*
X0224533Y0334201D01*
X0224655Y0334108D01*
X0224774Y0334012D01*
X0224892Y0333913D01*
X0225006Y0333812D01*
X0225118Y0333707D01*
X0225227Y0333599D01*
X0225333Y0333488D01*
X0225437Y0333375D01*
X0225537Y0333259D01*
X0225635Y0333141D01*
X0225729Y0333020D01*
X0225820Y0332897D01*
X0225908Y0332771D01*
X0225992Y0332643D01*
X0226074Y0332513D01*
X0226151Y0332381D01*
X0226226Y0332247D01*
X0226297Y0332111D01*
X0226364Y0331973D01*
X0226428Y0331833D01*
X0226488Y0331692D01*
X0226544Y0331550D01*
X0226597Y0331406D01*
X0226646Y0331260D01*
X0226691Y0331114D01*
X0226732Y0330966D01*
X0226769Y0330818D01*
X0226803Y0330668D01*
X0226833Y0330517D01*
X0226858Y0330366D01*
X0226880Y0330215D01*
X0226898Y0330062D01*
X0226912Y0329910D01*
X0226922Y0329757D01*
X0226928Y0329603D01*
X0226930Y0329450D01*
X0226928Y0329297D01*
X0226922Y0329143D01*
X0226912Y0328990D01*
X0226898Y0328838D01*
X0226880Y0328685D01*
X0226858Y0328534D01*
X0226833Y0328383D01*
X0226803Y0328232D01*
X0226769Y0328082D01*
X0226732Y0327934D01*
X0226691Y0327786D01*
X0226646Y0327640D01*
X0226597Y0327494D01*
X0226544Y0327350D01*
X0226488Y0327208D01*
X0226428Y0327067D01*
X0226364Y0326927D01*
X0226297Y0326789D01*
X0226226Y0326653D01*
X0226151Y0326519D01*
X0226074Y0326387D01*
X0225992Y0326257D01*
X0225908Y0326129D01*
X0225820Y0326003D01*
X0225729Y0325880D01*
X0225635Y0325759D01*
X0225537Y0325641D01*
X0225437Y0325525D01*
X0225333Y0325412D01*
X0225227Y0325301D01*
X0225118Y0325193D01*
X0225006Y0325088D01*
X0224892Y0324987D01*
X0224774Y0324888D01*
X0224655Y0324792D01*
X0224533Y0324699D01*
X0224408Y0324610D01*
X0224281Y0324523D01*
X0224152Y0324441D01*
X0224021Y0324361D01*
X0223888Y0324285D01*
X0223753Y0324212D01*
X0223616Y0324143D01*
X0223477Y0324078D01*
X0223337Y0324016D01*
X0223195Y0323958D01*
X0223052Y0323903D01*
X0222907Y0323852D01*
X0222761Y0323805D01*
X0222614Y0323762D01*
X0222466Y0323723D01*
X0222317Y0323687D01*
X0222167Y0323656D01*
X0222016Y0323628D01*
X0221865Y0323604D01*
X0221712Y0323584D01*
X0221560Y0323568D01*
X0221407Y0323556D01*
X0221254Y0323548D01*
X0221101Y0323544D01*
X0220947Y0323544D01*
X0220794Y0323548D01*
X0220641Y0323556D01*
X0220488Y0323568D01*
X0220336Y0323584D01*
X0220183Y0323604D01*
X0220032Y0323628D01*
X0219881Y0323656D01*
X0219731Y0323687D01*
X0219582Y0323723D01*
X0219434Y0323762D01*
X0219287Y0323805D01*
X0219141Y0323852D01*
X0218996Y0323903D01*
X0218853Y0323958D01*
X0218711Y0324016D01*
X0218571Y0324078D01*
X0218432Y0324143D01*
X0218295Y0324212D01*
X0218160Y0324285D01*
X0218027Y0324361D01*
X0217896Y0324441D01*
X0217767Y0324523D01*
X0217640Y0324610D01*
X0217515Y0324699D01*
X0217393Y0324792D01*
X0217274Y0324888D01*
X0217156Y0324987D01*
X0217042Y0325088D01*
X0216930Y0325193D01*
X0216821Y0325301D01*
X0216715Y0325412D01*
X0216611Y0325525D01*
X0216511Y0325641D01*
X0216413Y0325759D01*
X0216319Y0325880D01*
X0216228Y0326003D01*
X0216140Y0326129D01*
X0216056Y0326257D01*
X0215974Y0326387D01*
X0215897Y0326519D01*
X0215822Y0326653D01*
X0215751Y0326789D01*
X0215684Y0326927D01*
X0215620Y0327067D01*
X0215560Y0327208D01*
X0215504Y0327350D01*
X0215451Y0327494D01*
X0215402Y0327640D01*
X0215357Y0327786D01*
X0215316Y0327934D01*
X0215279Y0328082D01*
X0215245Y0328232D01*
X0215215Y0328383D01*
X0215190Y0328534D01*
X0215168Y0328685D01*
X0215150Y0328838D01*
X0215136Y0328990D01*
X0215126Y0329143D01*
X0215120Y0329297D01*
X0215118Y0329450D01*
X0264332Y0219213D02*
X0264334Y0219338D01*
X0264340Y0219463D01*
X0264350Y0219587D01*
X0264364Y0219711D01*
X0264381Y0219835D01*
X0264403Y0219958D01*
X0264429Y0220080D01*
X0264458Y0220202D01*
X0264491Y0220322D01*
X0264529Y0220441D01*
X0264569Y0220560D01*
X0264614Y0220676D01*
X0264662Y0220791D01*
X0264714Y0220905D01*
X0264770Y0221017D01*
X0264829Y0221127D01*
X0264891Y0221235D01*
X0264957Y0221342D01*
X0265026Y0221446D01*
X0265099Y0221547D01*
X0265174Y0221647D01*
X0265253Y0221744D01*
X0265335Y0221838D01*
X0265420Y0221930D01*
X0265507Y0222019D01*
X0265598Y0222105D01*
X0265691Y0222188D01*
X0265787Y0222269D01*
X0265885Y0222346D01*
X0265985Y0222420D01*
X0266088Y0222491D01*
X0266193Y0222558D01*
X0266301Y0222623D01*
X0266410Y0222683D01*
X0266521Y0222741D01*
X0266634Y0222794D01*
X0266748Y0222844D01*
X0266864Y0222891D01*
X0266981Y0222933D01*
X0267100Y0222972D01*
X0267220Y0223008D01*
X0267341Y0223039D01*
X0267463Y0223067D01*
X0267585Y0223090D01*
X0267709Y0223110D01*
X0267833Y0223126D01*
X0267957Y0223138D01*
X0268082Y0223146D01*
X0268207Y0223150D01*
X0268331Y0223150D01*
X0268456Y0223146D01*
X0268581Y0223138D01*
X0268705Y0223126D01*
X0268829Y0223110D01*
X0268953Y0223090D01*
X0269075Y0223067D01*
X0269197Y0223039D01*
X0269318Y0223008D01*
X0269438Y0222972D01*
X0269557Y0222933D01*
X0269674Y0222891D01*
X0269790Y0222844D01*
X0269904Y0222794D01*
X0270017Y0222741D01*
X0270128Y0222683D01*
X0270238Y0222623D01*
X0270345Y0222558D01*
X0270450Y0222491D01*
X0270553Y0222420D01*
X0270653Y0222346D01*
X0270751Y0222269D01*
X0270847Y0222188D01*
X0270940Y0222105D01*
X0271031Y0222019D01*
X0271118Y0221930D01*
X0271203Y0221838D01*
X0271285Y0221744D01*
X0271364Y0221647D01*
X0271439Y0221547D01*
X0271512Y0221446D01*
X0271581Y0221342D01*
X0271647Y0221235D01*
X0271709Y0221127D01*
X0271768Y0221017D01*
X0271824Y0220905D01*
X0271876Y0220791D01*
X0271924Y0220676D01*
X0271969Y0220560D01*
X0272009Y0220441D01*
X0272047Y0220322D01*
X0272080Y0220202D01*
X0272109Y0220080D01*
X0272135Y0219958D01*
X0272157Y0219835D01*
X0272174Y0219711D01*
X0272188Y0219587D01*
X0272198Y0219463D01*
X0272204Y0219338D01*
X0272206Y0219213D01*
X0272204Y0219088D01*
X0272198Y0218963D01*
X0272188Y0218839D01*
X0272174Y0218715D01*
X0272157Y0218591D01*
X0272135Y0218468D01*
X0272109Y0218346D01*
X0272080Y0218224D01*
X0272047Y0218104D01*
X0272009Y0217985D01*
X0271969Y0217866D01*
X0271924Y0217750D01*
X0271876Y0217635D01*
X0271824Y0217521D01*
X0271768Y0217409D01*
X0271709Y0217299D01*
X0271647Y0217191D01*
X0271581Y0217084D01*
X0271512Y0216980D01*
X0271439Y0216879D01*
X0271364Y0216779D01*
X0271285Y0216682D01*
X0271203Y0216588D01*
X0271118Y0216496D01*
X0271031Y0216407D01*
X0270940Y0216321D01*
X0270847Y0216238D01*
X0270751Y0216157D01*
X0270653Y0216080D01*
X0270553Y0216006D01*
X0270450Y0215935D01*
X0270345Y0215868D01*
X0270237Y0215803D01*
X0270128Y0215743D01*
X0270017Y0215685D01*
X0269904Y0215632D01*
X0269790Y0215582D01*
X0269674Y0215535D01*
X0269557Y0215493D01*
X0269438Y0215454D01*
X0269318Y0215418D01*
X0269197Y0215387D01*
X0269075Y0215359D01*
X0268953Y0215336D01*
X0268829Y0215316D01*
X0268705Y0215300D01*
X0268581Y0215288D01*
X0268456Y0215280D01*
X0268331Y0215276D01*
X0268207Y0215276D01*
X0268082Y0215280D01*
X0267957Y0215288D01*
X0267833Y0215300D01*
X0267709Y0215316D01*
X0267585Y0215336D01*
X0267463Y0215359D01*
X0267341Y0215387D01*
X0267220Y0215418D01*
X0267100Y0215454D01*
X0266981Y0215493D01*
X0266864Y0215535D01*
X0266748Y0215582D01*
X0266634Y0215632D01*
X0266521Y0215685D01*
X0266410Y0215743D01*
X0266300Y0215803D01*
X0266193Y0215868D01*
X0266088Y0215935D01*
X0265985Y0216006D01*
X0265885Y0216080D01*
X0265787Y0216157D01*
X0265691Y0216238D01*
X0265598Y0216321D01*
X0265507Y0216407D01*
X0265420Y0216496D01*
X0265335Y0216588D01*
X0265253Y0216682D01*
X0265174Y0216779D01*
X0265099Y0216879D01*
X0265026Y0216980D01*
X0264957Y0217084D01*
X0264891Y0217191D01*
X0264829Y0217299D01*
X0264770Y0217409D01*
X0264714Y0217521D01*
X0264662Y0217635D01*
X0264614Y0217750D01*
X0264569Y0217866D01*
X0264529Y0217985D01*
X0264491Y0218104D01*
X0264458Y0218224D01*
X0264429Y0218346D01*
X0264403Y0218468D01*
X0264381Y0218591D01*
X0264364Y0218715D01*
X0264350Y0218839D01*
X0264340Y0218963D01*
X0264334Y0219088D01*
X0264332Y0219213D01*
X0264332Y0148347D02*
X0264334Y0148472D01*
X0264340Y0148597D01*
X0264350Y0148721D01*
X0264364Y0148845D01*
X0264381Y0148969D01*
X0264403Y0149092D01*
X0264429Y0149214D01*
X0264458Y0149336D01*
X0264491Y0149456D01*
X0264529Y0149575D01*
X0264569Y0149694D01*
X0264614Y0149810D01*
X0264662Y0149925D01*
X0264714Y0150039D01*
X0264770Y0150151D01*
X0264829Y0150261D01*
X0264891Y0150369D01*
X0264957Y0150476D01*
X0265026Y0150580D01*
X0265099Y0150681D01*
X0265174Y0150781D01*
X0265253Y0150878D01*
X0265335Y0150972D01*
X0265420Y0151064D01*
X0265507Y0151153D01*
X0265598Y0151239D01*
X0265691Y0151322D01*
X0265787Y0151403D01*
X0265885Y0151480D01*
X0265985Y0151554D01*
X0266088Y0151625D01*
X0266193Y0151692D01*
X0266301Y0151757D01*
X0266410Y0151817D01*
X0266521Y0151875D01*
X0266634Y0151928D01*
X0266748Y0151978D01*
X0266864Y0152025D01*
X0266981Y0152067D01*
X0267100Y0152106D01*
X0267220Y0152142D01*
X0267341Y0152173D01*
X0267463Y0152201D01*
X0267585Y0152224D01*
X0267709Y0152244D01*
X0267833Y0152260D01*
X0267957Y0152272D01*
X0268082Y0152280D01*
X0268207Y0152284D01*
X0268331Y0152284D01*
X0268456Y0152280D01*
X0268581Y0152272D01*
X0268705Y0152260D01*
X0268829Y0152244D01*
X0268953Y0152224D01*
X0269075Y0152201D01*
X0269197Y0152173D01*
X0269318Y0152142D01*
X0269438Y0152106D01*
X0269557Y0152067D01*
X0269674Y0152025D01*
X0269790Y0151978D01*
X0269904Y0151928D01*
X0270017Y0151875D01*
X0270128Y0151817D01*
X0270238Y0151757D01*
X0270345Y0151692D01*
X0270450Y0151625D01*
X0270553Y0151554D01*
X0270653Y0151480D01*
X0270751Y0151403D01*
X0270847Y0151322D01*
X0270940Y0151239D01*
X0271031Y0151153D01*
X0271118Y0151064D01*
X0271203Y0150972D01*
X0271285Y0150878D01*
X0271364Y0150781D01*
X0271439Y0150681D01*
X0271512Y0150580D01*
X0271581Y0150476D01*
X0271647Y0150369D01*
X0271709Y0150261D01*
X0271768Y0150151D01*
X0271824Y0150039D01*
X0271876Y0149925D01*
X0271924Y0149810D01*
X0271969Y0149694D01*
X0272009Y0149575D01*
X0272047Y0149456D01*
X0272080Y0149336D01*
X0272109Y0149214D01*
X0272135Y0149092D01*
X0272157Y0148969D01*
X0272174Y0148845D01*
X0272188Y0148721D01*
X0272198Y0148597D01*
X0272204Y0148472D01*
X0272206Y0148347D01*
X0272204Y0148222D01*
X0272198Y0148097D01*
X0272188Y0147973D01*
X0272174Y0147849D01*
X0272157Y0147725D01*
X0272135Y0147602D01*
X0272109Y0147480D01*
X0272080Y0147358D01*
X0272047Y0147238D01*
X0272009Y0147119D01*
X0271969Y0147000D01*
X0271924Y0146884D01*
X0271876Y0146769D01*
X0271824Y0146655D01*
X0271768Y0146543D01*
X0271709Y0146433D01*
X0271647Y0146325D01*
X0271581Y0146218D01*
X0271512Y0146114D01*
X0271439Y0146013D01*
X0271364Y0145913D01*
X0271285Y0145816D01*
X0271203Y0145722D01*
X0271118Y0145630D01*
X0271031Y0145541D01*
X0270940Y0145455D01*
X0270847Y0145372D01*
X0270751Y0145291D01*
X0270653Y0145214D01*
X0270553Y0145140D01*
X0270450Y0145069D01*
X0270345Y0145002D01*
X0270237Y0144937D01*
X0270128Y0144877D01*
X0270017Y0144819D01*
X0269904Y0144766D01*
X0269790Y0144716D01*
X0269674Y0144669D01*
X0269557Y0144627D01*
X0269438Y0144588D01*
X0269318Y0144552D01*
X0269197Y0144521D01*
X0269075Y0144493D01*
X0268953Y0144470D01*
X0268829Y0144450D01*
X0268705Y0144434D01*
X0268581Y0144422D01*
X0268456Y0144414D01*
X0268331Y0144410D01*
X0268207Y0144410D01*
X0268082Y0144414D01*
X0267957Y0144422D01*
X0267833Y0144434D01*
X0267709Y0144450D01*
X0267585Y0144470D01*
X0267463Y0144493D01*
X0267341Y0144521D01*
X0267220Y0144552D01*
X0267100Y0144588D01*
X0266981Y0144627D01*
X0266864Y0144669D01*
X0266748Y0144716D01*
X0266634Y0144766D01*
X0266521Y0144819D01*
X0266410Y0144877D01*
X0266300Y0144937D01*
X0266193Y0145002D01*
X0266088Y0145069D01*
X0265985Y0145140D01*
X0265885Y0145214D01*
X0265787Y0145291D01*
X0265691Y0145372D01*
X0265598Y0145455D01*
X0265507Y0145541D01*
X0265420Y0145630D01*
X0265335Y0145722D01*
X0265253Y0145816D01*
X0265174Y0145913D01*
X0265099Y0146013D01*
X0265026Y0146114D01*
X0264957Y0146218D01*
X0264891Y0146325D01*
X0264829Y0146433D01*
X0264770Y0146543D01*
X0264714Y0146655D01*
X0264662Y0146769D01*
X0264614Y0146884D01*
X0264569Y0147000D01*
X0264529Y0147119D01*
X0264491Y0147238D01*
X0264458Y0147358D01*
X0264429Y0147480D01*
X0264403Y0147602D01*
X0264381Y0147725D01*
X0264364Y0147849D01*
X0264350Y0147973D01*
X0264340Y0148097D01*
X0264334Y0148222D01*
X0264332Y0148347D01*
X0215118Y0038111D02*
X0215120Y0038264D01*
X0215126Y0038418D01*
X0215136Y0038571D01*
X0215150Y0038723D01*
X0215168Y0038876D01*
X0215190Y0039027D01*
X0215215Y0039178D01*
X0215245Y0039329D01*
X0215279Y0039479D01*
X0215316Y0039627D01*
X0215357Y0039775D01*
X0215402Y0039921D01*
X0215451Y0040067D01*
X0215504Y0040211D01*
X0215560Y0040353D01*
X0215620Y0040494D01*
X0215684Y0040634D01*
X0215751Y0040772D01*
X0215822Y0040908D01*
X0215897Y0041042D01*
X0215974Y0041174D01*
X0216056Y0041304D01*
X0216140Y0041432D01*
X0216228Y0041558D01*
X0216319Y0041681D01*
X0216413Y0041802D01*
X0216511Y0041920D01*
X0216611Y0042036D01*
X0216715Y0042149D01*
X0216821Y0042260D01*
X0216930Y0042368D01*
X0217042Y0042473D01*
X0217156Y0042574D01*
X0217274Y0042673D01*
X0217393Y0042769D01*
X0217515Y0042862D01*
X0217640Y0042951D01*
X0217767Y0043038D01*
X0217896Y0043120D01*
X0218027Y0043200D01*
X0218160Y0043276D01*
X0218295Y0043349D01*
X0218432Y0043418D01*
X0218571Y0043483D01*
X0218711Y0043545D01*
X0218853Y0043603D01*
X0218996Y0043658D01*
X0219141Y0043709D01*
X0219287Y0043756D01*
X0219434Y0043799D01*
X0219582Y0043838D01*
X0219731Y0043874D01*
X0219881Y0043905D01*
X0220032Y0043933D01*
X0220183Y0043957D01*
X0220336Y0043977D01*
X0220488Y0043993D01*
X0220641Y0044005D01*
X0220794Y0044013D01*
X0220947Y0044017D01*
X0221101Y0044017D01*
X0221254Y0044013D01*
X0221407Y0044005D01*
X0221560Y0043993D01*
X0221712Y0043977D01*
X0221865Y0043957D01*
X0222016Y0043933D01*
X0222167Y0043905D01*
X0222317Y0043874D01*
X0222466Y0043838D01*
X0222614Y0043799D01*
X0222761Y0043756D01*
X0222907Y0043709D01*
X0223052Y0043658D01*
X0223195Y0043603D01*
X0223337Y0043545D01*
X0223477Y0043483D01*
X0223616Y0043418D01*
X0223753Y0043349D01*
X0223888Y0043276D01*
X0224021Y0043200D01*
X0224152Y0043120D01*
X0224281Y0043038D01*
X0224408Y0042951D01*
X0224533Y0042862D01*
X0224655Y0042769D01*
X0224774Y0042673D01*
X0224892Y0042574D01*
X0225006Y0042473D01*
X0225118Y0042368D01*
X0225227Y0042260D01*
X0225333Y0042149D01*
X0225437Y0042036D01*
X0225537Y0041920D01*
X0225635Y0041802D01*
X0225729Y0041681D01*
X0225820Y0041558D01*
X0225908Y0041432D01*
X0225992Y0041304D01*
X0226074Y0041174D01*
X0226151Y0041042D01*
X0226226Y0040908D01*
X0226297Y0040772D01*
X0226364Y0040634D01*
X0226428Y0040494D01*
X0226488Y0040353D01*
X0226544Y0040211D01*
X0226597Y0040067D01*
X0226646Y0039921D01*
X0226691Y0039775D01*
X0226732Y0039627D01*
X0226769Y0039479D01*
X0226803Y0039329D01*
X0226833Y0039178D01*
X0226858Y0039027D01*
X0226880Y0038876D01*
X0226898Y0038723D01*
X0226912Y0038571D01*
X0226922Y0038418D01*
X0226928Y0038264D01*
X0226930Y0038111D01*
X0226928Y0037958D01*
X0226922Y0037804D01*
X0226912Y0037651D01*
X0226898Y0037499D01*
X0226880Y0037346D01*
X0226858Y0037195D01*
X0226833Y0037044D01*
X0226803Y0036893D01*
X0226769Y0036743D01*
X0226732Y0036595D01*
X0226691Y0036447D01*
X0226646Y0036301D01*
X0226597Y0036155D01*
X0226544Y0036011D01*
X0226488Y0035869D01*
X0226428Y0035728D01*
X0226364Y0035588D01*
X0226297Y0035450D01*
X0226226Y0035314D01*
X0226151Y0035180D01*
X0226074Y0035048D01*
X0225992Y0034918D01*
X0225908Y0034790D01*
X0225820Y0034664D01*
X0225729Y0034541D01*
X0225635Y0034420D01*
X0225537Y0034302D01*
X0225437Y0034186D01*
X0225333Y0034073D01*
X0225227Y0033962D01*
X0225118Y0033854D01*
X0225006Y0033749D01*
X0224892Y0033648D01*
X0224774Y0033549D01*
X0224655Y0033453D01*
X0224533Y0033360D01*
X0224408Y0033271D01*
X0224281Y0033184D01*
X0224152Y0033102D01*
X0224021Y0033022D01*
X0223888Y0032946D01*
X0223753Y0032873D01*
X0223616Y0032804D01*
X0223477Y0032739D01*
X0223337Y0032677D01*
X0223195Y0032619D01*
X0223052Y0032564D01*
X0222907Y0032513D01*
X0222761Y0032466D01*
X0222614Y0032423D01*
X0222466Y0032384D01*
X0222317Y0032348D01*
X0222167Y0032317D01*
X0222016Y0032289D01*
X0221865Y0032265D01*
X0221712Y0032245D01*
X0221560Y0032229D01*
X0221407Y0032217D01*
X0221254Y0032209D01*
X0221101Y0032205D01*
X0220947Y0032205D01*
X0220794Y0032209D01*
X0220641Y0032217D01*
X0220488Y0032229D01*
X0220336Y0032245D01*
X0220183Y0032265D01*
X0220032Y0032289D01*
X0219881Y0032317D01*
X0219731Y0032348D01*
X0219582Y0032384D01*
X0219434Y0032423D01*
X0219287Y0032466D01*
X0219141Y0032513D01*
X0218996Y0032564D01*
X0218853Y0032619D01*
X0218711Y0032677D01*
X0218571Y0032739D01*
X0218432Y0032804D01*
X0218295Y0032873D01*
X0218160Y0032946D01*
X0218027Y0033022D01*
X0217896Y0033102D01*
X0217767Y0033184D01*
X0217640Y0033271D01*
X0217515Y0033360D01*
X0217393Y0033453D01*
X0217274Y0033549D01*
X0217156Y0033648D01*
X0217042Y0033749D01*
X0216930Y0033854D01*
X0216821Y0033962D01*
X0216715Y0034073D01*
X0216611Y0034186D01*
X0216511Y0034302D01*
X0216413Y0034420D01*
X0216319Y0034541D01*
X0216228Y0034664D01*
X0216140Y0034790D01*
X0216056Y0034918D01*
X0215974Y0035048D01*
X0215897Y0035180D01*
X0215822Y0035314D01*
X0215751Y0035450D01*
X0215684Y0035588D01*
X0215620Y0035728D01*
X0215560Y0035869D01*
X0215504Y0036011D01*
X0215451Y0036155D01*
X0215402Y0036301D01*
X0215357Y0036447D01*
X0215316Y0036595D01*
X0215279Y0036743D01*
X0215245Y0036893D01*
X0215215Y0037044D01*
X0215190Y0037195D01*
X0215168Y0037346D01*
X0215150Y0037499D01*
X0215136Y0037651D01*
X0215126Y0037804D01*
X0215120Y0037958D01*
X0215118Y0038111D01*
X0120630Y0038111D02*
X0120632Y0038264D01*
X0120638Y0038418D01*
X0120648Y0038571D01*
X0120662Y0038723D01*
X0120680Y0038876D01*
X0120702Y0039027D01*
X0120727Y0039178D01*
X0120757Y0039329D01*
X0120791Y0039479D01*
X0120828Y0039627D01*
X0120869Y0039775D01*
X0120914Y0039921D01*
X0120963Y0040067D01*
X0121016Y0040211D01*
X0121072Y0040353D01*
X0121132Y0040494D01*
X0121196Y0040634D01*
X0121263Y0040772D01*
X0121334Y0040908D01*
X0121409Y0041042D01*
X0121486Y0041174D01*
X0121568Y0041304D01*
X0121652Y0041432D01*
X0121740Y0041558D01*
X0121831Y0041681D01*
X0121925Y0041802D01*
X0122023Y0041920D01*
X0122123Y0042036D01*
X0122227Y0042149D01*
X0122333Y0042260D01*
X0122442Y0042368D01*
X0122554Y0042473D01*
X0122668Y0042574D01*
X0122786Y0042673D01*
X0122905Y0042769D01*
X0123027Y0042862D01*
X0123152Y0042951D01*
X0123279Y0043038D01*
X0123408Y0043120D01*
X0123539Y0043200D01*
X0123672Y0043276D01*
X0123807Y0043349D01*
X0123944Y0043418D01*
X0124083Y0043483D01*
X0124223Y0043545D01*
X0124365Y0043603D01*
X0124508Y0043658D01*
X0124653Y0043709D01*
X0124799Y0043756D01*
X0124946Y0043799D01*
X0125094Y0043838D01*
X0125243Y0043874D01*
X0125393Y0043905D01*
X0125544Y0043933D01*
X0125695Y0043957D01*
X0125848Y0043977D01*
X0126000Y0043993D01*
X0126153Y0044005D01*
X0126306Y0044013D01*
X0126459Y0044017D01*
X0126613Y0044017D01*
X0126766Y0044013D01*
X0126919Y0044005D01*
X0127072Y0043993D01*
X0127224Y0043977D01*
X0127377Y0043957D01*
X0127528Y0043933D01*
X0127679Y0043905D01*
X0127829Y0043874D01*
X0127978Y0043838D01*
X0128126Y0043799D01*
X0128273Y0043756D01*
X0128419Y0043709D01*
X0128564Y0043658D01*
X0128707Y0043603D01*
X0128849Y0043545D01*
X0128989Y0043483D01*
X0129128Y0043418D01*
X0129265Y0043349D01*
X0129400Y0043276D01*
X0129533Y0043200D01*
X0129664Y0043120D01*
X0129793Y0043038D01*
X0129920Y0042951D01*
X0130045Y0042862D01*
X0130167Y0042769D01*
X0130286Y0042673D01*
X0130404Y0042574D01*
X0130518Y0042473D01*
X0130630Y0042368D01*
X0130739Y0042260D01*
X0130845Y0042149D01*
X0130949Y0042036D01*
X0131049Y0041920D01*
X0131147Y0041802D01*
X0131241Y0041681D01*
X0131332Y0041558D01*
X0131420Y0041432D01*
X0131504Y0041304D01*
X0131586Y0041174D01*
X0131663Y0041042D01*
X0131738Y0040908D01*
X0131809Y0040772D01*
X0131876Y0040634D01*
X0131940Y0040494D01*
X0132000Y0040353D01*
X0132056Y0040211D01*
X0132109Y0040067D01*
X0132158Y0039921D01*
X0132203Y0039775D01*
X0132244Y0039627D01*
X0132281Y0039479D01*
X0132315Y0039329D01*
X0132345Y0039178D01*
X0132370Y0039027D01*
X0132392Y0038876D01*
X0132410Y0038723D01*
X0132424Y0038571D01*
X0132434Y0038418D01*
X0132440Y0038264D01*
X0132442Y0038111D01*
X0132440Y0037958D01*
X0132434Y0037804D01*
X0132424Y0037651D01*
X0132410Y0037499D01*
X0132392Y0037346D01*
X0132370Y0037195D01*
X0132345Y0037044D01*
X0132315Y0036893D01*
X0132281Y0036743D01*
X0132244Y0036595D01*
X0132203Y0036447D01*
X0132158Y0036301D01*
X0132109Y0036155D01*
X0132056Y0036011D01*
X0132000Y0035869D01*
X0131940Y0035728D01*
X0131876Y0035588D01*
X0131809Y0035450D01*
X0131738Y0035314D01*
X0131663Y0035180D01*
X0131586Y0035048D01*
X0131504Y0034918D01*
X0131420Y0034790D01*
X0131332Y0034664D01*
X0131241Y0034541D01*
X0131147Y0034420D01*
X0131049Y0034302D01*
X0130949Y0034186D01*
X0130845Y0034073D01*
X0130739Y0033962D01*
X0130630Y0033854D01*
X0130518Y0033749D01*
X0130404Y0033648D01*
X0130286Y0033549D01*
X0130167Y0033453D01*
X0130045Y0033360D01*
X0129920Y0033271D01*
X0129793Y0033184D01*
X0129664Y0033102D01*
X0129533Y0033022D01*
X0129400Y0032946D01*
X0129265Y0032873D01*
X0129128Y0032804D01*
X0128989Y0032739D01*
X0128849Y0032677D01*
X0128707Y0032619D01*
X0128564Y0032564D01*
X0128419Y0032513D01*
X0128273Y0032466D01*
X0128126Y0032423D01*
X0127978Y0032384D01*
X0127829Y0032348D01*
X0127679Y0032317D01*
X0127528Y0032289D01*
X0127377Y0032265D01*
X0127224Y0032245D01*
X0127072Y0032229D01*
X0126919Y0032217D01*
X0126766Y0032209D01*
X0126613Y0032205D01*
X0126459Y0032205D01*
X0126306Y0032209D01*
X0126153Y0032217D01*
X0126000Y0032229D01*
X0125848Y0032245D01*
X0125695Y0032265D01*
X0125544Y0032289D01*
X0125393Y0032317D01*
X0125243Y0032348D01*
X0125094Y0032384D01*
X0124946Y0032423D01*
X0124799Y0032466D01*
X0124653Y0032513D01*
X0124508Y0032564D01*
X0124365Y0032619D01*
X0124223Y0032677D01*
X0124083Y0032739D01*
X0123944Y0032804D01*
X0123807Y0032873D01*
X0123672Y0032946D01*
X0123539Y0033022D01*
X0123408Y0033102D01*
X0123279Y0033184D01*
X0123152Y0033271D01*
X0123027Y0033360D01*
X0122905Y0033453D01*
X0122786Y0033549D01*
X0122668Y0033648D01*
X0122554Y0033749D01*
X0122442Y0033854D01*
X0122333Y0033962D01*
X0122227Y0034073D01*
X0122123Y0034186D01*
X0122023Y0034302D01*
X0121925Y0034420D01*
X0121831Y0034541D01*
X0121740Y0034664D01*
X0121652Y0034790D01*
X0121568Y0034918D01*
X0121486Y0035048D01*
X0121409Y0035180D01*
X0121334Y0035314D01*
X0121263Y0035450D01*
X0121196Y0035588D01*
X0121132Y0035728D01*
X0121072Y0035869D01*
X0121016Y0036011D01*
X0120963Y0036155D01*
X0120914Y0036301D01*
X0120869Y0036447D01*
X0120828Y0036595D01*
X0120791Y0036743D01*
X0120757Y0036893D01*
X0120727Y0037044D01*
X0120702Y0037195D01*
X0120680Y0037346D01*
X0120662Y0037499D01*
X0120648Y0037651D01*
X0120638Y0037804D01*
X0120632Y0037958D01*
X0120630Y0038111D01*
D12*
X0079292Y0148347D03*
X0079292Y0219213D03*
X0268269Y0219213D03*
X0268269Y0148347D03*
D13*
X0221024Y0038111D03*
X0126536Y0038111D03*
X0106851Y0136300D03*
X0106851Y0152048D03*
X0126536Y0329450D03*
X0221024Y0329450D03*
D14*
X0124426Y0148713D03*
X0124426Y0138713D03*
D15*
X0148780Y0154253D03*
X0158780Y0154253D03*
X0168780Y0154253D03*
X0178780Y0154253D03*
X0188780Y0154253D03*
X0198780Y0154253D03*
X0086772Y0241489D03*
X0086772Y0251489D03*
X0086772Y0261489D03*
X0086772Y0271489D03*
X0086772Y0281489D03*
X0086772Y0291489D03*
X0153780Y0333387D03*
X0163780Y0333387D03*
X0173780Y0333387D03*
X0183780Y0333387D03*
D16*
X0205276Y0216457D03*
X0211182Y0216457D03*
X0217087Y0216457D03*
X0222993Y0216457D03*
X0228898Y0216457D03*
X0234804Y0216457D03*
X0140316Y0216457D03*
X0134410Y0216457D03*
X0128505Y0216457D03*
X0122599Y0216457D03*
X0116694Y0216457D03*
X0110788Y0216457D03*
D17*
X0173780Y0036930D03*
D18*
X0165780Y0036930D03*
X0181780Y0036930D03*
D19*
X0190180Y0039680D02*
X0190180Y0034180D01*
X0157380Y0034180D02*
X0157380Y0039680D01*
D20*
X0097166Y0056497D03*
X0174331Y0181969D03*
X0251143Y0181497D03*
X0290922Y0181497D03*
X0251702Y0056115D03*
D21*
X0251300Y0241300D03*
X0241300Y0241300D03*
X0231300Y0241300D03*
X0221300Y0241300D03*
X0261300Y0241300D03*
X0271300Y0241300D03*
X0281300Y0241300D03*
X0291300Y0241300D03*
X0301300Y0241300D03*
D22*
X0240800Y0140300D02*
X0240800Y0134300D01*
X0230800Y0134300D02*
X0230800Y0140300D01*
X0220800Y0140300D02*
X0220800Y0134300D01*
X0282954Y0119851D02*
X0282954Y0113851D01*
X0292954Y0113851D02*
X0292954Y0119851D01*
D23*
G36*
X0289980Y0275937D02*
X0294222Y0280179D01*
X0298464Y0275937D01*
X0294222Y0271695D01*
X0289980Y0275937D01*
G37*
G36*
X0079655Y0299980D02*
X0075413Y0304222D01*
X0079655Y0308464D01*
X0083897Y0304222D01*
X0079655Y0299980D01*
G37*
D24*
X0072978Y0295352D02*
X0073578Y0294752D01*
X0071590Y0294752D01*
X0070185Y0296157D01*
X0070185Y0298145D01*
X0071590Y0299550D01*
X0073578Y0299550D01*
X0074983Y0298145D01*
X0074983Y0296157D01*
X0073578Y0294752D01*
X0073205Y0295652D01*
X0071963Y0295652D01*
X0071085Y0296530D01*
X0071085Y0297772D01*
X0071963Y0298650D01*
X0073205Y0298650D01*
X0074083Y0297772D01*
X0074083Y0296530D01*
X0073205Y0295652D01*
X0072832Y0296552D01*
X0072336Y0296552D01*
X0071985Y0296903D01*
X0071985Y0297399D01*
X0072336Y0297750D01*
X0072832Y0297750D01*
X0073183Y0297399D01*
X0073183Y0296903D01*
X0072832Y0296552D01*
X0065907Y0288281D02*
X0066507Y0287681D01*
X0064519Y0287681D01*
X0063114Y0289086D01*
X0063114Y0291074D01*
X0064519Y0292479D01*
X0066507Y0292479D01*
X0067912Y0291074D01*
X0067912Y0289086D01*
X0066507Y0287681D01*
X0066134Y0288581D01*
X0064892Y0288581D01*
X0064014Y0289459D01*
X0064014Y0290701D01*
X0064892Y0291579D01*
X0066134Y0291579D01*
X0067012Y0290701D01*
X0067012Y0289459D01*
X0066134Y0288581D01*
X0065761Y0289481D01*
X0065265Y0289481D01*
X0064914Y0289832D01*
X0064914Y0290328D01*
X0065265Y0290679D01*
X0065761Y0290679D01*
X0066112Y0290328D01*
X0066112Y0289832D01*
X0065761Y0289481D01*
X0058836Y0281209D02*
X0059436Y0280609D01*
X0057448Y0280609D01*
X0056043Y0282014D01*
X0056043Y0284002D01*
X0057448Y0285407D01*
X0059436Y0285407D01*
X0060841Y0284002D01*
X0060841Y0282014D01*
X0059436Y0280609D01*
X0059063Y0281509D01*
X0057821Y0281509D01*
X0056943Y0282387D01*
X0056943Y0283629D01*
X0057821Y0284507D01*
X0059063Y0284507D01*
X0059941Y0283629D01*
X0059941Y0282387D01*
X0059063Y0281509D01*
X0058690Y0282409D01*
X0058194Y0282409D01*
X0057843Y0282760D01*
X0057843Y0283256D01*
X0058194Y0283607D01*
X0058690Y0283607D01*
X0059041Y0283256D01*
X0059041Y0282760D01*
X0058690Y0282409D01*
X0051764Y0274138D02*
X0052364Y0273538D01*
X0050376Y0273538D01*
X0048971Y0274943D01*
X0048971Y0276931D01*
X0050376Y0278336D01*
X0052364Y0278336D01*
X0053769Y0276931D01*
X0053769Y0274943D01*
X0052364Y0273538D01*
X0051991Y0274438D01*
X0050749Y0274438D01*
X0049871Y0275316D01*
X0049871Y0276558D01*
X0050749Y0277436D01*
X0051991Y0277436D01*
X0052869Y0276558D01*
X0052869Y0275316D01*
X0051991Y0274438D01*
X0051618Y0275338D01*
X0051122Y0275338D01*
X0050771Y0275689D01*
X0050771Y0276185D01*
X0051122Y0276536D01*
X0051618Y0276536D01*
X0051969Y0276185D01*
X0051969Y0275689D01*
X0051618Y0275338D01*
X0264138Y0303828D02*
X0263538Y0303228D01*
X0263538Y0305216D01*
X0264943Y0306621D01*
X0266931Y0306621D01*
X0268336Y0305216D01*
X0268336Y0303228D01*
X0266931Y0301823D01*
X0264943Y0301823D01*
X0263538Y0303228D01*
X0264438Y0303601D01*
X0264438Y0304843D01*
X0265316Y0305721D01*
X0266558Y0305721D01*
X0267436Y0304843D01*
X0267436Y0303601D01*
X0266558Y0302723D01*
X0265316Y0302723D01*
X0264438Y0303601D01*
X0265338Y0303974D01*
X0265338Y0304470D01*
X0265689Y0304821D01*
X0266185Y0304821D01*
X0266536Y0304470D01*
X0266536Y0303974D01*
X0266185Y0303623D01*
X0265689Y0303623D01*
X0265338Y0303974D01*
X0271209Y0296757D02*
X0270609Y0296157D01*
X0270609Y0298145D01*
X0272014Y0299550D01*
X0274002Y0299550D01*
X0275407Y0298145D01*
X0275407Y0296157D01*
X0274002Y0294752D01*
X0272014Y0294752D01*
X0270609Y0296157D01*
X0271509Y0296530D01*
X0271509Y0297772D01*
X0272387Y0298650D01*
X0273629Y0298650D01*
X0274507Y0297772D01*
X0274507Y0296530D01*
X0273629Y0295652D01*
X0272387Y0295652D01*
X0271509Y0296530D01*
X0272409Y0296903D01*
X0272409Y0297399D01*
X0272760Y0297750D01*
X0273256Y0297750D01*
X0273607Y0297399D01*
X0273607Y0296903D01*
X0273256Y0296552D01*
X0272760Y0296552D01*
X0272409Y0296903D01*
X0278281Y0289686D02*
X0277681Y0289086D01*
X0277681Y0291074D01*
X0279086Y0292479D01*
X0281074Y0292479D01*
X0282479Y0291074D01*
X0282479Y0289086D01*
X0281074Y0287681D01*
X0279086Y0287681D01*
X0277681Y0289086D01*
X0278581Y0289459D01*
X0278581Y0290701D01*
X0279459Y0291579D01*
X0280701Y0291579D01*
X0281579Y0290701D01*
X0281579Y0289459D01*
X0280701Y0288581D01*
X0279459Y0288581D01*
X0278581Y0289459D01*
X0279481Y0289832D01*
X0279481Y0290328D01*
X0279832Y0290679D01*
X0280328Y0290679D01*
X0280679Y0290328D01*
X0280679Y0289832D01*
X0280328Y0289481D01*
X0279832Y0289481D01*
X0279481Y0289832D01*
X0285352Y0282614D02*
X0284752Y0282014D01*
X0284752Y0284002D01*
X0286157Y0285407D01*
X0288145Y0285407D01*
X0289550Y0284002D01*
X0289550Y0282014D01*
X0288145Y0280609D01*
X0286157Y0280609D01*
X0284752Y0282014D01*
X0285652Y0282387D01*
X0285652Y0283629D01*
X0286530Y0284507D01*
X0287772Y0284507D01*
X0288650Y0283629D01*
X0288650Y0282387D01*
X0287772Y0281509D01*
X0286530Y0281509D01*
X0285652Y0282387D01*
X0286552Y0282760D01*
X0286552Y0283256D01*
X0286903Y0283607D01*
X0287399Y0283607D01*
X0287750Y0283256D01*
X0287750Y0282760D01*
X0287399Y0282409D01*
X0286903Y0282409D01*
X0286552Y0282760D01*
D25*
X0193780Y0333387D03*
D26*
X0207432Y0297954D02*
X0210994Y0297954D01*
X0210994Y0292954D02*
X0207432Y0292954D01*
X0207432Y0287954D02*
X0210994Y0287954D01*
X0210994Y0282954D02*
X0207432Y0282954D01*
X0207432Y0277954D02*
X0210994Y0277954D01*
X0210994Y0272954D02*
X0207432Y0272954D01*
X0207432Y0262954D02*
X0210994Y0262954D01*
X0210994Y0257954D02*
X0207432Y0257954D01*
X0207432Y0252954D02*
X0210994Y0252954D01*
X0210994Y0247954D02*
X0207432Y0247954D01*
X0207432Y0242954D02*
X0210994Y0242954D01*
X0210994Y0237954D02*
X0207432Y0237954D01*
X0207432Y0232954D02*
X0210994Y0232954D01*
X0196339Y0228869D02*
X0196339Y0225306D01*
X0191339Y0225306D02*
X0191339Y0228869D01*
X0156339Y0228869D02*
X0156339Y0225306D01*
X0151339Y0225306D02*
X0151339Y0228869D01*
X0140128Y0232954D02*
X0136566Y0232954D01*
X0136566Y0237954D02*
X0140128Y0237954D01*
X0140128Y0242954D02*
X0136566Y0242954D01*
X0136566Y0247954D02*
X0140128Y0247954D01*
X0140128Y0252954D02*
X0136566Y0252954D01*
X0136566Y0257954D02*
X0140128Y0257954D01*
X0140128Y0262954D02*
X0136566Y0262954D01*
X0136566Y0267954D02*
X0140128Y0267954D01*
X0140128Y0272954D02*
X0136566Y0272954D01*
X0136566Y0277954D02*
X0140128Y0277954D01*
X0140128Y0282954D02*
X0136566Y0282954D01*
X0136566Y0287954D02*
X0140128Y0287954D01*
X0140128Y0292954D02*
X0136566Y0292954D01*
X0136566Y0297954D02*
X0140128Y0297954D01*
D27*
X0221300Y0291300D03*
X0231300Y0291300D03*
X0231300Y0281300D03*
X0221300Y0281300D03*
X0221300Y0271300D03*
X0221300Y0261300D03*
X0231300Y0261300D03*
X0231300Y0271300D03*
X0241300Y0271300D03*
X0241300Y0261300D03*
X0241300Y0251300D03*
X0231300Y0251300D03*
X0221300Y0251300D03*
X0251300Y0251300D03*
X0251300Y0261300D03*
X0251300Y0271300D03*
X0251300Y0281300D03*
X0251300Y0291300D03*
X0241300Y0291300D03*
X0241300Y0281300D03*
X0261300Y0281300D03*
X0271300Y0281300D03*
X0271300Y0271300D03*
X0271300Y0261300D03*
X0261300Y0261300D03*
X0261300Y0271300D03*
X0261300Y0251300D03*
X0271300Y0251300D03*
X0281300Y0251300D03*
X0281300Y0261300D03*
X0281300Y0271300D03*
X0291300Y0261300D03*
X0301300Y0261300D03*
X0301300Y0251300D03*
X0291300Y0251300D03*
X0261300Y0291300D03*
M02*
