%
M48
M72
T01C0.00800
T02C0.01200
T03C0.02362
T04C0.02400
T05C0.02756
T06C0.03000
T07C0.03150
T08C0.03200
T09C0.03500
T10C0.04000
T11C0.07874
T12C0.11811
%
T01
X187300Y265500
T02
X181100Y265700
X176600Y274700
X169850Y276950
X166250Y276950
X158600Y273350
X154100Y268850
X134750Y291350
X124850Y281450
X102800Y295850
X127550Y326000
X166250Y317900
X192800Y274700
X196500Y254000
X198200Y246800
X218450Y228800
X228800Y228800
X243650Y235550
X245900Y209900
X230150Y203150
X224750Y198200
X207200Y200900
X201300Y197300
X196300Y181300
X166700Y203150
X163100Y203150
X144200Y180650
X184250Y145100
X195050Y137450
X108650Y137900
X140600Y230150
X217550Y306200
X285050Y245450
X286400Y195950
X297200Y148250
X293600Y125750
T03
X206339Y227087
X201339Y227087
X219213Y232954
X219213Y237954
X219213Y242954
X219213Y247954
X219213Y252954
X219213Y257954
X219213Y262954
X219213Y272954
X219213Y277954
X219213Y282954
X219213Y287954
X219213Y292954
X219213Y297954
X148347Y297954
X148347Y292954
X148347Y287954
X148347Y282954
X148347Y277954
X148347Y272954
X148347Y267954
X148347Y262954
X148347Y257954
X148347Y252954
X148347Y247954
X148347Y242954
X148347Y237954
X148347Y232954
X161339Y227087
X166339Y227087
T04
X180300Y258300
X186300Y258300
T05
X215276Y216457
X221182Y216457
X227087Y216457
X232993Y216457
X238898Y216457
X244804Y216457
X150316Y216457
X144410Y216457
X138505Y216457
X132599Y216457
X126694Y216457
X120788Y216457
T06
X167380Y36930
X200180Y36930
T07
X134426Y138713
X134426Y148713
T08
X74000Y116300
X95150Y156350
X76700Y253550
X77150Y262550
X92450Y315200
X131600Y250400
X168500Y263000
X172100Y286850
X202700Y286850
X181100Y320600
X267500Y304400
X317900Y238700
X258500Y218900
X297200Y142850
X203600Y110000
T09
X191780Y36930
X183780Y36930
X175780Y36930
T10
X230800Y137300
X240800Y137300
X250800Y137300
X208780Y154253
X198780Y154253
X188780Y154253
X178780Y154253
X168780Y154253
X158780Y154253
X96772Y241489
X96772Y251489
X96772Y261489
X96772Y271489
X96772Y281489
X96772Y291489
X89655Y304222
X82584Y297151
X75513Y290080
X68442Y283008
X61370Y275937
X163780Y333387
X173780Y333387
X183780Y333387
X193780Y333387
X203780Y333387
X231300Y301300
X231300Y291300
X231300Y281300
X231300Y271300
X231300Y261300
X231300Y251300
X231300Y241300
X241300Y241300
X251300Y241300
X251300Y251300
X241300Y251300
X241300Y261300
X241300Y271300
X251300Y271300
X251300Y261300
X261300Y261300
X261300Y271300
X271300Y271300
X271300Y261300
X271300Y251300
X261300Y251300
X261300Y241300
X271300Y241300
X281300Y241300
X281300Y251300
X281300Y261300
X281300Y271300
X281300Y281300
X290080Y290080
X297151Y283008
X304222Y275937
X291300Y271300
X291300Y261300
X301300Y261300
X301300Y251300
X291300Y251300
X291300Y241300
X301300Y241300
X311300Y241300
X311300Y251300
X311300Y261300
X283008Y297151
X275937Y304222
X271300Y291300
X261300Y291300
X261300Y281300
X271300Y281300
X251300Y281300
X241300Y281300
X241300Y291300
X251300Y291300
X241300Y301300
X292954Y116851
X302954Y116851
T11
X278269Y148347
X278269Y219213
X116851Y152048
X116851Y136300
X89292Y148347
X89292Y219213
T12
X136536Y329450
X231024Y329450
X231024Y38111
X136536Y38111
M30
